<svg width="48" height="141" viewBox="0 0 48 141" version="1.1" xmlns="http://www.w3.org/2000/svg" xmlns:xlink="http://www.w3.org/1999/xlink">
<title>&#208;&#161;&#208;&#191;&#209;&#128;&#208;&#176;&#208;&#185;&#209;&#130; &#208;&#184;&#208;&#186;&#208;&#190;&#208;&#189;&#208;&#190;&#208;&#186;1</title>
<desc>Created using Figma</desc>
<g id="Canvas" transform="translate(24156 18069)">
<g id="&#208;&#161;&#208;&#191;&#209;&#128;&#208;&#176;&#208;&#185;&#209;&#130; &#208;&#184;&#208;&#186;&#208;&#190;&#208;&#189;&#208;&#190;&#208;&#186;1">
<g id="ic_shopping_cart">
<g id="Icon 24px">
<g id="Shape">
<use xlink:href="#path0_fill" transform="translate(-24155 -17950)" fill="#4F4F4F"/>
</g>
</g>
</g>
<g id="ic_shopping_cart">
<g id="Icon 24px">
<g id="Shape">
<use xlink:href="#path0_fill" transform="translate(-24131 -17950)" fill="#C62828"/>
</g>
</g>
</g>
<g id="ic_person">
<g id="Icon 24px">
<g id="Shape">
<use xlink:href="#path1_fill" transform="translate(-24153 -17973)" fill="#4F4F4F"/>
</g>
</g>
</g>
<g id="ic_person">
<g id="Icon 24px">
<g id="Shape">
<use xlink:href="#path1_fill" transform="translate(-24129 -17973)" fill="#C62828"/>
</g>
</g>
</g>
<g id="ic_compare_arrows2">
<g id="Icon 24px">
<mask id="mask0_outline" mask-type="alpha">
<g id="a">
<use xlink:href="#path2_fill" transform="translate(-24156 -18000)" fill="#FFFFFF"/>
</g>
</mask>
<g id="Shape" mask="url(#mask0_outline)">
<use xlink:href="#path3_fill" transform="translate(-24156 -17997)" fill="#BDBDBD"/>
</g>
</g>
</g>
<g id="ic_compare_arrows2">
<g id="Icon 24px">
<mask id="mask1_outline" mask-type="alpha">
<g id="a">
<use xlink:href="#path2_fill" transform="translate(-24132 -18000)" fill="#FFFFFF"/>
</g>
</mask>
<g id="Shape" mask="url(#mask1_outline)">
<use xlink:href="#path3_fill" transform="translate(-24132 -17997)" fill="#C62828"/>
</g>
</g>
</g>
<g id="gift2">
<g id="Group">
<g id="Group">
<g id="Vector">
<use xlink:href="#path4_fill" transform="translate(-24151 -18043)" fill="#C62828"/>
</g>
<g id="Vector">
<use xlink:href="#path5_fill" transform="translate(-24145.8 -18037.2)" fill="#C62828"/>
</g>
<g id="Vector">
<use xlink:href="#path6_fill" transform="translate(-24149.7 -18037.2)" fill="#C62828"/>
</g>
<g id="Vector">
<use xlink:href="#path7_fill" transform="translate(-24142.6 -18037.2)" fill="#C62828"/>
</g>
</g>
</g>
</g>
<g id="gift2">
<g id="Group">
<g id="Group">
<g id="Vector">
<use xlink:href="#path4_fill" transform="translate(-24151 -18019)" fill="#FFFFFF"/>
</g>
<g id="Vector">
<use xlink:href="#path5_fill" transform="translate(-24145.8 -18013.2)" fill="#FFFFFF"/>
</g>
<g id="Vector">
<use xlink:href="#path6_fill" transform="translate(-24149.7 -18013.2)" fill="#FFFFFF"/>
</g>
<g id="Vector">
<use xlink:href="#path7_fill" transform="translate(-24142.6 -18013.2)" fill="#FFFFFF"/>
</g>
</g>
</g>
</g>
<g id="Shape">
<use xlink:href="#path8_fill" transform="translate(-24154 -18069)" fill="#BDBDBD"/>
</g>
<g id="Shape">
<use xlink:href="#path8_fill" transform="translate(-24130 -18069)" fill="#C62828"/>
</g>
</g>
</g>
<defs>
<path id="path0_fill" fill-rule="evenodd" d="M 6.59916 16C 5.38916 16 4.41016 16.9 4.41016 18C 4.41016 19.1 5.38916 20 6.59916 20C 7.80916 20 8.79916 19.1 8.79916 18C 8.79916 16.9 7.80916 16 6.59916 16L 6.59916 16ZM 0 0L 0 2L 2.2 2L 6.16 9.59L 4.675 12.04C 4.499 12.32 4.4 12.65 4.4 13C 4.4 14.1 5.39 15 6.6 15L 19.8 15L 19.8 13L 7.062 13C 6.908 13 6.787 12.89 6.787 12.75L 6.82 12.63L 7.81 11L 16.005 11C 16.83 11 17.556 10.59 17.93 9.97L 21.868 3.48C 21.956 3.34 22 3.17 22 3C 22 2.45 21.505 2 20.9 2L 4.631 2L 3.597 0L 0 0L 0 0ZM 17.5992 16C 16.3892 16 15.4102 16.9 15.4102 18C 15.4102 19.1 16.3892 20 17.5992 20C 18.8092 20 19.7992 19.1 19.7992 18C 19.7992 16.9 18.8092 16 17.5992 16L 17.5992 16Z"/>
<path id="path1_fill" fill-rule="evenodd" d="M 9 9C 11.4863 9 13.5 6.98625 13.5 4.5C 13.5 2.01375 11.4863 0 9 0C 6.51375 0 4.5 2.01375 4.5 4.5C 4.5 6.98625 6.51375 9 9 9L 9 9ZM 9 11.25C 5.99625 11.25 0 12.7575 0 15.75L 0 18L 18 18L 18 15.75C 18 12.7575 12.0038 11.25 9 11.25L 9 11.25Z"/>
<path id="path2_fill" fill-rule="evenodd" d="M 0 0L 24 0L 24 24L 0 24L 0 0L 0 0Z"/>
<path id="path3_fill" fill-rule="evenodd" d="M 8.41183 11.5721L 0 11.5721L 0 14.1435L 8.41183 14.1435L 8.41183 18.0007L 13.1997 12.8578L 8.41183 7.71484L 8.41183 11.5721L 8.41183 11.5721ZM 15.5887 10.2859L 15.5887 6.42868L 24.0005 6.42868L 24.0005 3.85721L 15.5887 3.85721L 15.5887 0L 10.8008 5.14294L 15.5887 10.2859L 15.5887 10.2859Z"/>
<path id="path4_fill" d="M 12.675 3.24409L 9.82735 3.24409C 10.3727 2.9503 10.725 2.48685 10.725 1.94996C 10.725 1.06728 9.71035 0 8.45 0C 7.57315 0 6.8809 1.01918 6.5 1.95971C 6.1191 1.01918 5.42685 0 4.55 0C 3.28965 0 2.275 1.06728 2.275 1.94996C 2.275 2.48685 2.6273 2.9503 3.17265 3.24409L 0.325 3.24409C 0.1456 3.24409 0 3.38969 0 3.56909L 0 5.19406L 13 5.19406L 13 3.56909C 13 3.38969 12.8544 3.24409 12.675 3.24409ZM 5.77915 3.14074C 5.4418 3.04519 5.02125 2.92495 4.55 2.92495C 3.66925 2.92495 2.925 2.4784 2.925 1.94996C 2.925 1.43842 3.6231 0.649988 4.55 0.649988C 5.32285 0.649988 6.12235 2.45891 6.16785 3.23759C 6.06905 3.22329 5.92735 3.18299 5.77915 3.14074ZM 8.45 2.92495C 7.97875 2.92495 7.5582 3.04519 7.22085 3.14074C 7.06875 3.18364 6.92315 3.22589 6.825 3.23889C 6.83345 2.5603 7.6557 0.649988 8.45 0.649988C 9.3769 0.649988 10.075 1.43842 10.075 1.94996C 10.075 2.4784 9.33075 2.92495 8.45 2.92495Z"/>
<path id="path5_fill" d="M 2.6 0L 0 0L 0 7.15572L 2.6 7.15572L 2.6 0Z"/>
<path id="path6_fill" d="M 0 6.83073C 0 7.01012 0.1456 7.15572 0.325 7.15572L 3.25 7.15572L 3.25 1.14057e-07L 0 1.14057e-07L 0 6.83073Z"/>
<path id="path7_fill" d="M 0 7.15572L 2.925 7.15572C 3.1044 7.15572 3.25 7.01012 3.25 6.83073L 3.25 1.14057e-07L 0 1.14057e-07L 0 7.15572Z"/>
<path id="path8_fill" fill-rule="evenodd" d="M 10 18L 8.55 16.7052C 3.4 12.1243 0 9.103 0 5.3951C 0 2.37384 2.42 0 5.5 0C 7.24 0 8.91 0.79455 10 2.05014C 11.09 0.79455 12.76 0 14.5 0C 17.58 0 20 2.37384 20 5.3951C 20 9.103 16.6 12.1243 11.45 16.715L 10 18Z"/>
</defs>
</svg>
