<svg width="72" height="312" viewBox="0 0 72 312" version="1.1" xmlns="http://www.w3.org/2000/svg" xmlns:xlink="http://www.w3.org/1999/xlink">
<title>Group 20</title>
<desc>Created using Figma</desc>
<g id="Canvas" transform="translate(24688 18144)">
<g id="Group 20">
<g id="Group 6">
<g id="ic_person_outline">
<g id="Icon 24px">
<g id="Shape">
<use xlink:href="#path0_fill" transform="translate(-24684 -17972)" fill="#BDBDBD"/>
</g>
</g>
</g>
<g id="ic_people_outline">
<g id="Icon 24px">
<g id="Shape">
<use xlink:href="#path1_fill" transform="translate(-24687 -17947)" fill="#BDBDBD"/>
</g>
</g>
</g>
<g id="ic_room">
<g id="Icon 24px">
<g id="Path">
<mask id="mask0_outline_ins">
<use xlink:href="#path2_fill" fill="white" transform="translate(-24683 -17926)"/>
</mask>
<g mask="url(#mask0_outline_ins)">
<use xlink:href="#path3_stroke_2x" transform="translate(-24683 -17926)" fill="#BDBDBD"/>
</g>
</g>
<g id="Path">
<use xlink:href="#path4_stroke" transform="translate(-24678.5 -17921.5)" fill="#BDBDBD"/>
</g>
</g>
</g>
<g id="ic_settings_applications">
<g id="Icon 24px">
<g id="Path">
<use xlink:href="#path5_stroke" transform="translate(-24678.3 -17894.3)" fill="#BDBDBD"/>
</g>
<g id="Path">
<use xlink:href="#path6_stroke" transform="translate(-24684 -17900)" fill="#BDBDBD"/>
</g>
</g>
</g>
<g id="ic_build">
<g id="Icon 24px">
<g id="Shape">
<use xlink:href="#path7_stroke" transform="matrix(-1 0 0 1 -24668 -17996)" fill="#BDBDBD"/>
</g>
</g>
</g>
<g id="ic_list">
<g id="Icon 24px">
<g id="Shape">
<use xlink:href="#path8_fill" transform="translate(-24685 -18041)" fill="#BDBDBD"/>
</g>
</g>
</g>
<g id="ic_list">
<g id="Icon 24px">
<g id="Vector">
<use xlink:href="#path9_stroke" transform="translate(-24683 -18020.5)" fill="#BDBDBD"/>
</g>
<g id="Vector 2.1">
<use xlink:href="#path10_stroke" transform="matrix(1 -2.44929e-16 2.44929e-16 1 -24680 -18014)" fill="#BDBDBD"/>
</g>
<g id="Vector 2.2">
<use xlink:href="#path10_stroke" transform="matrix(1 -2.44929e-16 2.44929e-16 1 -24680 -18011)" fill="#BDBDBD"/>
</g>
<g id="Vector 2.3">
<use xlink:href="#path10_stroke" transform="matrix(1 -2.44929e-16 2.44929e-16 1 -24680 -18008)" fill="#BDBDBD"/>
</g>
</g>
</g>
<g id="ic_list">
<g id="Icon 24px">
<g id="Vector">
<use xlink:href="#path11_stroke" transform="translate(-24684.3 -18067.5)" fill="#BDBDBD"/>
</g>
</g>
</g>
<g id="ic_notifications_none">
<g id="Icon 24px">
<g id="Shape">
<use xlink:href="#path12_fill" transform="translate(-24684 -18117.5)" fill="#BDBDBD"/>
</g>
</g>
</g>
<g id="ic_mail_outline">
<g id="Icon 24px">
<g id="Shape">
<use xlink:href="#path13_fill" transform="translate(-24686 -18092)" fill="#BDBDBD"/>
</g>
</g>
</g>
<g id="ic_power_settings_new">
<g id="Icon 24px">
<g id="Shape">
<use xlink:href="#path14_fill" transform="translate(-24685 -18141)" fill="#BDBDBD"/>
</g>
</g>
</g>
<g id="ic_mail_outline">
<g id="Icon 24px">
<g id="Shape">
<use xlink:href="#path15_fill" transform="translate(-24682 -17849)" fill="#BDBDBD"/>
</g>
</g>
</g>
<g id="ic_local_phone">
<g id="Icon 24px">
<g id="Shape">
<mask id="mask1_outline_out">
<rect id="mask1_outline_inv" fill="white" x="-1" y="-1" width="10" height="10" transform="translate(-24680 -17872)"/>
<use xlink:href="#path16_fill" fill="black" transform="translate(-24680 -17872)"/>
</mask>
<g mask="url(#mask1_outline_out)">
<use xlink:href="#path17_stroke_2x" transform="translate(-24680 -17872)" fill="#BDBDBD"/>
</g>
</g>
</g>
</g>
</g>
<g id="Group 6.1">
<g id="ic_person_outline">
<g id="Icon 24px">
<g id="Shape">
<use xlink:href="#path0_fill" transform="translate(-24660 -17972)" fill="#4F4F4F"/>
</g>
</g>
</g>
<g id="ic_people_outline">
<g id="Icon 24px">
<g id="Shape">
<use xlink:href="#path1_fill" transform="translate(-24663 -17947)" fill="#4F4F4F"/>
</g>
</g>
</g>
<g id="ic_room">
<g id="Icon 24px">
<g id="Path">
<mask id="mask2_outline_ins">
<use xlink:href="#path2_fill" fill="white" transform="translate(-24659 -17926)"/>
</mask>
<g mask="url(#mask2_outline_ins)">
<use xlink:href="#path3_stroke_2x" transform="translate(-24659 -17926)" fill="#4F4F4F"/>
</g>
</g>
<g id="Path">
<use xlink:href="#path4_stroke" transform="translate(-24654.5 -17921.5)" fill="#4F4F4F"/>
</g>
</g>
</g>
<g id="ic_settings_applications">
<g id="Icon 24px">
<g id="Path">
<use xlink:href="#path5_stroke" transform="translate(-24654.3 -17894.3)" fill="#4F4F4F"/>
</g>
<g id="Path">
<use xlink:href="#path6_stroke" transform="translate(-24660 -17900)" fill="#4F4F4F"/>
</g>
</g>
</g>
<g id="ic_build">
<g id="Icon 24px">
<g id="Shape">
<use xlink:href="#path7_stroke" transform="matrix(-1 0 0 1 -24644 -17996)" fill="#4F4F4F"/>
</g>
</g>
</g>
<g id="ic_list">
<g id="Icon 24px">
<g id="Shape">
<use xlink:href="#path8_fill" transform="translate(-24661 -18041)" fill="#4F4F4F"/>
</g>
</g>
</g>
<g id="ic_list">
<g id="Icon 24px">
<g id="Vector">
<use xlink:href="#path9_stroke" transform="translate(-24659 -18020.5)" fill="#4F4F4F"/>
</g>
<g id="Vector 2.1">
<use xlink:href="#path10_stroke" transform="matrix(1 -2.44929e-16 2.44929e-16 1 -24656 -18014)" fill="#4F4F4F"/>
</g>
<g id="Vector 2.2">
<use xlink:href="#path10_stroke" transform="matrix(1 -2.44929e-16 2.44929e-16 1 -24656 -18011)" fill="#4F4F4F"/>
</g>
<g id="Vector 2.3">
<use xlink:href="#path10_stroke" transform="matrix(1 -2.44929e-16 2.44929e-16 1 -24656 -18008)" fill="#4F4F4F"/>
</g>
</g>
</g>
<g id="ic_list">
<g id="Icon 24px">
<g id="Vector">
<use xlink:href="#path11_stroke" transform="translate(-24660.3 -18067.5)" fill="#4F4F4F"/>
</g>
</g>
</g>
<g id="ic_notifications_none">
<g id="Icon 24px">
<g id="Shape">
<use xlink:href="#path12_fill" transform="translate(-24660 -18117.5)" fill="#4F4F4F"/>
</g>
</g>
</g>
<g id="ic_mail_outline">
<g id="Icon 24px">
<g id="Shape">
<use xlink:href="#path13_fill" transform="translate(-24662 -18092)" fill="#4F4F4F"/>
</g>
</g>
</g>
<g id="ic_power_settings_new">
<g id="Icon 24px">
<g id="Shape">
<use xlink:href="#path14_fill" transform="translate(-24661 -18141)" fill="#4F4F4F"/>
</g>
</g>
</g>
<g id="ic_mail_outline">
<g id="Icon 24px">
<g id="Shape">
<use xlink:href="#path15_fill" transform="translate(-24658 -17849)" fill="#4F4F4F"/>
</g>
</g>
</g>
<g id="ic_local_phone">
<g id="Icon 24px">
<g id="Shape">
<mask id="mask3_outline_out">
<rect id="mask3_outline_inv" fill="white" x="-1" y="-1" width="10" height="10" transform="translate(-24656 -17872)"/>
<use xlink:href="#path16_fill" fill="black" transform="translate(-24656 -17872)"/>
</mask>
<g mask="url(#mask3_outline_out)">
<use xlink:href="#path17_stroke_2x" transform="translate(-24656 -17872)" fill="#4F4F4F"/>
</g>
</g>
</g>
</g>
</g>
<g id="Group 6.2">
<g id="ic_person_outline">
<g id="Icon 24px">
<g id="Shape">
<use xlink:href="#path0_fill" transform="translate(-24636 -17972)" fill="#C62828"/>
</g>
</g>
</g>
<g id="ic_people_outline">
<g id="Icon 24px">
<g id="Shape">
<use xlink:href="#path1_fill" transform="translate(-24639 -17947)" fill="#C62828"/>
</g>
</g>
</g>
<g id="ic_room">
<g id="Icon 24px">
<g id="Path">
<mask id="mask4_outline_ins">
<use xlink:href="#path2_fill" fill="white" transform="translate(-24635 -17926)"/>
</mask>
<g mask="url(#mask4_outline_ins)">
<use xlink:href="#path3_stroke_2x" transform="translate(-24635 -17926)" fill="#C62828"/>
</g>
</g>
<g id="Path">
<use xlink:href="#path4_stroke" transform="translate(-24630.5 -17921.5)" fill="#C62828"/>
</g>
</g>
</g>
<g id="ic_settings_applications">
<g id="Icon 24px">
<g id="Path">
<use xlink:href="#path5_stroke" transform="translate(-24630.3 -17894.3)" fill="#C62828"/>
</g>
<g id="Path">
<use xlink:href="#path6_stroke" transform="translate(-24636 -17900)" fill="#C62828"/>
</g>
</g>
</g>
<g id="ic_build">
<g id="Icon 24px">
<g id="Shape">
<use xlink:href="#path7_stroke" transform="matrix(-1 0 0 1 -24620 -17996)" fill="#C62828"/>
</g>
</g>
</g>
<g id="ic_list">
<g id="Icon 24px">
<g id="Shape">
<use xlink:href="#path8_fill" transform="translate(-24637 -18041)" fill="#C62828"/>
</g>
</g>
</g>
<g id="ic_list">
<g id="Icon 24px">
<g id="Vector">
<use xlink:href="#path9_stroke" transform="translate(-24635 -18020.5)" fill="#C62828"/>
</g>
<g id="Vector 2.1">
<use xlink:href="#path10_stroke" transform="matrix(1 -2.44929e-16 2.44929e-16 1 -24632 -18014)" fill="#C62828"/>
</g>
<g id="Vector 2.2">
<use xlink:href="#path10_stroke" transform="matrix(1 -2.44929e-16 2.44929e-16 1 -24632 -18011)" fill="#C62828"/>
</g>
<g id="Vector 2.3">
<use xlink:href="#path10_stroke" transform="matrix(1 -2.44929e-16 2.44929e-16 1 -24632 -18008)" fill="#C62828"/>
</g>
</g>
</g>
<g id="ic_list">
<g id="Icon 24px">
<g id="Vector">
<use xlink:href="#path11_stroke" transform="translate(-24636.3 -18067.5)" fill="#C62828"/>
</g>
</g>
</g>
<g id="ic_notifications_none">
<g id="Icon 24px">
<g id="Shape">
<use xlink:href="#path12_fill" transform="translate(-24636 -18117.5)" fill="#C62828"/>
</g>
</g>
</g>
<g id="ic_mail_outline">
<g id="Icon 24px">
<g id="Shape">
<use xlink:href="#path13_fill" transform="translate(-24638 -18092)" fill="#C62828"/>
</g>
</g>
</g>
<g id="ic_power_settings_new">
<g id="Icon 24px">
<g id="Shape">
<use xlink:href="#path14_fill" transform="translate(-24637 -18141)" fill="#C62828"/>
</g>
</g>
</g>
<g id="ic_mail_outline">
<g id="Icon 24px">
<g id="Shape">
<use xlink:href="#path15_fill" transform="translate(-24634 -17849)" fill="#C62828"/>
</g>
</g>
</g>
<g id="ic_local_phone">
<g id="Icon 24px">
<g id="Shape">
<mask id="mask5_outline_out">
<rect id="mask5_outline_inv" fill="white" x="-1" y="-1" width="10" height="10" transform="translate(-24632 -17872)"/>
<use xlink:href="#path16_fill" fill="black" transform="translate(-24632 -17872)"/>
</mask>
<g mask="url(#mask5_outline_out)">
<use xlink:href="#path17_stroke_2x" transform="translate(-24632 -17872)" fill="#C62828"/>
</g>
</g>
</g>
</g>
</g>
</g>
</g>
<defs>
<path id="path0_fill" fill-rule="evenodd" d="M 8.00039 1.90039C 9.16039 1.90039 10.1004 2.84039 10.1004 4.00039C 10.1004 5.16039 9.16039 6.10039 8.00039 6.10039C 6.84039 6.10039 5.90039 5.16039 5.90039 4.00039C 5.90039 2.84039 6.84039 1.90039 8.00039 1.90039ZM 8.00039 10.9004C 10.9704 10.9004 14.1004 12.3604 14.1004 13.0004L 14.1004 14.1004L 1.90039 14.1004L 1.90039 13.0004C 1.90039 12.3604 5.03039 10.9004 8.00039 10.9004ZM 8 0C 5.79 0 4 1.79 4 4C 4 6.21 5.79 8 8 8C 10.21 8 12 6.21 12 4C 12 1.79 10.21 0 8 0ZM 8 9C 5.33 9 0 10.34 0 13L 0 16L 16 16L 16 13C 16 10.34 10.67 9 8 9Z"/>
<path id="path1_fill" fill-rule="evenodd" d="M 15.5 8C 14.3 8 12.43 8.34001 11 9.00003C 9.57 8.33001 7.7 8 6.5 8C 4.33 8 0 9.08003 0 11.2501L 0 14.0002L 22 14.0002L 22 11.2501C 22 9.08003 17.67 8 15.5 8ZM 11.5 12.5001L 1.5 12.5001L 1.5 11.2501C 1.5 10.71 4.06 9.5 6.5 9.5C 8.94 9.5 11.5 10.71 11.5 11.2501L 11.5 12.5001ZM 20.5005 12.5001L 13.0005 12.5001L 13.0005 11.2501C 13.0005 10.79 12.8005 10.39 12.4805 10.03C 13.3605 9.73001 14.4405 9.5 15.5005 9.5C 17.9405 9.5 20.5005 10.71 20.5005 11.2501L 20.5005 12.5001ZM 6.5 7.00022C 8.43 7.00022 10 5.43017 10 3.50011C 10 1.57005 8.43 0 6.5 0C 4.57 0 3 1.57005 3 3.50011C 3 5.43017 4.57 7.00022 6.5 7.00022ZM 6.5 1.5C 7.6 1.5 8.5 2.40003 8.5 3.50006C 8.5 4.6001 7.6 5.50013 6.5 5.50013C 5.4 5.50013 4.5 4.6001 4.5 3.50006C 4.5 2.40003 5.4 1.5 6.5 1.5ZM 15.5 7.00022C 17.43 7.00022 19 5.43017 19 3.50011C 19 1.57005 17.43 0 15.5 0C 13.57 0 12 1.57005 12 3.50011C 12 5.43017 13.57 7.00022 15.5 7.00022ZM 15.5 1.5C 16.6 1.5 17.5 2.40003 17.5 3.50006C 17.5 4.6001 16.6 5.50013 15.5 5.50013C 14.4 5.50013 13.5 4.6001 13.5 3.50006C 13.5 2.40003 14.4 1.5 15.5 1.5Z"/>
<path id="path2_fill" fill-rule="evenodd" d="M 7 0C 3.13 0 0 3.13 0 7C 0 12.25 7 20 7 20C 7 20 14 12.25 14 7C 14 3.13 10.87 0 7 0Z"/>
<path id="path3_stroke_2x" d="M 7 20L 5.81264 21.0725L 7 22.387L 8.18736 21.0725L 7 20ZM 7 -1.6C 2.24634 -1.6 -1.6 2.24634 -1.6 7L 1.6 7C 1.6 4.01366 4.01366 1.6 7 1.6L 7 -1.6ZM -1.6 7C -1.6 8.63624 -1.06374 10.3437 -0.366415 11.9002C 0.340299 13.4777 1.26845 15.022 2.17366 16.3636C 3.08194 17.7098 3.98705 18.8813 4.66392 19.7153C 5.00306 20.1332 5.28666 20.4685 5.48704 20.7011C 5.58728 20.8174 5.66681 20.9082 5.7222 20.9709C 5.7499 21.0023 5.77157 21.0266 5.78678 21.0436C 5.79439 21.0521 5.80038 21.0588 5.80471 21.0637C 5.80687 21.0661 5.80862 21.068 5.80994 21.0695C 5.8106 21.0702 5.81116 21.0708 5.81161 21.0713C 5.81183 21.0716 5.81209 21.0719 5.8122 21.072C 5.81243 21.0722 5.81264 21.0725 7 20C 8.18736 18.9275 8.18751 18.9277 8.18764 18.9278C 8.18764 18.9279 8.18774 18.928 8.18775 18.928C 8.18778 18.928 8.18769 18.9279 8.18751 18.9277C 8.18714 18.9273 8.18635 18.9264 8.18515 18.9251C 8.18274 18.9224 8.1787 18.9179 8.17306 18.9116C 8.16178 18.899 8.14415 18.8792 8.12057 18.8525C 8.07342 18.7991 8.00257 18.7182 7.91139 18.6124C 7.72896 18.4007 7.46569 18.0895 7.14858 17.6988C 6.51295 16.9156 5.66806 15.8214 4.82634 14.5739C 3.98155 13.3218 3.1597 11.9441 2.55392 10.5919C 1.93874 9.21877 1.6 7.98876 1.6 7L -1.6 7ZM 7 20C 8.18736 21.0725 8.18757 21.0722 8.1878 21.072C 8.18791 21.0719 8.18817 21.0716 8.18839 21.0713C 8.18884 21.0708 8.1894 21.0702 8.19006 21.0695C 8.19138 21.068 8.19313 21.0661 8.19529 21.0637C 8.19962 21.0588 8.20561 21.0521 8.21322 21.0436C 8.22843 21.0266 8.2501 21.0023 8.2778 20.9709C 8.33319 20.9082 8.41272 20.8174 8.51295 20.7011C 8.71334 20.4685 8.99694 20.1332 9.33608 19.7153C 10.0129 18.8813 10.9181 17.7098 11.8263 16.3636C 12.7316 15.022 13.6597 13.4777 14.3664 11.9002C 15.0637 10.3437 15.6 8.63624 15.6 7L 12.4 7C 12.4 7.98876 12.0613 9.21877 11.4461 10.5919C 10.8403 11.9441 10.0184 13.3218 9.17366 14.5739C 8.33194 15.8214 7.48705 16.9156 6.85142 17.6988C 6.53431 18.0895 6.27104 18.4007 6.08861 18.6124C 5.99743 18.7182 5.92658 18.7991 5.87943 18.8525C 5.85585 18.8792 5.83822 18.899 5.82694 18.9116C 5.8213 18.9179 5.81726 18.9224 5.81485 18.9251C 5.81365 18.9264 5.81286 18.9273 5.81249 18.9277C 5.81231 18.9279 5.81222 18.928 5.81225 18.928C 5.81226 18.928 5.81236 18.9279 5.81236 18.9278C 5.81249 18.9277 5.81264 18.9275 7 20ZM 15.6 7C 15.6 2.24634 11.7537 -1.6 7 -1.6L 7 1.6C 9.98634 1.6 12.4 4.01366 12.4 7L 15.6 7Z"/>
<path id="path4_stroke" d="M 2.5 4.2C 1.56183 4.2 0.8 3.43817 0.8 2.5L -0.8 2.5C -0.8 4.32183 0.678172 5.8 2.5 5.8L 2.5 4.2ZM 0.8 2.5C 0.8 1.56183 1.56183 0.8 2.5 0.8L 2.5 -0.8C 0.678172 -0.8 -0.8 0.678172 -0.8 2.5L 0.8 2.5ZM 2.5 0.8C 3.43817 0.8 4.2 1.56183 4.2 2.5L 5.8 2.5C 5.8 0.678172 4.32183 -0.8 2.5 -0.8L 2.5 0.8ZM 4.2 2.5C 4.2 3.43817 3.43817 4.2 2.5 4.2L 2.5 5.8C 4.32183 5.8 5.8 4.32183 5.8 2.5L 4.2 2.5Z"/>
<path id="path5_stroke" d="M 2.34999 -0.8C 0.636727 -0.8 -0.8 0.565975 -0.8 2.28571L 0.8 2.28571C 0.8 1.49117 1.47826 0.8 2.34999 0.8L 2.34999 -0.8ZM -0.8 2.28571C -0.8 4.00545 0.636727 5.37143 2.34999 5.37143L 2.34999 3.77143C 1.47826 3.77143 0.8 3.08026 0.8 2.28571L -0.8 2.28571ZM 2.34999 5.37143C 4.06325 5.37143 5.49998 4.00545 5.49998 2.28571L 3.89998 2.28571C 3.89998 3.08026 3.22172 3.77143 2.34999 3.77143L 2.34999 5.37143ZM 5.49998 2.28571C 5.49998 0.565975 4.06325 -0.8 2.34999 -0.8L 2.34999 0.8C 3.22172 0.8 3.89998 1.49117 3.89998 2.28571L 5.49998 2.28571Z"/>
<path id="path6_stroke" d="M 14.11 8.77714L 13.3177 8.66607L 13.2527 9.12959L 13.625 9.41335L 14.11 8.77714ZM 15.849 10.1029L 16.3573 9.48516L 16.3458 9.47568L 16.334 9.46665L 15.849 10.1029ZM 15.943 10.6171L 15.262 10.1971L 15.2554 10.2082L 15.943 10.6171ZM 14.298 13.3829L 14.9789 13.8029L 14.9855 13.7918L 14.298 13.3829ZM 13.7927 13.5543L 13.5012 14.2993L 13.5099 14.3027L 13.5186 14.3059L 13.7927 13.5543ZM 11.7482 12.7543L 12.0397 12.0093L 11.6227 11.8461L 11.2656 12.1163L 11.7482 12.7543ZM 10.3617 13.5429L 10.0539 12.8044L 9.63489 12.9791L 9.56996 13.4285L 10.3617 13.5429ZM 10.0562 15.6571L 10.8434 15.8L 10.846 15.7858L 10.848 15.7715L 10.0562 15.6571ZM 5.94376 15.6686L 5.15198 15.783L 5.15467 15.8016L 5.15822 15.82L 5.94376 15.6686ZM 5.63826 13.5543L 6.43004 13.4399L 6.36448 12.9862L 5.93994 12.8133L 5.63826 13.5543ZM 4.25177 12.7657L 4.73442 12.1277L 4.37728 11.8575L 3.96025 12.0207L 4.25177 12.7657ZM 2.20727 13.5657L 2.4814 14.3173L 2.49013 14.3141L 2.49879 14.3107L 2.20727 13.5657ZM 1.70203 13.3943L 1.01436 13.8033L 1.02115 13.8143L 1.70203 13.3943ZM 0.0570325 10.6286L 0.744695 10.2196L 0.737907 10.2086L 0.0570325 10.6286ZM 0.151032 10.1143L -0.33398 9.47808L -0.345834 9.48711L -0.357343 9.49658L 0.151032 10.1143ZM 1.89003 8.78857L 2.37504 9.42478L 2.74471 9.14296L 2.68293 8.68224L 1.89003 8.78857ZM 1.89003 7.22286L 2.68228 7.33393L 2.74726 6.87041L 2.37504 6.58665L 1.89003 7.22286ZM 0.151032 5.89714L -0.357343 6.51484L -0.345834 6.52432L -0.33398 6.53335L 0.151032 5.89714ZM 0.0570325 5.38286L 0.737996 5.80292L 0.744605 5.79181L 0.0570325 5.38286ZM 1.70203 2.61714L 1.02106 2.19708L 1.01445 2.20819L 1.70203 2.61714ZM 2.20727 2.44571L 2.49879 1.70072L 2.49013 1.69733L 2.4814 1.69415L 2.20727 2.44571ZM 4.25177 3.24571L 3.96025 3.99071L 4.37728 4.15389L 4.73442 3.88372L 4.25177 3.24571ZM 5.63826 2.45714L 5.94607 3.19556L 6.36511 3.02088L 6.43004 2.57155L 5.63826 2.45714ZM 5.94376 0.342857L 5.15661 0.200042L 5.15404 0.214205L 5.15198 0.228451L 5.94376 0.342857ZM 10.0562 0.331429L 10.848 0.217022L 10.8453 0.198437L 10.8418 0.179998L 10.0562 0.331429ZM 10.3617 2.44571L 9.56996 2.56012L 9.63552 3.0138L 10.0601 3.18665L 10.3617 2.44571ZM 11.7482 3.23429L 11.2656 3.87229L 11.6227 4.14246L 12.0397 3.97928L 11.7482 3.23429ZM 13.7927 2.43429L 13.5186 1.68272L 13.5099 1.6859L 13.5012 1.68929L 13.7927 2.43429ZM 14.298 2.60571L 14.9856 2.19671L 14.9788 2.1857L 14.298 2.60571ZM 15.943 5.37143L 15.2553 5.78044L 15.2621 5.79144L 15.943 5.37143ZM 15.849 5.88571L 16.334 6.52192L 16.3458 6.51289L 16.3573 6.50342L 15.849 5.88571ZM 14.11 7.21143L 13.625 6.57522L 13.2553 6.85704L 13.3171 7.31776L 14.11 7.21143ZM 13.3687 8C 13.3687 8.21644 13.3493 8.44096 13.3177 8.66607L 14.9022 8.88822C 14.9412 8.61046 14.9687 8.30928 14.9687 8L 13.3687 8ZM 13.625 9.41335L 15.364 10.7391L 16.334 9.46665L 14.595 8.14093L 13.625 9.41335ZM 15.3406 10.7206C 15.213 10.6156 15.139 10.3966 15.2621 10.1971L 16.6238 11.0372C 16.9584 10.4948 16.7904 9.84156 16.3573 9.48516L 15.3406 10.7206ZM 15.2554 10.2082L 13.6104 12.9739L 14.9855 13.7918L 16.6305 11.0261L 15.2554 10.2082ZM 13.6171 12.9628C 13.7186 12.7983 13.9126 12.7464 14.0669 12.8027L 13.5186 14.3059C 14.0489 14.4993 14.6658 14.3103 14.9788 13.8029L 13.6171 12.9628ZM 14.0842 12.8093L 12.0397 12.0093L 11.4567 13.4993L 13.5012 14.2993L 14.0842 12.8093ZM 11.2656 12.1163C 10.9014 12.3918 10.4912 12.6222 10.0539 12.8044L 10.6695 14.2813C 11.2192 14.0521 11.7491 13.7568 12.2309 13.3923L 11.2656 12.1163ZM 9.56996 13.4285L 9.26446 15.5427L 10.848 15.7715L 11.1535 13.6573L 9.56996 13.4285ZM 9.26909 15.5143C 9.30265 15.3294 9.45671 15.2 9.64499 15.2L 9.64499 16.8C 10.2328 16.8 10.7393 16.3735 10.8434 15.8L 9.26909 15.5143ZM 9.64499 15.2L 6.35501 15.2L 6.35501 16.8L 9.64499 16.8L 9.64499 15.2ZM 6.35501 15.2C 6.45442 15.2 6.53633 15.2363 6.59386 15.2833C 6.6499 15.3291 6.70784 15.4058 6.7293 15.5171L 5.15822 15.82C 5.26739 16.3863 5.77896 16.8 6.35501 16.8L 6.35501 15.2ZM 6.73554 15.5542L 6.43004 13.4399L 4.84648 13.6687L 5.15198 15.783L 6.73554 15.5542ZM 5.93994 12.8133C 5.50012 12.6343 5.10259 12.4062 4.73442 12.1277L 3.76911 13.4037C 4.24694 13.7652 4.76591 14.0629 5.33658 14.2952L 5.93994 12.8133ZM 3.96025 12.0207L 1.91576 12.8207L 2.49879 14.3107L 4.54328 13.5107L 3.96025 12.0207ZM 1.93314 12.8141C 2.08745 12.7579 2.28139 12.8097 2.3829 12.9743L 1.02115 13.8143C 1.33416 14.3217 1.9511 14.5107 2.4814 14.3173L 1.93314 12.8141ZM 2.3896 12.9853L 0.744605 10.2196L -0.63054 11.0375L 1.01445 13.8032L 2.3896 12.9853ZM 0.737907 10.2086C 0.860964 10.408 0.786952 10.627 0.659407 10.732L -0.357343 9.49658C -0.790387 9.85298 -0.958398 10.5062 -0.623842 11.0486L 0.737907 10.2086ZM 0.636044 10.7505L 2.37504 9.42478L 1.40501 8.15236L -0.33398 9.47808L 0.636044 10.7505ZM 2.68293 8.68224C 2.65064 8.4415 2.63128 8.21614 2.63128 8L 1.03128 8C 1.03128 8.30958 1.05891 8.60993 1.09712 8.8949L 2.68293 8.68224ZM 2.63128 8C 2.63128 7.78356 2.65072 7.55904 2.68228 7.33393L 1.09777 7.11178C 1.05883 7.38954 1.03128 7.69072 1.03128 8L 2.63128 8ZM 2.37504 6.58665L 0.636044 5.26093L -0.33398 6.53335L 1.40501 7.85907L 2.37504 6.58665ZM 0.659407 5.27944C 0.786952 5.38441 0.860964 5.60338 0.737907 5.80287L -0.623842 4.96284C -0.958398 5.50519 -0.790387 6.15844 -0.357343 6.51484L 0.659407 5.27944ZM 0.744605 5.79181L 2.3896 3.0261L 1.01445 2.20819L -0.63054 4.9739L 0.744605 5.79181ZM 2.3829 3.03716C 2.28139 3.20171 2.08745 3.25356 1.93314 3.19728L 2.4814 1.69415C 1.9511 1.50072 1.33416 1.68972 1.02115 2.19713L 2.3829 3.03716ZM 1.91576 3.19071L 3.96025 3.99071L 4.54328 2.50072L 2.49879 1.70072L 1.91576 3.19071ZM 4.73442 3.88372C 5.09859 3.60822 5.50877 3.37784 5.94607 3.19556L 5.33045 1.71873C 4.78075 1.94787 4.25094 2.24321 3.76911 2.60771L 4.73442 3.88372ZM 6.43004 2.57155L 6.73554 0.457263L 5.15198 0.228451L 4.84648 2.34274L 6.43004 2.57155ZM 6.73091 0.485672C 6.69735 0.670638 6.54329 0.8 6.35501 0.8L 6.35501 -0.8C 5.76722 -0.8 5.26067 -0.373496 5.15661 0.200042L 6.73091 0.485672ZM 6.35501 0.8L 9.64499 0.8L 9.64499 -0.8L 6.35501 -0.8L 6.35501 0.8ZM 9.64499 0.8C 9.54558 0.8 9.46367 0.763659 9.40614 0.71666C 9.3501 0.670874 9.29216 0.594181 9.2707 0.482859L 10.8418 0.179998C 10.7326 -0.386332 10.221 -0.8 9.64499 -0.8L 9.64499 0.8ZM 9.26446 0.445835L 9.56996 2.56012L 11.1535 2.33131L 10.848 0.217022L 9.26446 0.445835ZM 10.0601 3.18665C 10.4999 3.36573 10.8974 3.59376 11.2656 3.87229L 12.2309 2.59628C 11.7531 2.23481 11.2341 1.93713 10.6634 1.70478L 10.0601 3.18665ZM 12.0397 3.97928L 14.0842 3.17928L 13.5012 1.68929L 11.4567 2.48929L 12.0397 3.97928ZM 14.0669 3.18585C 13.9126 3.24213 13.7186 3.19028 13.6171 3.02573L 14.9788 2.1857C 14.6658 1.67829 14.0489 1.48929 13.5186 1.68272L 14.0669 3.18585ZM 13.6104 3.01467L 15.2554 5.78038L 16.6305 4.96247L 14.9855 2.19676L 13.6104 3.01467ZM 15.2621 5.79144C 15.139 5.59196 15.213 5.37298 15.3406 5.26801L 16.3573 6.50342C 16.7904 6.14702 16.9584 5.49376 16.6238 4.95142L 15.2621 5.79144ZM 15.364 5.2495L 13.625 6.57522L 14.595 7.84764L 16.334 6.52192L 15.364 5.2495ZM 13.3171 7.31776C 13.3494 7.5585 13.3687 7.78386 13.3687 8L 14.9687 8C 14.9687 7.69042 14.9411 7.39007 14.9029 7.1051L 13.3171 7.31776Z"/>
<path id="path7_stroke" d="M 15.7905 13.0776L 15.2231 13.6416L 15.2632 13.682L 15.3086 13.7162L 15.7905 13.0776ZM 9.18217 6.42929L 8.43658 6.1393L 8.24797 6.62423L 8.61478 6.99327L 9.18217 6.42929ZM 8.09289 1.38823L 8.66028 0.82426L 8.66028 0.82426L 8.09289 1.38823ZM 2.71911 0.438469L 2.38412 -0.288017C 2.14693 -0.178647 1.97807 0.0396226 1.93178 0.296676C 1.88548 0.55373 1.96759 0.817197 2.15172 1.00244L 2.71911 0.438469ZM 5.84171 3.58L 6.4091 4.14397C 6.71925 3.83195 6.71925 3.32805 6.4091 3.01603L 5.84171 3.58ZM 3.66315 5.77176L 3.10228 6.34222C 3.41612 6.65079 3.92027 6.64789 4.23055 6.33574L 3.66315 5.77176ZM 0.467935 2.63023L 1.02881 2.05978C 0.846047 1.88009 0.588256 1.79884 0.335493 1.84127C 0.0827294 1.8837 -0.134401 2.04467 -0.248468 2.27419L 0.467935 2.63023ZM 1.41198 8.03659L 1.97937 7.47261L 1.41198 8.03659ZM 6.42266 9.13247L 6.99005 8.5685L 6.61916 8.19535L 6.12961 8.38808L 6.42266 9.13247ZM 13.031 15.7808L 13.5983 15.2169L 13.031 15.7808ZM 14.0476 15.7808L 13.4802 15.2169L 14.0476 15.7808ZM 15.7178 14.1005L 15.2162 13.4773L 15.1817 13.5051L 15.1505 13.5365L 15.7178 14.1005ZM 16.3579 12.5137L 9.74956 5.86532L 8.61478 6.99327L 15.2231 13.6416L 16.3579 12.5137ZM 9.92776 6.71929C 10.6953 4.7459 10.2644 2.43813 8.66028 0.82426L 7.5255 1.95221C 8.68086 3.11457 8.97617 4.75198 8.43658 6.1393L 9.92776 6.71929ZM 8.66028 0.82426C 6.95729 -0.889055 4.4139 -1.22397 2.38412 -0.288017L 3.0541 1.16495C 4.51002 0.493615 6.32374 0.743169 7.5255 1.95221L 8.66028 0.82426ZM 2.15172 1.00244L 5.27432 4.14397L 6.4091 3.01603L 3.2865 -0.125505L 2.15172 1.00244ZM 5.27432 3.01603L 3.09576 5.20779L 4.23055 6.33574L 6.4091 4.14397L 5.27432 3.01603ZM 4.22403 5.20131L 1.02881 2.05978L -0.0929377 3.20069L 3.10228 6.34222L 4.22403 5.20131ZM -0.248468 2.27419C -1.27811 4.34596 -0.840288 6.90548 0.844585 8.60056L 1.97937 7.47261C 0.759496 6.24535 0.471136 4.42133 1.18434 2.98628L -0.248468 2.27419ZM 0.844585 8.60056C 2.44952 10.2152 4.74846 10.6513 6.71571 9.87686L 6.12961 8.38808C 4.7564 8.92868 3.13394 8.63419 1.97937 7.47261L 0.844585 8.60056ZM 5.85527 9.69644L 12.4636 16.3448L 13.5983 15.2169L 6.99005 8.5685L 5.85527 9.69644ZM 12.4636 16.3448C 13.0668 16.9517 14.0117 16.9517 14.615 16.3448L 13.4802 15.2169C 13.4786 15.2185 13.483 15.2136 13.495 15.2086C 13.5068 15.2036 13.5221 15.2 13.5393 15.2C 13.5564 15.2 13.5717 15.2036 13.5835 15.2086C 13.5955 15.2136 13.6 15.2185 13.5983 15.2169L 12.4636 16.3448ZM 14.615 16.3448L 16.2852 14.6644L 15.1505 13.5365L 13.4802 15.2169L 14.615 16.3448ZM 16.2194 14.7237C 16.9013 14.1749 17.0637 13.0362 16.2723 12.439L 15.3086 13.7162C 15.2066 13.6392 15.199 13.5472 15.2001 13.5238C 15.2009 13.5078 15.2047 13.4963 15.2086 13.4886C 15.213 13.4799 15.2172 13.4765 15.2162 13.4773L 16.2194 14.7237Z"/>
<path id="path8_fill" fill-rule="evenodd" d="M 0 6L 2 6L 2 4L 0 4L 0 6ZM 0 10L 2 10L 2 8L 0 8L 0 10ZM 0 2L 2 2L 2 0L 0 0L 0 2ZM 4 6L 18 6L 18 4L 4 4L 4 6ZM 4 10L 18 10L 18 8L 4 8L 4 10ZM 4 0L 4 2L 18 2L 18 0L 4 0Z"/>
<path id="path9_stroke" d="M 0 0L 0 -0.8C -0.441828 -0.8 -0.8 -0.441828 -0.8 1.77636e-16L 0 0ZM 14 16.4996L 14 17.2996C 14.4418 17.2996 14.8 16.9414 14.8 16.4996L 14 16.4996ZM 0 16.4996L -0.8 16.4996C -0.8 16.9414 -0.441828 17.2996 1.77636e-16 17.2996L 0 16.4996ZM 9 0L 9.49972 -0.62472C 9.35788 -0.738185 9.18164 -0.8 9 -0.8L 9 0ZM 9 3.99959L 8.2 3.99959C 8.2 4.44141 8.55817 4.79959 9 4.79959L 9 3.99959ZM 14 3.99959L 14.8 3.99959C 14.8 3.75655 14.6895 3.52668 14.4997 3.37487L 14 3.99959ZM 14 15.6996L 0 15.6996L 0 17.2996L 14 17.2996L 14 15.6996ZM 0.8 16.4996L 0.8 0L -0.8 0L -0.8 16.4996L 0.8 16.4996ZM 0 0.8L 9 0.8L 9 -0.8L 0 -0.8L 0 0.8ZM 8.2 0L 8.2 3.99959L 9.8 3.99959L 9.8 0L 8.2 0ZM 13.2 3.99959L 13.2 16.4996L 14.8 16.4996L 14.8 3.99959L 13.2 3.99959ZM 9 4.79959L 14 4.79959L 14 3.19959L 9 3.19959L 9 4.79959ZM 8.50028 0.62472L 13.5003 4.62431L 14.4997 3.37487L 9.49972 -0.62472L 8.50028 0.62472Z"/>
<path id="path10_stroke" d="M 0 0.7L 8 0.7L 8 -0.7L 0 -0.7L 0 0.7Z"/>
<path id="path11_stroke" d="M 8.32324 0L 8.79102 -0.648987C 8.51166 -0.850346 8.13479 -0.850337 7.85543 -0.648964L 8.32324 0ZM 0 5.99986L -0.467809 5.35089C -0.749405 5.55388 -0.867959 5.91531 -0.761304 6.24565C -0.65465 6.57599 -0.347127 6.79986 5.49316e-06 6.79986L 0 5.99986ZM 16.6469 5.9995L 16.6469 6.7995C 16.994 6.7995 17.3015 6.57562 17.4082 6.24527C 17.5148 5.91492 17.3962 5.55349 17.1146 5.35051L 16.6469 5.9995ZM 2.5 5.99984L 3.3 5.99984C 3.3 5.78766 3.21571 5.58418 3.06568 5.43415C 2.91565 5.28412 2.71217 5.19984 2.49999 5.19984L 2.5 5.99984ZM 2.5 14.9998L 1.7 14.9998C 1.7 15.212 1.78429 15.4155 1.93433 15.5655C 2.08437 15.7155 2.28786 15.7998 2.50004 15.7998L 2.5 14.9998ZM 6.0639 14.9996L 6.06394 15.7996C 6.50575 15.7996 6.8639 15.4414 6.8639 14.9996L 6.0639 14.9996ZM 6.0639 10.7083L 6.0639 9.90832C 5.85173 9.90832 5.64825 9.99261 5.49822 10.1426C 5.34819 10.2927 5.2639 10.4961 5.2639 10.7083L 6.0639 10.7083ZM 14.1469 5.9995L 14.1469 5.1995C 13.705 5.1995 13.3469 5.55767 13.3469 5.9995L 14.1469 5.9995ZM 14.1469 14.9995L 14.1468 15.7995C 14.359 15.7995 14.5625 15.7152 14.7125 15.5652C 14.8626 15.4152 14.9469 15.2117 14.9469 14.9995L 14.1469 14.9995ZM 10.5198 14.9993L 9.71978 14.9993C 9.71978 15.4411 10.0779 15.7992 10.5197 15.7993L 10.5198 14.9993ZM 10.5198 10.7083L 11.3198 10.7083C 11.3198 10.2665 10.9616 9.90834 10.5198 9.90833L 10.5198 10.7083ZM 7.85543 -0.648964L -0.467809 5.35089L 0.467809 6.64882L 8.79105 0.648964L 7.85543 -0.648964ZM 7.85546 0.648987L 16.1791 6.64849L 17.1146 5.35051L 8.79102 -0.648987L 7.85546 0.648987ZM 5.49316e-06 6.79986L 2.50001 6.79984L 2.49999 5.19984L -5.49316e-06 5.19986L 5.49316e-06 6.79986ZM 1.7 5.99984L 1.7 14.9998L 3.3 14.9998L 3.3 5.99984L 1.7 5.99984ZM 2.50004 15.7998L 6.06394 15.7996L 6.06386 14.1996L 2.49996 14.1998L 2.50004 15.7998ZM 6.8639 14.9996L 6.8639 10.7083L 5.2639 10.7083L 5.2639 14.9996L 6.8639 14.9996ZM 16.6469 5.1995L 14.1469 5.1995L 14.1469 6.7995L 16.6469 6.7995L 16.6469 5.1995ZM 13.3469 5.9995L 13.3469 14.9995L 14.9469 14.9995L 14.9469 5.9995L 13.3469 5.9995ZM 14.1469 14.1995L 10.5198 14.1993L 10.5197 15.7993L 14.1468 15.7995L 14.1469 14.1995ZM 11.3198 14.9993L 11.3198 10.7083L 9.71978 10.7083L 9.71978 14.9993L 11.3198 14.9993ZM 10.5198 9.90833L 6.0639 9.90832L 6.0639 11.5083L 10.5198 11.5083L 10.5198 9.90833Z"/>
<path id="path12_fill" fill-rule="evenodd" d="M 8 19.5C 9.1 19.5 10 18.6 10 17.5L 6 17.5C 6 18.6 6.9 19.5 8 19.5ZM 14 13.5L 14 8.5C 14 5.43 12.37 2.86 9.5 2.18L 9.5 1.5C 9.5 0.67 8.83 0 8 0C 7.17 0 6.5 0.67 6.5 1.5L 6.5 2.18C 3.64 2.86 2 5.42 2 8.5L 2 13.5L 0 15.5L 0 16.5L 16 16.5L 16 15.5L 14 13.5ZM 12 14.5L 4 14.5L 4 8.5C 4 6.02 5.51 4 8 4C 10.49 4 12 6.02 12 8.5L 12 14.5Z"/>
<path id="path13_fill" fill-rule="evenodd" d="M 18 0L 2 0C 0.9 0 0.01 0.9 0.01 2L 0 14C 0 15.1 0.9 16 2 16L 18 16C 19.1 16 20 15.1 20 14L 20 2C 20 0.9 19.1 0 18 0ZM 18 14L 2 14L 2 4L 10 9L 18 4L 18 14ZM 10 7L 2 2L 18 2L 10 7Z"/>
<path id="path14_fill" fill-rule="evenodd" d="M 10 0L 8 0L 8 10L 10 10L 10 0ZM 14.83 2.16992L 13.41 3.58992C 14.99 4.85992 16 6.80992 16 8.99992C 16 12.8699 12.87 15.9999 9 15.9999C 5.13 15.9999 2 12.8699 2 8.99992C 2 6.80992 3.01 4.85992 4.58 3.57992L 3.17 2.16992C 1.23 3.81992 0 6.25992 0 8.99992C 0 13.9699 4.03 17.9999 9 17.9999C 13.97 17.9999 18 13.9699 18 8.99992C 18 6.25992 16.77 3.81992 14.83 2.16992Z"/>
<path id="path15_fill" fill-rule="evenodd" d="M 10.8 0L 1.2 0C 0.54 0 0.006 0.5625 0.006 1.25L 0 8.75C 0 9.4375 0.54 10 1.2 10L 10.8 10C 11.46 10 12 9.4375 12 8.75L 12 1.25C 12 0.5625 11.46 0 10.8 0ZM 10.8 8.75L 1.2 8.75L 1.2 2.5L 6 5.625L 10.8 2.5L 10.8 8.75ZM 6 4.375L 1.2 1.25L 10.8 1.25L 6 4.375Z"/>
<path id="path16_fill" fill-rule="evenodd" d="M 1.60889 3.46222C 2.24889 4.72 3.28 5.74667 4.53778 6.39111L 5.51556 5.41333C 5.63556 5.29333 5.81333 5.25333 5.96889 5.30667C 6.22222 5.30667 7.35069 5.56 7.55556 5.56C 7.64236 5.56 8 5.76 8 6.00444L 8 7.55556C 8 7.8 7.8 8 7.55556 8C 3.38222 8 0 4.61778 0 0.444444C 0 0.2 0.2 0 0.444444 0L 2 0C 2.24444 0 2.44444 0.186126 2.44444 0.444444C 2.44444 0.491648 2.63637 1.83573 2.69778 2.03111C 2.74667 2.18667 2.71111 2.36 2.58667 2.48444L 1.60889 3.46222Z"/>
<path id="path17_stroke_2x" d="M 1.60889 3.46222L 0.901782 2.75512L 0.388335 3.26856L 0.717633 3.91572L 1.60889 3.46222ZM 4.53778 6.39111L 4.08178 7.28109L 4.72992 7.61318L 5.24488 7.09822L 4.53778 6.39111ZM 5.96889 5.30667L 5.64456 6.25261L 5.80222 6.30667L 5.96889 6.30667L 5.96889 5.30667ZM 2.69778 2.03111L 3.65177 1.73128L 2.69778 2.03111ZM 2.58667 2.48444L 3.29377 3.19155L 3.29377 3.19155L 2.58667 2.48444ZM 0.717633 3.91572C 1.45438 5.36364 2.63903 6.54187 4.08178 7.28109L 4.99378 5.50113C 3.92097 4.95146 3.04339 4.07636 2.50014 3.00872L 0.717633 3.91572ZM 5.24488 7.09822L 6.22266 6.12044L 4.80845 4.70623L 3.83067 5.684L 5.24488 7.09822ZM 6.22266 6.12044C 6.07353 6.26957 5.8514 6.32353 5.64456 6.25261L 6.29321 4.36072C 5.77527 4.18314 5.19758 4.3171 4.80845 4.70623L 6.22266 6.12044ZM 5.96889 6.30667C 5.93573 6.30667 5.9705 6.30638 6.13282 6.33303C 6.26505 6.35475 6.42582 6.38443 6.59696 6.41636C 6.76258 6.44727 6.94013 6.48072 7.0879 6.50604C 7.19648 6.52465 7.40037 6.56 7.55556 6.56L 7.55556 4.56C 7.60831 4.56 7.59432 4.56368 7.42578 4.53479C 7.29642 4.51262 7.13761 4.48273 6.96384 4.4503C 6.79559 4.41891 6.61393 4.38525 6.45692 4.35947C 6.33 4.33862 6.12872 4.30667 5.96889 4.30667L 5.96889 6.30667ZM 7.55556 6.56C 7.4084 6.56 7.30467 6.52477 7.28726 6.51905C 7.25111 6.50716 7.22812 6.49628 7.21909 6.49182C 7.20114 6.48297 7.19211 6.47663 7.18399 6.47011C 7.17798 6.46528 7.14482 6.43856 7.10687 6.38077C 7.06851 6.32235 7 6.19202 7 6.00444L 9 6.00444C 9 5.40922 8.59752 5.04024 8.43667 4.91101C 8.32829 4.82393 8.21357 4.75231 8.10415 4.69831C 8.04938 4.67129 7.98422 4.64287 7.91189 4.61909C 7.85831 4.60148 7.72441 4.56 7.55556 4.56L 7.55556 6.56ZM 7 6.00444L 7 7.55556L 9 7.55556L 9 6.00444L 7 6.00444ZM 7 7.55556C 7 7.24772 7.24772 7 7.55556 7L 7.55556 9C 8.35228 9 9 8.35228 9 7.55556L 7 7.55556ZM 7.55556 7C 3.93451 7 1 4.06549 1 0.444444L -1 0.444444C -1 5.17006 2.82994 9 7.55556 9L 7.55556 7ZM 1 0.444444C 1 0.752285 0.752285 1 0.444444 1L 0.444444 -1C -0.352285 -1 -1 -0.352285 -1 0.444444L 1 0.444444ZM 0.444444 1L 2 1L 2 -1L 0.444444 -1L 0.444444 1ZM 2 1C 1.86502 1 1.72385 0.947085 1.61452 0.840112C 1.50202 0.730034 1.44444 0.583163 1.44444 0.444444L 3.44444 0.444444C 3.44444 -0.386564 2.7761 -1 2 -1L 2 1ZM 1.44444 0.444444C 1.44444 0.479461 1.44633 0.507266 1.44688 0.515372C 1.44772 0.527755 1.44865 0.53821 1.44928 0.544997C 1.45055 0.558706 1.45195 0.571486 1.45303 0.58096C 1.45526 0.600606 1.45807 0.623147 1.46101 0.645982C 1.46701 0.692538 1.47529 0.753531 1.48501 0.823126C 1.50453 0.962888 1.53101 1.14539 1.55943 1.33242C 1.58773 1.51872 1.61862 1.71392 1.64687 1.87755C 1.66924 2.00709 1.70384 2.20385 1.74378 2.33094L 3.65177 1.73128C 3.66201 1.76385 3.66125 1.76963 3.64979 1.71239C 3.64112 1.66909 3.63028 1.61004 3.61771 1.53726C 3.5927 1.39245 3.56409 1.21205 3.53674 1.03201C 3.5095 0.852691 3.48416 0.67811 3.46578 0.546475C 3.45655 0.48037 3.44934 0.427086 3.44461 0.390339C 3.44218 0.371523 3.44081 0.360156 3.4402 0.354832C 3.43592 0.317223 3.44444 0.376864 3.44444 0.444444L 1.44444 0.444444ZM 1.74378 2.33094C 1.68594 2.14688 1.72904 1.92786 1.87956 1.77734L 3.29377 3.19155C 3.69318 2.79214 3.8074 2.22646 3.65177 1.73128L 1.74378 2.33094ZM 1.87956 1.77734L 0.901782 2.75512L 2.316 4.16933L 3.29377 3.19155L 1.87956 1.77734Z"/>
</defs>
</svg>
