<svg width="182" height="57" viewBox="0 0 182 57" version="1.1" xmlns="http://www.w3.org/2000/svg" xmlns:xlink="http://www.w3.org/1999/xlink">
<title>Group</title>
<desc>Created using Figma</desc>
<g id="Canvas" transform="translate(4412 2557)">
<g id="Group">
<g id="Vector">
<use xlink:href="#path0_fill" transform="translate(-4358.61 -2525.29)" fill="#B2B2B2"/>
</g>
<g id="Vector">
<use xlink:href="#path1_fill" transform="translate(-4309.98 -2550.29)" fill="#B2B2B2"/>
</g>
<g id="Vector">
<use xlink:href="#path2_fill" transform="translate(-4320.53 -2545.77)" fill="#C90526"/>
</g>
<g id="Vector">
<use xlink:href="#path3_fill" transform="translate(-4260.22 -2528.94)" fill="#FFFFFF"/>
</g>
<g id="Vector">
<use xlink:href="#path4_fill" transform="translate(-4356.16 -2539.18)" fill="#C90526"/>
</g>
<g id="Vector">
<use xlink:href="#path5_fill" transform="translate(-4237.64 -2539.12)" fill="#C90526"/>
</g>
<g id="Vector">
<use xlink:href="#path6_fill" transform="translate(-4235.42 -2537.03)" fill="#C90526"/>
</g>
<g id="Vector">
<use xlink:href="#path7_fill" transform="translate(-4339.35 -2519.96)" fill="#C90526"/>
</g>
<g id="Group 2">
<g id="Group">
<g id="Vector">
<use xlink:href="#path8_fill" transform="translate(-4388.6 -2557)" fill="url(#paint8_linear)"/>
</g>
</g>
<g id="Group">
<g id="Vector">
<use xlink:href="#path9_fill" transform="translate(-4410.15 -2546.05)" fill="url(#paint9_linear)"/>
</g>
</g>
<g id="Group">
<g id="Vector">
<use xlink:href="#path10_fill" transform="translate(-4412 -2530.22)" fill="url(#paint10_linear)"/>
</g>
</g>
<g id="Group">
<g id="Vector">
<use xlink:href="#path11_fill" transform="translate(-4395.26 -2522.45)" fill="url(#paint11_linear)"/>
</g>
<g id="Vector">
<use xlink:href="#path12_fill" transform="translate(-4391.62 -2522.45)" fill="#FFFFFF"/>
</g>
</g>
<g id="Group">
<g id="Vector">
<use xlink:href="#path13_fill" transform="translate(-4384.04 -2522.96)" fill="url(#paint13_linear)"/>
</g>
</g>
<g id="Group">
<g id="Vector">
<use xlink:href="#path14_fill" transform="translate(-4379.22 -2541.63)" fill="url(#paint14_linear)"/>
</g>
</g>
<g id="Group">
<g id="Vector">
<use xlink:href="#path15_fill" transform="translate(-4409.72 -2551.21)" fill="url(#paint15_radial)"/>
</g>
</g>
</g>
</g>
</g>
<defs>
<linearGradient id="paint8_linear" x1="0" y1="0" x2="1" y2="0" gradientUnits="userSpaceOnUse" gradientTransform="matrix(3.16967 14.9484 -14.7253 3.2177 10.9392 2.05279)">
<stop offset="0" stop-color="#CA0526"/>
<stop offset="1" stop-color="#FFFFFF"/>
</linearGradient>
<linearGradient id="paint9_linear" x1="0" y1="0" x2="1" y2="0" gradientUnits="userSpaceOnUse" gradientTransform="matrix(13.682 4.47353 -4.40676 13.8894 5.60286 -3.22164)">
<stop offset="0" stop-color="#CA0526"/>
<stop offset="1" stop-color="#FFFFFF"/>
</linearGradient>
<linearGradient id="paint10_linear" x1="0" y1="0" x2="1" y2="0" gradientUnits="userSpaceOnUse" gradientTransform="matrix(11.6069 -10.6659 10.5067 11.7828 -2.27905 6.93692)">
<stop offset="0" stop-color="#CA0526"/>
<stop offset="1" stop-color="#FFFFFF"/>
</linearGradient>
<linearGradient id="paint11_linear" x1="0" y1="0" x2="1" y2="0" gradientUnits="userSpaceOnUse" gradientTransform="matrix(-3.06706 -14.468 14.2521 -3.11353 -0.397865 20.1265)">
<stop offset="0" stop-color="#CA0526"/>
<stop offset="1" stop-color="#FFFFFF"/>
</linearGradient>
<linearGradient id="paint13_linear" x1="0" y1="0" x2="1" y2="0" gradientUnits="userSpaceOnUse" gradientTransform="matrix(-13.682 -4.47353 4.40676 -13.8894 15.0829 15.2477)">
<stop offset="0" stop-color="#CA0526"/>
<stop offset="1" stop-color="#FFFFFF"/>
</linearGradient>
<linearGradient id="paint14_linear" x1="0" y1="0" x2="1" y2="0" gradientUnits="userSpaceOnUse" gradientTransform="matrix(-11.6069 10.6659 -10.5067 -11.7828 19.9949 7.93378)">
<stop offset="0" stop-color="#CA0526"/>
<stop offset="1" stop-color="#FFFFFF"/>
</linearGradient>
<radialGradient id="paint15_radial" cx="0.5" cy="0.5" r="0.5" gradientUnits="userSpaceOnUse" gradientTransform="matrix(9.25288e-13 49.0452 -50.3546 4.86044e-12 48.3798 -1.92348)">
<stop offset="0" stop-color="#868686"/>
<stop offset="1" stop-color="#FFFFFF" stop-opacity="0"/>
</radialGradient>
<path id="path0_fill" d="M 75.7643 -4.41531e-07L 74.9662 -4.41531e-07L 72.9139 -4.41531e-07L 49.4834 -4.41531e-07L 47.4311 -4.41531e-07L 46.69 -4.41531e-07L 1.73976e-06 0.462978L 46.69 0.925958L 47.4311 0.925958L 49.4834 0.925958L 72.9139 0.925958L 74.9662 0.925958L 75.7643 0.925958L 122.454 0.462978L 75.7643 -4.41531e-07Z"/>
<path id="path1_fill" fill-rule="evenodd" d="M 3.47953e-06 23.3225L 10.4326 0.231489L 10.5466 2.20765e-07L 10.6606 0.231489L 19.6679 20.5447L 20.8651 23.3225L 20.9221 23.3225L 17.8437 23.3225L 10.4326 5.15064L 3.13547 23.3225L 3.47953e-06 23.3225Z"/>
<path id="path2_fill" fill-rule="evenodd" d="M 0.0570068 18.7506L 14.4232 0.173617L 14.5372 -2.20765e-07L 14.5942 0.173617L 20.9791 10.417L 27.5351 0.173617L 27.6491 -2.20765e-07L 27.7632 0.173617L 42.0723 18.8085L 37.3976 18.8085L 27.7062 3.47234L 21.1502 15.7991L 21.0362 16.0306L 20.9791 15.7991L 14.5372 3.47234L 4.78872 18.8085L 3.47953e-06 18.8085L 0.0570068 18.7506Z"/>
<path id="path3_fill" fill-rule="evenodd" d="M 22.1763 5.44L 16.5325 5.44L 16.5325 2.19915L 5.70085 2.19915L 5.70085 5.44L -3.47953e-06 5.44L -3.47953e-06 0L 22.1763 0L 22.1763 5.44Z"/>
<path id="path4_fill" fill-rule="evenodd" d="M 110.54 9.89617L 110.54 2.37277L 105.808 2.37277C 105.637 3.81957 105.238 5.20851 104.725 6.53957C 104.155 7.81276 103.528 8.97021 102.672 9.95404L 110.54 9.95404L 110.54 9.89617ZM 118.008 15.0468L 113.048 15.0468L 113.048 12.2111L 100.962 12.2111L 100.962 15.0468L 95.9454 15.0468L 95.9454 9.89617L 97.4276 9.89617C 98.4537 8.68085 99.2519 7.23404 99.822 5.55574C 100.392 3.87745 100.734 2.02553 100.734 0.0578721L 116.012 0.0578721L 116.012 9.89617L 118.065 9.89617L 118.065 15.0468L 118.008 15.0468ZM 79.6979 12.2111L 79.6979 0.0578721L 94.3491 0.0578721L 94.3491 2.37277L 85.1137 2.37277L 85.1137 4.51404L 93.608 4.51404L 93.608 6.82893L 85.1137 6.82893L 85.1137 9.89617L 94.3491 9.89617L 94.3491 12.2111L 79.6979 12.2111ZM 33.8061 3.93532C 33.8061 3.58808 33.635 3.29872 33.35 3.06723C 33.065 2.83574 32.7229 2.66213 32.3238 2.54638C 31.8108 2.43064 31.2977 2.37276 30.8416 2.31489C 30.3855 2.31489 29.7585 2.31489 28.9033 2.31489L 28.1622 2.31489L 28.1622 5.96085L 28.5613 5.96085C 29.0744 5.96085 29.5304 5.96085 30.0435 5.96085C 30.4996 5.96085 30.8986 5.96085 31.2407 5.90298C 31.5257 5.90298 31.8678 5.84511 32.1528 5.72936C 32.4949 5.67149 32.7229 5.55574 32.8939 5.44C 33.236 5.26638 33.521 5.03489 33.635 4.8034C 33.7491 4.62978 33.8061 4.34042 33.8061 3.93532ZM 39.3929 3.87745C 39.3929 4.45617 39.2219 4.97702 38.9368 5.49787C 38.5948 6.01872 38.1387 6.42383 37.5686 6.77106C 37.2266 7.00255 36.7705 7.17617 36.3714 7.34978C 35.9154 7.5234 35.4593 7.69702 34.8892 7.81276C 34.3761 7.92851 33.8061 8.04425 33.179 8.10212C 32.5519 8.16 31.8678 8.21787 31.0697 8.21787L 28.2192 8.21787L 28.2192 12.2111L 22.8034 12.2111L 22.8034 0.0578721L 31.1837 0.0578721C 32.4379 0.0578721 33.521 0.115745 34.4332 0.23149C 35.3453 0.347234 36.1434 0.578723 36.8845 0.868084C 37.6826 1.15745 38.3097 1.56255 38.7658 2.0834C 39.1649 2.60426 39.3929 3.18298 39.3929 3.87745ZM 12.4279 7.5234L 10.2045 3.53021L 7.98119 7.5234L 12.4279 7.5234ZM -8.69881e-07 12.2111L 7.29709 -4.41531e-07L 13.226 -4.41531e-07L 20.5231 12.2111L 14.9362 12.2111L 13.568 9.72255L 6.78402 9.72255L 5.41581 12.2111L -8.69881e-07 12.2111Z"/>
<path id="path5_fill" d="M 5.9859 1.62042C 5.41581 1.0417 4.6177 0.636595 3.76257 0.636595C 2.90744 0.636595 2.10932 0.98383 1.53924 1.62042C 0.969152 2.19915 0.627098 3.06723 0.627098 3.99319C 0.627098 4.91915 0.969152 5.72936 1.53924 6.36595C 2.10932 6.94468 2.90744 7.34978 3.76257 7.34978C 4.6177 7.34978 5.41581 7.00255 5.9859 6.36595C 6.55598 5.78723 6.89804 4.91915 6.89804 3.99319C 6.95505 3.06723 6.55598 2.19915 5.9859 1.62042ZM 3.81958 -2.20765e-07C 4.90274 -2.20765e-07 5.81487 0.462979 6.55598 1.15745C 7.24009 1.85191 7.63914 2.89362 7.63914 3.93532C 7.63914 5.03489 7.24009 6.01872 6.55598 6.71319C 5.87188 7.46553 4.90274 7.87063 3.81958 7.87063C 2.73642 7.87063 1.82427 7.40766 1.08316 6.71319C 0.399056 6.01872 0 4.97702 0 3.93532C 0 2.83574 0.399056 1.85191 1.08316 1.15745C 1.76726 0.462979 2.73642 -2.20765e-07 3.81958 -2.20765e-07Z"/>
<path id="path6_fill" d="M 0.798113 1.56255L 1.3682 1.56255C 1.71025 1.56255 1.93829 1.56255 2.05231 1.50468C 2.16632 1.50468 2.22333 1.44681 2.28034 1.33106C 2.33735 1.27319 2.39436 1.15745 2.39436 1.0417C 2.39436 0.925957 2.33735 0.810212 2.28034 0.75234C 2.22333 0.694467 2.10932 0.636596 2.05231 0.578723C 1.9953 0.578723 1.76726 0.578723 1.42521 0.578723L 0.798113 0.578723L 0.798113 1.56255ZM -3.47952e-06 3.7617L -3.47952e-06 0L 1.65324 0C 2.0523 0 2.39435 0.0578728 2.56538 0.115745C 2.73641 0.173617 2.90744 0.289361 3.02146 0.462978C 3.13548 0.636595 3.19248 0.810212 3.19248 1.0417C 3.19248 1.33106 3.07846 1.56255 2.90744 1.73617C 2.73641 1.90979 2.45137 2.02553 2.16633 2.0834C 2.33736 2.19915 2.45136 2.25702 2.56538 2.37276C 2.6794 2.48851 2.85043 2.72 3.02146 3.00936L 3.47752 3.7617L 2.56538 3.7617L 1.9953 2.95149C 1.76726 2.66213 1.65325 2.48851 1.59625 2.37276C 1.53924 2.31489 1.42521 2.25702 1.3682 2.19915C 1.31119 2.19915 1.14017 2.14128 0.969149 2.14128L 0.798113 2.14128L 0.798113 3.7617L -3.47952e-06 3.7617Z"/>
<path id="path7_fill" d="M 82.3773 0.23149L 81.5222 4.34042L 81.0091 4.34042L 81.8642 0.23149L 82.3773 0.23149ZM 80.211 1.85191C 80.211 1.09957 79.8119 0.694466 79.0708 0.694466L 78.2157 0.694466L 77.5886 3.87744L 78.3867 3.87744C 78.6148 3.87744 78.7858 3.87745 79.0138 3.7617C 79.2419 3.70383 79.4129 3.58808 79.5839 3.47234C 79.7549 3.29872 79.9259 3.12511 80.04 2.83574C 80.154 2.60426 80.211 2.25702 80.211 1.85191ZM 80.7811 1.79404C 80.7811 2.37276 80.6671 2.83574 80.496 3.18298C 80.325 3.53021 80.097 3.81958 79.8119 3.93532C 79.5269 4.10894 79.2989 4.22468 79.0138 4.22468C 78.7858 4.28255 78.5007 4.28255 78.2727 4.28255L 76.9615 4.28255L 77.8166 0.173619L 79.1848 0.173619C 79.2989 0.173619 79.4699 0.173618 79.6409 0.23149C 79.8119 0.23149 79.983 0.347232 80.154 0.405105C 80.325 0.520849 80.496 0.694468 80.6101 0.868085C 80.7241 1.15745 80.7811 1.44681 80.7811 1.79404ZM 77.1895 0.23149L 77.0755 0.694466L 74.7952 0.694466L 74.5101 1.96766L 76.5624 1.96766L 76.4484 2.43064L 74.3961 2.43064L 74.1111 3.87744L 76.4484 3.87744L 76.3344 4.34042L 73.427 4.34042L 74.2821 0.23149L 77.1895 0.23149ZM 72.7999 1.21532C 72.7999 0.983829 72.7429 0.868087 72.6289 0.752342C 72.5148 0.69447 72.3438 0.636595 72.1728 0.636595L 70.9186 0.636595L 70.6336 2.0834L 71.8307 2.0834C 72.0018 2.0834 72.1158 2.02553 72.2868 1.96766C 72.4008 1.90979 72.5719 1.79404 72.6289 1.6783C 72.7429 1.62043 72.7999 1.44681 72.7999 1.21532ZM 73.313 1.15745C 73.313 1.33106 73.256 1.50468 73.1989 1.6783C 73.1419 1.85192 73.0279 1.96766 72.9139 2.0834C 72.7999 2.19915 72.6859 2.25702 72.5148 2.31489C 72.7429 2.37277 72.8569 2.60425 72.8569 2.89362C 72.8569 3.00936 72.8569 3.18298 72.7999 3.29872C 72.7999 3.41447 72.7999 3.53021 72.7999 3.64596C 72.7999 3.70383 72.7999 3.81958 72.7999 3.93532C 72.7999 4.05106 72.7999 4.16681 72.7999 4.28255L 72.2298 4.28255C 72.2298 4.16681 72.2298 3.93532 72.2298 3.70383C 72.2298 3.47234 72.2868 3.24085 72.2868 2.95149C 72.2868 2.66213 72.0588 2.48851 71.6597 2.48851L 70.5195 2.48851L 70.1775 4.22468L 69.6644 4.22468L 70.5195 0.115743L 72.1728 0.115743C 72.4578 0.115743 72.7429 0.173618 72.9139 0.23149C 73.0849 0.347235 73.1989 0.462979 73.256 0.578723C 73.313 0.868085 73.313 0.983829 73.313 1.15745ZM 69.3794 1.33107L 69.3794 1.38894L 69.3794 1.44681L 68.8093 1.44681C 68.8093 1.33106 68.8093 1.27319 68.8093 1.21532C 68.8093 1.15745 68.7523 1.09957 68.7523 0.983828C 68.6953 0.868083 68.5813 0.752338 68.4672 0.694466C 68.3532 0.636594 68.1252 0.578723 67.9542 0.578723C 67.6121 0.578723 67.3271 0.636596 67.099 0.810213C 66.871 0.98383 66.7 1.15745 66.529 1.38894C 66.4149 1.62043 66.3009 1.85191 66.2439 2.0834C 66.1869 2.31489 66.1869 2.54638 66.1869 2.72C 66.1869 3.18298 66.3009 3.53021 66.529 3.7617C 66.757 3.93532 67.042 4.05106 67.3271 4.05106C 67.6121 4.05106 67.8972 3.93532 68.1822 3.7617C 68.4102 3.53021 68.6383 3.18298 68.7523 2.72L 67.6121 2.72L 67.7261 2.25702L 69.3794 2.25702L 68.9803 3.7617C 68.9803 3.81957 68.9233 3.87745 68.8093 3.99319C 68.6953 4.05106 68.6383 4.10893 68.5243 4.16681C 68.4672 4.22468 68.3532 4.28255 68.2392 4.28255C 68.1252 4.34043 68.0112 4.34042 67.8401 4.3983C 67.6691 4.45617 67.4981 4.45617 67.2701 4.45617C 66.928 4.45617 66.586 4.3983 66.3579 4.22468C 66.1299 4.05106 65.9589 3.87744 65.8448 3.58808C 65.7308 3.29872 65.6738 3.00936 65.6738 2.66213C 65.6738 2.43064 65.7308 2.14127 65.7878 1.85191C 65.8448 1.56255 66.0159 1.27319 66.1869 0.983828C 66.3579 0.694466 66.586 0.462979 66.928 0.289362C 67.2701 0.115745 67.6121 1.64483e-14 68.0682 1.64483e-14C 68.3532 1.64483e-14 68.5813 0.0578706 68.7523 0.115743C 68.9233 0.173615 69.0943 0.28936 69.2084 0.405105C 69.3224 0.520849 69.3794 0.636596 69.4364 0.810213C 69.3794 1.0417 69.3794 1.15745 69.3794 1.33107ZM 65.6738 0.23149L 65.5598 0.694466L 63.2795 0.694466L 62.9944 1.96766L 65.0467 1.96766L 64.9327 2.43064L 62.9374 2.43064L 62.6524 3.87744L 64.9897 3.87744L 64.8757 4.34042L 61.9683 4.34042L 62.8234 0.23149L 65.6738 0.23149ZM 61.2842 1.21532C 61.2842 0.983829 61.2272 0.868087 61.1131 0.752342C 60.9991 0.69447 60.8281 0.636595 60.6571 0.636595L 59.4599 0.636595L 59.1748 2.0834L 60.372 2.0834C 60.5431 2.0834 60.6571 2.02553 60.8281 1.96766C 60.9421 1.90979 61.1131 1.79404 61.1701 1.6783C 61.2272 1.62043 61.2842 1.44681 61.2842 1.21532ZM 61.8543 1.15745C 61.8543 1.33106 61.7972 1.50468 61.7402 1.6783C 61.6832 1.85192 61.5692 1.96766 61.4552 2.0834C 61.3412 2.19915 61.2272 2.25702 61.0561 2.31489C 61.2842 2.37277 61.3982 2.60425 61.3982 2.89362C 61.3982 3.00936 61.3982 3.18298 61.3412 3.29872C 61.3412 3.41447 61.3412 3.53021 61.3412 3.64596C 61.3412 3.70383 61.3412 3.81958 61.3412 3.93532C 61.3412 4.05106 61.3412 4.16681 61.3412 4.28255L 60.7711 4.28255C 60.7711 4.16681 60.7711 3.93532 60.7711 3.70383C 60.7711 3.47234 60.8281 3.24085 60.8281 2.95149C 60.8281 2.66213 60.6001 2.48851 60.201 2.48851L 59.0608 2.48851L 58.7188 4.22468L 58.2057 4.22468L 59.0608 0.115743L 60.7141 0.115743C 60.9991 0.115743 61.2842 0.173618 61.4552 0.23149C 61.6262 0.347235 61.7402 0.462979 61.7972 0.578723C 61.7972 0.868085 61.8543 0.983829 61.8543 1.15745ZM 56.8945 0.23149L 56.7805 0.694466L 55.5263 0.694466L 54.7852 4.34042L 54.2721 4.34042L 55.0132 0.694466L 53.702 0.694466L 53.816 0.23149L 56.8945 0.23149ZM 53.1319 1.09958C 53.1319 1.15745 53.1319 1.21532 53.1319 1.33107L 52.6189 1.33107C 52.6189 1.09958 52.5619 0.925958 52.4478 0.810213C 52.3338 0.694469 52.1058 0.636595 51.7637 0.636595C 51.5357 0.636595 51.3647 0.69447 51.1937 0.752342C 51.0226 0.810214 50.9086 0.925959 50.8516 1.0417C 50.7376 1.15745 50.7376 1.27319 50.7376 1.44681C 50.7376 1.56255 50.7946 1.6783 50.8516 1.73617C 50.9086 1.79404 51.0226 1.85192 51.1367 1.90979C 51.2507 1.96766 51.4217 1.96766 51.5927 2.02553C 51.7637 2.0834 51.8778 2.0834 51.9918 2.14127C 52.1058 2.19915 52.2198 2.19915 52.2768 2.25702C 52.3908 2.31489 52.4478 2.31489 52.5049 2.37276C 52.5619 2.43064 52.6189 2.48851 52.6759 2.54638C 52.7899 2.66213 52.8469 2.83575 52.8469 3.06723C 52.8469 3.29872 52.7899 3.53021 52.6759 3.7617C 52.6189 3.87745 52.5619 3.99319 52.4478 4.10893C 52.3338 4.22468 52.2198 4.28255 52.1058 4.3983C 51.8208 4.57191 51.4787 4.62979 51.0226 4.62979C 50.0535 4.62979 49.5974 4.28255 49.5974 3.53021C 49.5974 3.41447 49.5974 3.29872 49.5974 3.18298L 50.1675 3.18298C 50.1675 3.24085 50.1675 3.29872 50.1675 3.41447C 50.1675 3.58808 50.2245 3.7617 50.3385 3.93532C 50.4525 4.10894 50.6806 4.16681 51.0796 4.16681C 51.3077 4.16681 51.5357 4.10893 51.7067 4.05106C 51.8778 3.93532 51.9918 3.87745 52.1058 3.70383C 52.2198 3.58808 52.2198 3.41447 52.2198 3.29872C 52.2198 3.18298 52.1628 3.06723 52.1058 2.95149C 52.0488 2.89362 51.9348 2.83575 51.8208 2.77787C 51.7067 2.72 51.5927 2.72 51.4787 2.66213L 50.9656 2.54638C 50.7376 2.48851 50.5666 2.43064 50.4525 2.37276C 50.3385 2.31489 50.2245 2.19915 50.1105 2.0834C 49.9965 1.96766 49.9965 1.79404 49.9965 1.56255C 49.9965 1.33106 50.0535 1.09957 50.1675 0.925956C 50.2815 0.694467 50.4525 0.578721 50.7376 0.405105C 50.9656 0.28936 51.3077 0.23149 51.7067 0.23149C 52.2198 0.23149 52.5619 0.347235 52.7329 0.520852C 53.0179 0.578724 53.1319 0.810213 53.1319 1.09958ZM 49.9395 0.23149L 49.8255 0.694466L 47.5451 0.694466L 47.2601 1.96766L 49.3124 1.96766L 49.1984 2.43064L 47.1461 2.43064L 46.861 3.87744L 49.1984 3.87744L 49.0843 4.34042L 46.1769 4.34042L 47.032 0.23149L 49.9395 0.23149ZM 43.7825 3.70383L 43.6685 4.34042C 43.6115 4.57191 43.5545 4.74553 43.4975 4.86128C 43.4405 4.91915 43.3835 4.97702 43.3265 5.03489C 43.2695 5.09276 43.1555 5.15064 43.0414 5.15064L 43.0984 4.8034C 43.2125 4.8034 43.2695 4.74553 43.3265 4.62979C 43.3265 4.57191 43.3835 4.51404 43.3835 4.45617C 43.3835 4.39829 43.4405 4.34043 43.4405 4.28255L 43.1555 4.28255L 43.2695 3.64596L 43.7825 3.64596L 43.7825 3.70383ZM 42.8704 0.23149L 42.0153 4.34042L 41.5022 4.34042L 42.3573 0.23149L 42.8704 0.23149ZM 40.7041 1.85191C 40.7041 1.09957 40.305 0.694466 39.5639 0.694466L 38.7088 0.694466L 38.0817 3.87744L 38.8798 3.87744C 39.1079 3.87744 39.2789 3.87745 39.5069 3.7617C 39.7349 3.70383 39.906 3.58808 40.077 3.47234C 40.248 3.29872 40.419 3.12511 40.5331 2.83574C 40.6471 2.60426 40.7041 2.25702 40.7041 1.85191ZM 41.2742 1.79404C 41.2742 2.37276 41.1602 2.83574 40.9891 3.18298C 40.8181 3.53021 40.5901 3.81958 40.305 3.93532C 40.02 4.10894 39.7919 4.22468 39.5069 4.22468C 39.2789 4.28255 38.9938 4.28255 38.7658 4.28255L 37.4546 4.28255L 38.3097 0.173619L 39.6779 0.173619C 39.792 0.173619 39.963 0.173618 40.134 0.23149C 40.305 0.23149 40.4761 0.347232 40.6471 0.405105C 40.8181 0.520849 40.9891 0.694468 41.1031 0.868085C 41.2172 1.15745 41.2742 1.44681 41.2742 1.79404ZM 37.6826 0.23149L 37.5686 0.694466L 35.2883 0.694466L 35.0032 1.96766L 37.0555 1.96766L 36.9415 2.43064L 34.8892 2.43064L 34.6042 3.87744L 36.9415 3.87744L 36.8275 4.34042L 33.9201 4.34042L 34.7752 0.23149L 37.6826 0.23149ZM 33.293 1.21532C 33.293 0.983829 33.236 0.868087 33.122 0.752342C 33.0079 0.69447 32.8369 0.636595 32.6659 0.636595L 31.4687 0.636595L 31.1837 2.0834L 32.3808 2.0834C 32.5519 2.0834 32.6659 2.02553 32.8369 1.96766C 32.9509 1.90979 33.122 1.79404 33.179 1.6783C 33.236 1.62043 33.293 1.44681 33.293 1.21532ZM 33.8631 1.15745C 33.8631 1.33106 33.8061 1.50468 33.7491 1.6783C 33.692 1.85192 33.578 1.96766 33.464 2.0834C 33.35 2.19915 33.236 2.25702 33.0649 2.31489C 33.293 2.37277 33.407 2.60425 33.407 2.89362C 33.407 3.00936 33.407 3.18298 33.35 3.29872C 33.35 3.41447 33.35 3.53021 33.35 3.64596C 33.35 3.70383 33.35 3.81958 33.35 3.93532C 33.35 4.05106 33.35 4.16681 33.35 4.28255L 32.7799 4.28255C 32.7799 4.16681 32.7799 3.93532 32.7799 3.70383C 32.7799 3.47234 32.8369 3.24085 32.8369 2.95149C 32.8369 2.66213 32.6089 2.48851 32.2098 2.48851L 31.0697 2.48851L 30.7276 4.22468L 30.2145 4.22468L 31.0697 0.115743L 32.7229 0.115743C 33.0079 0.115743 33.293 0.173618 33.464 0.23149C 33.635 0.347235 33.749 0.462979 33.8061 0.578723C 33.8061 0.868085 33.8631 0.983829 33.8631 1.15745ZM 29.9295 1.33107L 29.9295 1.38894L 29.9295 1.44681L 29.3594 1.44681C 29.3594 1.33106 29.3594 1.27319 29.3594 1.21532C 29.3594 1.15745 29.3024 1.09957 29.3024 0.983828C 29.2454 0.868083 29.1314 0.752338 29.0173 0.694466C 28.9033 0.636594 28.6753 0.578723 28.5043 0.578723C 28.1622 0.578723 27.8772 0.636596 27.6491 0.810213C 27.4211 0.98383 27.2501 1.15745 27.0791 1.38894C 26.965 1.62043 26.851 1.85191 26.794 2.0834C 26.737 2.31489 26.737 2.54638 26.737 2.72C 26.737 3.18298 26.851 3.53021 27.0791 3.7617C 27.3071 3.93532 27.5921 4.05106 27.8772 4.05106C 28.1622 4.05106 28.4473 3.93532 28.7323 3.7617C 28.9603 3.53021 29.1884 3.18298 29.3024 2.72L 28.1622 2.72L 28.2762 2.25702L 29.9295 2.25702L 29.5304 3.7617C 29.5304 3.81957 29.4734 3.87745 29.3594 3.99319C 29.2454 4.05106 29.1884 4.10893 29.0744 4.16681C 29.0173 4.22468 28.9033 4.28255 28.7893 4.28255C 28.6753 4.34043 28.5613 4.34042 28.3902 4.3983C 28.2192 4.45617 28.0482 4.45617 27.8202 4.45617C 27.4781 4.45617 27.1361 4.3983 26.908 4.22468C 26.68 4.05106 26.509 3.87744 26.3949 3.58808C 26.2809 3.29872 26.2239 3.00936 26.2239 2.66213C 26.2239 2.43064 26.2809 2.14127 26.3379 1.85191C 26.395 1.56255 26.566 1.27319 26.737 0.983828C 26.908 0.694466 27.1361 0.462979 27.4781 0.289362C 27.8202 0.115745 28.1622 1.64483e-14 28.6183 1.64483e-14C 28.9033 1.64483e-14 29.1314 0.0578706 29.3024 0.115743C 29.4734 0.173615 29.6444 0.28936 29.7585 0.405105C 29.8725 0.520849 29.9295 0.636596 29.9865 0.810213C 29.8725 1.0417 29.9295 1.15745 29.9295 1.33107ZM 25.1408 1.79404C 25.1408 1.56255 25.0838 1.33106 25.0267 1.15745C 24.9127 0.983829 24.7987 0.810214 24.6277 0.752342C 24.4567 0.636597 24.2286 0.578723 24.0006 0.578723C 23.6585 0.578723 23.3735 0.694467 23.1455 0.925956C 22.9174 1.15745 22.6894 1.44681 22.5754 1.73617C 22.4614 2.0834 22.4043 2.43064 22.4043 2.77787C 22.4043 2.95149 22.4044 3.1251 22.4614 3.29872C 22.5184 3.47234 22.6324 3.64596 22.8034 3.7617C 22.9744 3.93532 23.2025 3.99319 23.5445 3.99319C 23.8866 3.99319 24.1716 3.87745 24.4567 3.64596C 24.6847 3.41447 24.9127 3.12511 25.0267 2.83574C 25.0838 2.48851 25.1408 2.14128 25.1408 1.79404ZM 25.7108 1.6783C 25.7108 1.85192 25.7108 2.02553 25.6538 2.19915C 25.6538 2.37277 25.5968 2.54638 25.5398 2.66213C 25.4258 3.00936 25.3118 3.29872 25.1408 3.53021C 24.9697 3.81957 24.7417 3.99319 24.4567 4.16681C 24.1716 4.34042 23.8296 4.3983 23.4305 4.3983C 22.9174 4.3983 22.5184 4.28255 22.2333 3.99319C 21.9483 3.70383 21.7773 3.29872 21.7773 2.77787C 21.7773 2.37277 21.8343 2.02553 21.9483 1.6783C 22.0053 1.50468 22.0623 1.33106 22.1193 1.21532C 22.1763 1.09957 22.2903 0.925958 22.4043 0.810213C 22.6324 0.578724 22.8604 0.347235 23.1455 0.23149C 23.4305 0.115746 23.7155 0.0578714 24.0576 0.0578714C 24.3426 0.0578714 24.6277 0.115746 24.8557 0.23149C 25.0837 0.347235 25.3118 0.520853 25.4828 0.752342C 25.5968 0.983831 25.7108 1.27319 25.7108 1.6783ZM 20.9221 1.21532C 20.9221 0.983829 20.8651 0.868087 20.7511 0.752342C 20.6371 0.69447 20.4661 0.636595 20.295 0.636595L 19.0979 0.636595L 18.8128 2.0834L 20.01 2.0834C 20.181 2.0834 20.295 2.02553 20.4661 1.96766C 20.5801 1.90979 20.7511 1.79404 20.8081 1.6783C 20.8651 1.62043 20.9221 1.44681 20.9221 1.21532ZM 21.4922 1.15745C 21.4922 1.33106 21.4352 1.50468 21.3782 1.6783C 21.3212 1.85192 21.2072 1.96766 21.0932 2.0834C 20.9791 2.19915 20.8651 2.25702 20.6941 2.31489C 20.9221 2.37277 21.0361 2.60425 21.0361 2.89362C 21.0361 3.00936 21.0361 3.18298 20.9791 3.29872C 20.9791 3.41447 20.9791 3.53021 20.9791 3.64596C 20.9791 3.70383 20.9791 3.81958 20.9791 3.93532C 20.9791 4.05106 20.9791 4.16681 20.9791 4.28255L 20.409 4.28255C 20.409 4.16681 20.409 3.93532 20.409 3.70383C 20.409 3.47234 20.4661 3.24085 20.4661 2.95149C 20.4661 2.66213 20.238 2.48851 19.839 2.48851L 18.6988 2.48851L 18.3567 4.22468L 17.8437 4.22468L 18.6988 0.115743L 20.352 0.115743C 20.6371 0.115743 20.9221 0.173618 21.0932 0.23149C 21.2642 0.347235 21.3782 0.462979 21.4352 0.578723C 21.4352 0.868085 21.4922 0.983829 21.4922 1.15745ZM 17.2166 1.21532C 17.2166 0.983829 17.1596 0.868086 16.9885 0.810213C 16.8745 0.752341 16.6465 0.694466 16.4185 0.694466L 15.5063 0.694466L 15.1643 2.25702L 16.1904 2.25702C 16.5895 2.25702 16.8745 2.14128 17.0455 1.96766C 17.1596 1.73617 17.2166 1.50468 17.2166 1.21532ZM 17.7867 1.09958C 17.7867 1.44681 17.7297 1.73617 17.6156 1.90979C 17.5016 2.14128 17.3306 2.25702 17.1596 2.37276C 17.0455 2.43064 16.9885 2.48851 16.8745 2.48851C 16.7605 2.48851 16.7035 2.54638 16.6465 2.54638C 16.4755 2.60426 16.3614 2.60425 16.1904 2.60425L 15.0503 2.60425L 14.7082 4.22468L 14.1951 4.22468L 15.0503 0.115743L 16.5895 0.115743C 16.9885 0.115743 17.2736 0.173616 17.5016 0.347233C 17.6726 0.578722 17.7867 0.810213 17.7867 1.09958ZM 12.4849 0.23149L 11.6297 4.34042L 11.1167 4.34042L 9.63444 1.09958L 8.95034 4.34042L 8.43726 4.34042L 9.29239 0.23149L 9.80547 0.23149L 11.2877 3.47234L 11.9148 0.23149L 12.4849 0.23149ZM 7.63914 1.79404C 7.63914 1.56255 7.58214 1.33106 7.52513 1.15745C 7.41111 0.983829 7.29709 0.810214 7.12607 0.752342C 6.95504 0.636597 6.72701 0.578723 6.49897 0.578723C 6.15692 0.578723 5.87188 0.694467 5.64384 0.925956C 5.41581 1.15745 5.18778 1.44681 5.07376 1.73617C 4.95974 2.0834 4.90273 2.43064 4.90273 2.77787C 4.90273 2.95149 4.90273 3.1251 4.95974 3.29872C 5.01675 3.47234 5.13076 3.64596 5.30179 3.7617C 5.47281 3.93532 5.70085 3.99319 6.0429 3.99319C 6.38495 3.99319 6.67 3.87745 6.95504 3.64596C 7.18308 3.41447 7.41111 3.12511 7.52513 2.83574C 7.58214 2.48851 7.63914 2.14128 7.63914 1.79404ZM 8.20923 1.6783C 8.20923 1.85192 8.20922 2.02553 8.15222 2.19915C 8.15222 2.37277 8.09521 2.54638 8.0382 2.66213C 7.92418 3.00936 7.81017 3.29872 7.63914 3.53021C 7.46812 3.81957 7.24008 3.99319 6.95504 4.16681C 6.67 4.34042 6.32795 4.3983 5.92889 4.3983C 5.41581 4.3983 5.01675 4.28255 4.7317 3.99319C 4.44666 3.70383 4.27564 3.29872 4.27564 2.77787C 4.27564 2.37277 4.33264 2.02553 4.44666 1.6783C 4.50367 1.50468 4.56068 1.33106 4.61769 1.21532C 4.6747 1.09957 4.78871 0.925958 4.90273 0.810213C 5.13077 0.578724 5.3588 0.347235 5.64384 0.23149C 5.92889 0.115746 6.21393 0.0578714 6.55598 0.0578714C 6.84103 0.0578714 7.12607 0.115746 7.3541 0.23149C 7.58213 0.347235 7.81017 0.520853 7.9812 0.752342C 8.15222 0.983831 8.20923 1.27319 8.20923 1.6783ZM 4.0476 0.23149L 3.19248 4.34042L 2.6794 4.34042L 1.19718 1.09958L 0.513077 4.34042L -8.69881e-07 4.34042L 0.855131 0.23149L 1.3682 0.23149L 2.85043 3.47234L 3.47752 0.23149L 4.0476 0.23149Z"/>
<path id="path8_fill" d="M 10.2563 10.5328C 9.57222 5.55574 6.94982 1.62043 3.70034 0C 0.963927 2.43064 -0.518296 7.00255 0.165807 11.9217C 0.849909 16.8987 3.4723 20.8919 6.72179 22.4545C 4.27042 21.1813 2.33213 18.0562 1.76205 14.2366C 1.24897 10.3591 2.33213 6.82893 4.32743 4.97702C 6.7788 6.25021 8.71709 9.37532 9.23017 13.1949C 9.74324 17.0723 8.66008 20.6025 6.66478 22.4545C 9.40119 20.0817 10.8834 15.5098 10.2563 10.5328Z"/>
<path id="path9_fill" d="M 11.1737 10.5194C 7.63914 9.01471 5.13077 6.29471 4.56068 3.63258C 6.84102 2.1279 10.4896 1.95428 14.0811 3.40109C 17.6156 4.90577 20.124 7.62577 20.6941 10.3458C 20.01 6.75769 16.8745 3.1696 12.2568 1.25982C 7.69615 -0.649971 2.96444 -0.302738 5.43676e-08 1.72279C 0.684102 5.31088 3.81957 8.89896 8.43726 10.8087C 12.9979 12.7185 17.7297 12.3713 20.6941 10.2879C 18.4138 11.7926 14.7652 11.9662 11.1737 10.5194Z"/>
<path id="path10_fill" d="M 17.6988 0.481035C 17.8698 3.25891 16.1596 6.55763 13.1381 8.9304C 10.1167 11.3032 6.52515 12.1134 3.90276 11.3032C 3.78874 8.52529 5.44199 5.22657 8.46344 2.8538C 11.5419 0.481036 15.0764 -0.329177 17.6988 0.481035C 14.2783 -0.676411 9.66062 0.249547 5.72703 3.31678C 1.79344 6.38401 -0.258867 10.7244 0.0261753 14.3704C 3.44669 15.5278 8.06438 14.6019 11.998 11.5346C 15.8745 8.46741 17.9839 4.12699 17.6988 0.481035Z"/>
<path id="path11_fill" d="M 10.2563 10.5328C 9.57222 5.61362 7.00683 1.62043 3.75734 4.41531e-07C 6.1517 1.27319 8.08999 4.3983 8.60307 8.21787C 9.11615 12.0953 8.03298 15.6255 6.03769 17.4774C 3.58632 16.2043 1.64803 13.0791 1.13495 9.25957C 0.621875 5.38212 1.70504 1.85191 3.70034 4.41531e-07C 0.963926 2.43064 -0.518296 7.00255 0.165806 11.9217C 0.849909 16.8987 3.4723 20.8919 6.72179 22.4545C 9.40119 20.0817 10.8834 15.5098 10.2563 10.5328Z"/>
<path id="path12_fill" d="M 8.87327e-07 4.46915e-07C 8.87327e-07 4.46915e-07 0.0581518 -4.49534e-07 0.0581518 0.0585776C 0.0581518 -4.49534e-07 0.0581527 4.46915e-07 8.87327e-07 4.46915e-07Z"/>
<path id="path13_fill" d="M 12.2568 1.25463C 7.69615 -0.655156 2.96444 -0.307922 4.34941e-07 1.77548C 2.28034 0.270802 5.92889 0.0971837 9.52043 1.54399C 13.055 3.04867 15.5633 5.76867 16.1334 8.48867C 13.8531 9.99335 10.2045 10.167 6.61299 8.72016C 3.07846 7.21548 0.570086 4.49548 4.34941e-07 1.83335C 0.684103 5.42144 3.81957 9.00952 8.43726 10.9193C 12.9979 12.8291 17.7297 12.4819 20.6941 10.4563C 20.01 6.7525 16.8745 3.16442 12.2568 1.25463Z"/>
<path id="path14_fill" d="M 17.6982 0.481036C 14.2777 -0.676411 9.66002 0.249546 5.72644 3.31678C 1.84986 6.38401 -0.259458 10.7244 0.0255845 14.3704C -0.145441 11.5925 1.56481 8.2938 4.58627 5.92103C 7.60772 3.54827 11.1993 2.73806 13.8217 3.54827C 13.9927 6.32614 12.2824 9.62486 9.26097 11.9976C 6.23952 14.3704 2.64798 15.1806 0.0825922 14.3704C 3.5031 15.5278 8.1208 14.6019 12.0544 11.5346C 15.874 8.46742 17.9833 4.12699 17.6982 0.481036Z"/>
<path id="path15_fill" d="M 21.7203 19.8502L 24.7987 19.8502L 26.3379 22.5702L 24.7987 25.2323L 21.7203 25.2323L 20.124 22.5702L 21.7203 19.8502ZM 46.4049 26.9685L 46.4049 25.4638L 26.395 25.2902L 27.8202 22.8596L 28.0482 22.7438L 27.9912 22.6281L 38.5378 4.3983L 37.2836 3.64596L 27.1361 21.1234L 15.3353 0L 14.0811 0.75234L 23.9436 18.4034L 21.0932 18.4034L 20.9221 18.2877L 20.8651 18.4034L 0 18.2298L 0 19.6766L 20.01 19.8502L 7.86718 40.8L 9.12137 41.5523L 19.2689 24.0749L 31.0697 45.1983L 32.3238 44.4459L 22.5184 26.7949L 46.4049 26.9685Z"/>
</defs>
</svg>
