<svg width="89" height="75" viewBox="0 0 89 75" version="1.1" xmlns="http://www.w3.org/2000/svg" xmlns:xlink="http://www.w3.org/1999/xlink">
<title>Group 5</title>
<desc>Created using Figma</desc>
<g id="Canvas" transform="translate(22518 18630)">
<g id="Group 5">
<g id="ic_navigation">
<g id="Union">
<use xlink:href="#path0_fill" transform="translate(-22518 -18629)" fill="#C62828"/>
</g>
<g id="Ellipse">
<use xlink:href="#path1_fill" transform="translate(-22509.2 -18621.9)" fill="#FFFFFF"/>
</g>
</g>
<g id="ic_navigation">
<g id="Union">
<use xlink:href="#path2_fill" transform="translate(-22468.4 -18620)" fill="#C62828"/>
</g>
<g id="Ellipse">
<use xlink:href="#path3_fill" transform="translate(-22459.2 -18612.6)" fill="#FFFFFF"/>
</g>
</g>
<g id="Union" opacity="0.6" filter="url(#filter0_f)">
<use xlink:href="#path4_fill" transform="translate(-22499.9 -18626.7)" fill="#333333"/>
<use xlink:href="#path5_fill" transform="translate(-22499.9 -18626.7)" fill="#333333"/>
</g>
<g id="ic_navigation">
<g id="Union">
<use xlink:href="#path6_fill" transform="translate(-22499.9 -18626.7)" fill="#C62828"/>
</g>
<g id="Ellipse">
<use xlink:href="#path7_fill" transform="translate(-22487.4 -18616.6)" fill="#FFFFFF"/>
</g>
</g>
</g>
</g>
<defs>
<filter id="filter0_f" filterUnits="userSpaceOnUse" x="-22503" y="-18630" width="60" height="75" color-interpolation-filters="sRGB">
<feFlood flood-opacity="0" result="BackgroundImageFix"/>
<feBlend mode="normal" in="SourceGraphic" in2="BackgroundImageFix" result="shape"/>
<feGaussianBlur stdDeviation="1.5" result="effect1_foregroundBlur"/>
</filter>
<path id="path0_fill" fill-rule="evenodd" d="M 0 18.1698C 0 8.08934 8.46714 0 18.8104 0C 29.1513 0 37.6184 8.08934 37.6184 18.1698C 37.6184 22.2191 36.2444 25.9581 33.9323 28.9748L 33.8784 29.0466L 20.5323 46.5241C 20.4074 46.7024 20.2531 46.8668 20.0669 47.0034C 19.9983 47.0543 19.9273 47.0983 19.8563 47.14C 19.1509 47.5428 18.2422 47.515 17.5515 47.0034C 17.3727 46.8691 17.2209 46.7117 17.0984 46.5403L 3.74004 29.0466C 1.39609 26.0183 0 22.2515 0 18.1698Z"/>
<path id="path1_fill" d="M 20.0645 9.4831C 20.0645 14.7205 15.5729 18.9662 10.0322 18.9662C 4.49158 18.9662 0 14.7205 0 9.4831C 0 4.24573 4.49158 0 10.0322 0C 15.5729 0 20.0645 4.24573 20.0645 9.4831Z"/>
<path id="path2_fill" fill-rule="evenodd" d="M 0 18.8187C 0 8.37824 8.87034 0 19.7062 0C 30.5394 0 39.4098 8.37824 39.4098 18.8187C 39.4098 23.0126 37.9703 26.8852 35.5481 30.0097L 35.4916 30.084L 21.51 48.1857C 21.3791 48.3703 21.2175 48.5406 21.0225 48.6821C 20.9506 48.7348 20.8762 48.7804 20.8018 48.8235C 20.0628 49.2408 19.1109 49.212 18.3873 48.6821C 18.2 48.543 18.0409 48.3799 17.9126 48.2025L 3.91814 30.084C 1.46257 26.9475 0 23.0462 0 18.8187Z"/>
<path id="path3_fill" d="M 21.0199 9.82178C 21.0199 15.2462 16.3144 19.6436 10.51 19.6436C 4.70547 19.6436 0 15.2462 0 9.82178C 0 4.39736 4.70547 0 10.51 0C 16.3144 0 21.0199 4.39736 21.0199 9.82178Z"/>
<path id="path4_fill" fill-rule="evenodd" d="M 0 25.9578C 0 11.5567 12.0959 0 26.872 0C 41.6447 0 53.7406 11.5567 53.7406 25.9578C 53.7406 31.7428 51.7777 37.0845 48.4746 41.3943L 48.3977 41.4968L 29.3318 66.4657C 29.1534 66.7204 28.9329 66.9552 28.667 67.1504C 28.569 67.2231 28.4676 67.286 28.3661 67.3455C 27.3584 67.921 26.0603 67.8814 25.0736 67.1504C 24.8182 66.9585 24.6012 66.7336 24.4263 66.4889L 5.34292 41.4968C 1.99441 37.1705 0 31.7891 0 25.9578ZM 10.1925 38.057C 10.161 38.0106 10.126 37.9676 10.091 37.9213C 7.49828 34.5774 5.97273 30.4396 5.97273 25.9578C 5.97273 14.9403 15.2625 5.89079 26.872 5.89079C 38.4816 5.89079 47.7714 14.9403 47.7714 25.9578C 47.7714 30.4396 46.2423 34.5774 43.6531 37.9213L 43.5971 37.9974L 26.872 59.9002L 10.1925 38.057Z"/>
<path id="path5_fill" d="M 10.1925 38.057C 10.161 38.0106 10.126 37.9676 10.091 37.9213C 7.49828 34.5774 5.97273 30.4396 5.97273 25.9578C 5.97273 14.9403 15.2625 5.89079 26.872 5.89079C 38.4816 5.89079 47.7714 14.9403 47.7714 25.9578C 47.7714 30.4396 46.2423 34.5774 43.6531 37.9213L 43.5971 37.9974L 26.872 59.9002L 10.1925 38.057Z"/>
<path id="path6_fill" fill-rule="evenodd" d="M 0 25.9578C 0 11.5567 12.0959 0 26.872 0C 41.6447 0 53.7406 11.5567 53.7406 25.9578C 53.7406 31.7428 51.7777 37.0845 48.4746 41.3943L 48.3977 41.4968L 29.3318 66.4657C 29.1534 66.7204 28.9329 66.9552 28.667 67.1504C 28.569 67.2231 28.4676 67.286 28.3661 67.3455C 27.3584 67.921 26.0603 67.8813 25.0736 67.1504C 24.8182 66.9585 24.6012 66.7336 24.4263 66.4889L 5.34292 41.4968C 1.99441 37.1705 0 31.7891 0 25.9578Z"/>
<path id="path7_fill" d="M 28.6635 13.5478C 28.6635 21.0301 22.247 27.0956 14.3318 27.0956C 6.41655 27.0956 0 21.0301 0 13.5478C 0 6.06557 6.41655 0 14.3318 0C 22.247 0 28.6635 6.06557 28.6635 13.5478Z"/>
</defs>
</svg>
