<svg width="30" height="300" viewBox="0 0 30 300" version="1.1" xmlns="http://www.w3.org/2000/svg" xmlns:xlink="http://www.w3.org/1999/xlink">
<title>Group 7</title>
<desc>Created using Figma</desc>
<g id="Canvas" transform="translate(24700 18663)">
<g id="Group 7">
<g id="ic_person_outline">
<g id="Icon 24px">
<g id="Shape">
<use xlink:href="#path0_fill" transform="translate(-24695 -18478)" fill="#828282"/>
</g>
</g>
</g>
<g id="ic_people_outline">
<g id="Icon 24px">
<g id="Shape">
<use xlink:href="#path1_fill" transform="translate(-24698.8 -18446.8)" fill="#828282"/>
</g>
</g>
</g>
<g id="ic_room">
<g id="Icon 24px">
<g id="Path">
<mask id="mask0_outline_ins">
<use xlink:href="#path2_fill" fill="white" transform="translate(-24693.8 -18420.5)"/>
</mask>
<g mask="url(#mask0_outline_ins)">
<use xlink:href="#path3_stroke_2x" transform="translate(-24693.8 -18420.5)" fill="#828282"/>
</g>
</g>
<g id="Path">
<use xlink:href="#path4_stroke" transform="translate(-24688.1 -18414.9)" fill="#828282"/>
</g>
</g>
</g>
<g id="ic_settings_applications">
<g id="Icon 24px">
<g id="Path">
<use xlink:href="#path5_stroke" transform="translate(-24687.9 -18380.9)" fill="#828282"/>
</g>
<g id="Path">
<use xlink:href="#path6_stroke" transform="translate(-24695 -18388)" fill="#828282"/>
</g>
</g>
</g>
<g id="ic_build">
<g id="Icon 24px">
<g id="Shape">
<use xlink:href="#path7_stroke" transform="matrix(-1 0 0 1 -24675 -18508)" fill="#828282"/>
</g>
</g>
</g>
<g id="ic_list">
<g id="Icon 24px">
<g id="Shape">
<use xlink:href="#path8_fill" transform="translate(-24696.2 -18564.2)" fill="#828282"/>
</g>
</g>
</g>
<g id="ic_list">
<g id="Icon 24px">
<g id="Vector">
<use xlink:href="#path9_stroke" transform="translate(-24693.8 -18538.6)" fill="#828282"/>
</g>
<g id="Vector 2.1">
<use xlink:href="#path10_stroke" transform="matrix(1 -1.95943e-16 3.06162e-16 1 -24690 -18530.5)" fill="#828282"/>
</g>
<g id="Vector 2.2">
<use xlink:href="#path10_stroke" transform="matrix(1 -1.95943e-16 3.06162e-16 1 -24690 -18526.8)" fill="#828282"/>
</g>
<g id="Vector 2.3">
<use xlink:href="#path10_stroke" transform="matrix(1 -1.95943e-16 3.06162e-16 1 -24690 -18523)" fill="#828282"/>
</g>
</g>
</g>
<g id="ic_list">
<g id="Icon 24px">
<g id="Vector">
<use xlink:href="#path11_stroke" transform="translate(-24695.4 -18597.4)" fill="#828282"/>
</g>
</g>
</g>
<g id="ic_notifications_none">
<g id="Icon 24px">
<g id="Shape">
<use xlink:href="#path12_fill" transform="translate(-24695 -18659.9)" fill="#828282"/>
</g>
</g>
</g>
<g id="ic_mail_outline">
<g id="Icon 24px">
<g id="Shape">
<use xlink:href="#path13_fill" transform="translate(-24697.5 -18628)" fill="#828282"/>
</g>
</g>
</g>
</g>
</g>
<defs>
<path id="path0_fill" fill-rule="evenodd" d="M 10 2.375C 11.45 2.375 12.625 3.55 12.625 5C 12.625 6.45 11.45 7.625 10 7.625C 8.55 7.625 7.375 6.45 7.375 5C 7.375 3.55 8.55 2.375 10 2.375ZM 10 13.625C 13.7125 13.625 17.625 15.45 17.625 16.25L 17.625 17.625L 2.375 17.625L 2.375 16.25C 2.375 15.45 6.2875 13.625 10 13.625ZM 10 0C 7.2375 0 5 2.2375 5 5C 5 7.7625 7.2375 10 10 10C 12.7625 10 15 7.7625 15 5C 15 2.2375 12.7625 0 10 0ZM 10 11.25C 6.6625 11.25 0 12.925 0 16.25L 0 20L 20 20L 20 16.25C 20 12.925 13.3375 11.25 10 11.25Z"/>
<path id="path1_fill" fill-rule="evenodd" d="M 19.375 10C 17.875 10 15.5375 10.425 13.75 11.25C 11.9625 10.4125 9.625 10 8.125 10C 5.4125 10 0 11.35 0 14.0626L 0 17.5002L 27.5 17.5002L 27.5 14.0626C 27.5 11.35 22.0875 10 19.375 10ZM 14.375 15.6251L 1.875 15.6251L 1.875 14.0626C 1.875 13.3875 5.075 11.875 8.125 11.875C 11.175 11.875 14.375 13.3875 14.375 14.0626L 14.375 15.6251ZM 25.6246 15.6251L 16.2496 15.6251L 16.2496 14.0626C 16.2496 13.4875 15.9996 12.9875 15.5996 12.5375C 16.6996 12.1625 18.0496 11.875 19.3746 11.875C 22.4246 11.875 25.6246 13.3875 25.6246 14.0626L 25.6246 15.6251ZM 8.125 8.75027C 10.5375 8.75027 12.5 6.78771 12.5 4.37514C 12.5 1.96256 10.5375 0 8.125 0C 5.7125 0 3.75 1.96256 3.75 4.37514C 3.75 6.78771 5.7125 8.75027 8.125 8.75027ZM 8.125 1.87305C 9.5 1.87305 10.625 2.99808 10.625 4.37313C 10.625 5.74817 9.5 6.8732 8.125 6.8732C 6.75 6.8732 5.625 5.74817 5.625 4.37313C 5.625 2.99808 6.75 1.87305 8.125 1.87305ZM 19.375 8.75027C 21.7875 8.75027 23.75 6.78771 23.75 4.37514C 23.75 1.96256 21.7875 0 19.375 0C 16.9625 0 15 1.96256 15 4.37514C 15 6.78771 16.9625 8.75027 19.375 8.75027ZM 19.375 1.87305C 20.75 1.87305 21.875 2.99808 21.875 4.37313C 21.875 5.74817 20.75 6.8732 19.375 6.8732C 18 6.8732 16.875 5.74817 16.875 4.37313C 16.875 2.99808 18 1.87305 19.375 1.87305Z"/>
<path id="path2_fill" fill-rule="evenodd" d="M 8.75 0C 3.9125 0 0 3.9125 0 8.75C 0 15.3125 8.75 25 8.75 25C 8.75 25 17.5 15.3125 17.5 8.75C 17.5 3.9125 13.5875 0 8.75 0Z"/>
<path id="path3_stroke_2x" d="M 8.75 25L 7.56264 26.0725L 8.75 27.387L 9.93736 26.0725L 8.75 25ZM 8.75 -1.6C 3.02884 -1.6 -1.6 3.02884 -1.6 8.75L 1.6 8.75C 1.6 4.79616 4.79616 1.6 8.75 1.6L 8.75 -1.6ZM -1.6 8.75C -1.6 10.7144 -0.95436 12.789 -0.0929777 14.7118C 0.777799 16.6555 1.9247 18.5649 3.04866 20.2308C 4.17569 21.9012 5.29955 23.3559 6.14048 24.3921C 6.56165 24.911 6.91361 25.3271 7.16185 25.6153C 7.28601 25.7594 7.38434 25.8716 7.45255 25.9488C 7.48665 25.9874 7.51323 26.0173 7.53176 26.038C 7.54102 26.0484 7.54827 26.0565 7.55344 26.0622C 7.55602 26.0651 7.55809 26.0674 7.55962 26.0691C 7.56039 26.07 7.56103 26.0707 7.56153 26.0712C 7.56178 26.0715 7.56206 26.0718 7.56218 26.072C 7.56243 26.0722 7.56264 26.0725 8.75 25C 9.93736 23.9275 9.93751 23.9277 9.93762 23.9278C 9.93761 23.9278 9.93769 23.9279 9.93767 23.9279C 9.93764 23.9278 9.93748 23.9277 9.93719 23.9273C 9.93661 23.9267 9.9355 23.9255 9.93388 23.9237C 9.93063 23.9201 9.92533 23.9141 9.91804 23.906C 9.90345 23.8897 9.8809 23.8643 9.85092 23.8304C 9.79095 23.7625 9.7013 23.6602 9.5862 23.5266C 9.35592 23.2593 9.02429 22.8673 8.62514 22.3755C 7.82545 21.3902 6.76181 20.0128 5.70134 18.4411C 4.6378 16.8647 3.5972 15.1219 2.82735 13.4035C 2.04811 11.6641 1.6 10.0669 1.6 8.75L -1.6 8.75ZM 8.75 25C 9.93736 26.0725 9.93757 26.0722 9.93782 26.072C 9.93794 26.0718 9.93822 26.0715 9.93847 26.0712C 9.93897 26.0707 9.93961 26.07 9.94038 26.0691C 9.94191 26.0674 9.94398 26.0651 9.94656 26.0622C 9.95173 26.0565 9.95898 26.0484 9.96824 26.038C 9.98677 26.0173 10.0133 25.9874 10.0475 25.9488C 10.1157 25.8716 10.214 25.7594 10.3382 25.6153C 10.5864 25.3271 10.9383 24.911 11.3595 24.3921C 12.2004 23.3559 13.3243 21.9012 14.4513 20.2308C 15.5753 18.5649 16.7222 16.6555 17.593 14.7118C 18.4544 12.789 19.1 10.7144 19.1 8.75L 15.9 8.75C 15.9 10.0669 15.4519 11.6641 14.6726 13.4035C 13.9028 15.1219 12.8622 16.8647 11.7987 18.4411C 10.7382 20.0128 9.67455 21.3902 8.87486 22.3755C 8.47571 22.8673 8.14408 23.2593 7.9138 23.5266C 7.7987 23.6602 7.70905 23.7625 7.64908 23.8304C 7.6191 23.8643 7.59655 23.8897 7.58196 23.906C 7.57467 23.9141 7.56937 23.9201 7.56612 23.9237C 7.5645 23.9255 7.56339 23.9267 7.56281 23.9273C 7.56252 23.9277 7.56236 23.9278 7.56233 23.9279C 7.56231 23.9279 7.56239 23.9278 7.56238 23.9278C 7.56249 23.9277 7.56264 23.9275 8.75 25ZM 19.1 8.75C 19.1 3.02884 14.4712 -1.6 8.75 -1.6L 8.75 1.6C 12.7038 1.6 15.9 4.79616 15.9 8.75L 19.1 8.75Z"/>
<path id="path4_stroke" d="M 3.125 5.45C 1.84183 5.45 0.8 4.40817 0.8 3.125L -0.8 3.125C -0.8 5.29183 0.958172 7.05 3.125 7.05L 3.125 5.45ZM 0.8 3.125C 0.8 1.84183 1.84183 0.8 3.125 0.8L 3.125 -0.8C 0.958172 -0.8 -0.8 0.958172 -0.8 3.125L 0.8 3.125ZM 3.125 0.8C 4.40817 0.8 5.45 1.84183 5.45 3.125L 7.05 3.125C 7.05 0.958172 5.29183 -0.8 3.125 -0.8L 3.125 0.8ZM 5.45 3.125C 5.45 4.40817 4.40817 5.45 3.125 5.45L 3.125 7.05C 5.29183 7.05 7.05 5.29183 7.05 3.125L 5.45 3.125Z"/>
<path id="path5_stroke" d="M 2.93749 -0.8C 0.901101 -0.8 -0.8 0.823117 -0.8 2.85714L 0.8 2.85714C 0.8 1.74831 1.74264 0.8 2.93749 0.8L 2.93749 -0.8ZM -0.8 2.85714C -0.8 4.89117 0.901101 6.51429 2.93749 6.51429L 2.93749 4.91429C 1.74264 4.91429 0.8 3.96597 0.8 2.85714L -0.8 2.85714ZM 2.93749 6.51429C 4.97388 6.51429 6.67498 4.89117 6.67498 2.85714L 5.07498 2.85714C 5.07498 3.96597 4.13234 4.91429 2.93749 4.91429L 2.93749 6.51429ZM 6.67498 2.85714C 6.67498 0.823117 4.97388 -0.8 2.93749 -0.8L 2.93749 0.8C 4.13234 0.8 5.07498 1.74831 5.07498 2.85714L 6.67498 2.85714Z"/>
<path id="path6_stroke" d="M 17.6375 10.9714L 16.8452 10.8604L 16.7802 11.3239L 17.1525 11.6076L 17.6375 10.9714ZM 19.8112 12.6286L 20.3196 12.0109L 20.3081 12.0014L 20.2962 11.9924L 19.8112 12.6286ZM 19.9287 13.2714L 19.2477 12.8514L 19.2411 12.8625L 19.9287 13.2714ZM 17.8725 16.7286L 18.5534 17.1486L 18.56 17.1375L 17.8725 16.7286ZM 17.2409 16.9429L 16.9494 17.6879L 16.958 17.6912L 16.9668 17.6944L 17.2409 16.9429ZM 14.6853 15.9429L 14.9768 15.1979L 14.5598 15.0347L 14.2026 15.3049L 14.6853 15.9429ZM 12.9522 16.9286L 12.6444 16.1902L 12.2253 16.3648L 12.1604 16.8142L 12.9522 16.9286ZM 12.5703 19.5714L 13.3575 19.7142L 13.36 19.7001L 13.3621 19.6858L 12.5703 19.5714ZM 7.4297 19.5857L 6.63792 19.7001L 6.64061 19.7187L 6.64416 19.7371L 7.4297 19.5857ZM 7.04782 16.9429L 7.8396 16.8285L 7.77405 16.3748L 7.3495 16.2019L 7.04782 16.9429ZM 5.31471 15.9571L 5.79736 15.3191L 5.44022 15.049L 5.02319 15.2121L 5.31471 15.9571ZM 2.75909 16.9571L 3.03322 17.7087L 3.04195 17.7055L 3.05061 17.7021L 2.75909 16.9571ZM 2.12753 16.7429L 1.43987 17.1519L 1.44666 17.1629L 2.12753 16.7429ZM 0.0712907 13.2857L 0.758953 12.8767L 0.752165 12.8657L 0.0712907 13.2857ZM 0.18879 12.6429L -0.296222 12.0066L -0.308076 12.0157L -0.319584 12.0252L 0.18879 12.6429ZM 2.36253 10.9857L 2.84754 11.6219L 3.21722 11.3401L 3.15543 10.8794L 2.36253 10.9857ZM 2.36253 9.02857L 3.15478 9.13964L 3.21977 8.67613L 2.84754 8.39236L 2.36253 9.02857ZM 0.18879 7.37143L -0.319584 7.98913L -0.308076 7.9986L -0.296222 8.00764L 0.18879 7.37143ZM 0.0712907 6.72857L 0.752254 7.14864L 0.758863 7.13753L 0.0712907 6.72857ZM 2.12753 3.27143L 1.44657 2.85136L 1.43996 2.86247L 2.12753 3.27143ZM 2.75909 3.05714L 3.05061 2.31215L 3.04195 2.30876L 3.03322 2.30558L 2.75909 3.05714ZM 5.31471 4.05714L 5.02319 4.80214L 5.44022 4.96532L 5.79736 4.69515L 5.31471 4.05714ZM 7.04782 3.07143L 7.35563 3.80984L 7.77468 3.63516L 7.8396 3.18583L 7.04782 3.07143ZM 7.4297 0.428571L 6.64255 0.285757L 6.63998 0.299919L 6.63792 0.314166L 7.4297 0.428571ZM 12.5703 0.414286L 13.3621 0.29988L 13.3594 0.281294L 13.3558 0.262856L 12.5703 0.414286ZM 12.9522 3.05714L 12.1604 3.17155L 12.226 3.62523L 12.6505 3.79808L 12.9522 3.05714ZM 14.6853 4.04286L 14.2026 4.68086L 14.5598 4.95104L 14.9768 4.78785L 14.6853 4.04286ZM 17.2409 3.04286L 16.9668 2.29129L 16.958 2.29447L 16.9494 2.29786L 17.2409 3.04286ZM 17.8725 3.25714L 18.5601 2.84813L 18.5533 2.83713L 17.8725 3.25714ZM 19.9287 6.71429L 19.241 7.12329L 19.2478 7.1343L 19.9287 6.71429ZM 19.8112 7.35714L 20.2962 7.99335L 20.3081 7.98432L 20.3196 7.97484L 19.8112 7.35714ZM 17.6375 9.01429L 17.1525 8.37808L 16.7828 8.65989L 16.8446 9.12062L 17.6375 9.01429ZM 16.9109 10C 16.9109 10.2822 16.8856 10.5724 16.8452 10.8604L 18.4297 11.0825C 18.4775 10.7419 18.5109 10.375 18.5109 10L 16.9109 10ZM 17.1525 11.6076L 19.3262 13.2648L 20.2962 11.9924L 18.1225 10.3352L 17.1525 11.6076ZM 19.3028 13.2463C 19.2135 13.1727 19.1512 13.008 19.2478 12.8514L 20.6096 13.6914C 20.9706 13.1062 20.7908 12.3987 20.3196 12.0109L 19.3028 13.2463ZM 19.2411 12.8625L 17.1849 16.3196L 18.56 17.1375L 20.6163 13.6804L 19.2411 12.8625ZM 17.1916 16.3086C 17.2667 16.1869 17.4077 16.1522 17.515 16.1913L 16.9668 17.6944C 17.5441 17.905 18.2139 17.6988 18.5533 17.1486L 17.1916 16.3086ZM 17.5324 16.1979L 14.9768 15.1979L 14.3938 16.6879L 16.9494 17.6879L 17.5324 16.1979ZM 14.2026 15.3049C 13.7327 15.6604 13.205 15.9564 12.6444 16.1902L 13.26 17.667C 13.9331 17.3864 14.5804 17.0254 15.1679 16.5809L 14.2026 15.3049ZM 12.1604 16.8142L 11.7785 19.457L 13.3621 19.6858L 13.744 17.043L 12.1604 16.8142ZM 11.7832 19.4286C 11.7967 19.3539 11.835 19.2984 11.8771 19.2632C 11.9195 19.2277 11.9811 19.2 12.0562 19.2L 12.0562 20.8C 12.694 20.8 13.2446 20.3364 13.3575 19.7142L 11.7832 19.4286ZM 12.0562 19.2L 7.94376 19.2L 7.94376 20.8L 12.0562 20.8L 12.0562 19.2ZM 7.94376 19.2C 8.0182 19.2 8.07662 19.2271 8.11578 19.2591C 8.15346 19.2898 8.19818 19.3458 8.21524 19.4343L 6.64416 19.7371C 6.76215 20.3492 7.31777 20.8 7.94376 20.8L 7.94376 19.2ZM 8.22148 19.4713L 7.8396 16.8285L 6.25605 17.0573L 6.63792 19.7001L 8.22148 19.4713ZM 7.3495 16.2019C 6.78337 15.9714 6.27128 15.6777 5.79736 15.3191L 4.83206 16.5951C 5.41563 17.0366 6.04916 17.4 6.74615 17.6838L 7.3495 16.2019ZM 5.02319 15.2121L 2.46758 16.2121L 3.05061 17.7021L 5.60622 16.7021L 5.02319 15.2121ZM 2.48496 16.2056C 2.59227 16.1664 2.73334 16.2012 2.80841 16.3228L 1.44666 17.1629C 1.7861 17.7131 2.45592 17.9193 3.03322 17.7087L 2.48496 16.2056ZM 2.8151 16.3339L 0.758863 12.8768L -0.616282 13.6947L 1.43996 17.1518L 2.8151 16.3339ZM 0.752165 12.8657C 0.848784 13.0223 0.786523 13.187 0.697165 13.2606L -0.319584 12.0252C -0.790816 12.413 -0.970577 13.1205 -0.609583 13.7057L 0.752165 12.8657ZM 0.673802 13.2791L 2.84754 11.6219L 1.87752 10.3495L -0.296222 12.0066L 0.673802 13.2791ZM 3.15543 10.8794C 3.11434 10.5729 3.08909 10.2819 3.08909 10L 1.48909 10C 1.48909 10.3753 1.5226 10.7414 1.56963 11.092L 3.15543 10.8794ZM 3.08909 10C 3.08909 9.71785 3.11441 9.42761 3.15478 9.13964L 1.57028 8.9175C 1.52253 9.25811 1.48909 9.62501 1.48909 10L 3.08909 10ZM 2.84754 8.39236L 0.673802 6.73522L -0.296222 8.00764L 1.87752 9.66478L 2.84754 8.39236ZM 0.697165 6.75373C 0.786523 6.82727 0.848784 6.99196 0.752165 7.14858L -0.609583 6.30856C -0.970577 6.89376 -0.790816 7.6013 -0.319584 7.98913L 0.697165 6.75373ZM 0.758863 7.13753L 2.8151 3.68038L 1.43996 2.86247L -0.616282 6.31962L 0.758863 7.13753ZM 2.80841 3.69144C 2.73334 3.81313 2.59227 3.84785 2.48496 3.80871L 3.03322 2.30558C 2.45592 2.09501 1.7861 2.30115 1.44666 2.85142L 2.80841 3.69144ZM 2.46758 3.80214L 5.02319 4.80214L 5.60622 3.31215L 3.05061 2.31215L 2.46758 3.80214ZM 5.79736 4.69515C 6.26728 4.33965 6.79496 4.04356 7.35563 3.80984L 6.74002 2.33301C 6.06695 2.61358 5.41963 2.97464 4.83206 3.41914L 5.79736 4.69515ZM 7.8396 3.18583L 8.22148 0.542977L 6.63792 0.314166L 6.25605 2.95702L 7.8396 3.18583ZM 8.21685 0.571386C 8.20329 0.646107 8.16501 0.701624 8.1229 0.736841C 8.08049 0.772317 8.01888 0.8 7.94376 0.8L 7.94376 -0.8C 7.30603 -0.8 6.75542 -0.336353 6.64255 0.285757L 8.21685 0.571386ZM 7.94376 0.8L 12.0562 0.8L 12.0562 -0.8L 7.94376 -0.8L 7.94376 0.8ZM 12.0562 0.8C 11.9818 0.8 11.9234 0.772944 11.8842 0.740946C 11.8465 0.71016 11.8018 0.654181 11.7848 0.565716L 13.3558 0.262856C 13.2379 -0.349189 12.6822 -0.8 12.0562 -0.8L 12.0562 0.8ZM 11.7785 0.528692L 12.1604 3.17155L 13.744 2.94274L 13.3621 0.29988L 11.7785 0.528692ZM 12.6505 3.79808C 13.2166 4.02859 13.7287 4.32233 14.2026 4.68086L 15.1679 3.40485C 14.5844 2.96338 13.9508 2.59999 13.2539 2.3162L 12.6505 3.79808ZM 14.9768 4.78785L 17.5324 3.78785L 16.9494 2.29786L 14.3938 3.29786L 14.9768 4.78785ZM 17.515 3.79442C 17.4077 3.83356 17.2667 3.79885 17.1916 3.67716L 18.5533 2.83713C 18.2139 2.28687 17.5441 2.08072 16.9668 2.29129L 17.515 3.79442ZM 17.1849 3.6661L 19.2411 7.12324L 20.6163 6.30533L 18.56 2.84819L 17.1849 3.6661ZM 19.2478 7.1343C 19.1512 6.97767 19.2135 6.81298 19.3028 6.73944L 20.3196 7.97484C 20.7908 7.58702 20.9706 6.87947 20.6096 6.29427L 19.2478 7.1343ZM 19.3262 6.72093L 17.1525 8.37808L 18.1225 9.6505L 20.2962 7.99335L 19.3262 6.72093ZM 16.8446 9.12062C 16.8857 9.42707 16.9109 9.71815 16.9109 10L 18.5109 10C 18.5109 9.62471 18.4774 9.25865 18.4304 8.90796L 16.8446 9.12062Z"/>
<path id="path7_stroke" d="M 19.7381 16.3471L 19.1707 16.911L 19.2108 16.9514L 19.2562 16.9857L 19.7381 16.3471ZM 11.4777 8.03662L 10.7321 7.74662L 10.5435 8.23156L 10.9103 8.60059L 11.4777 8.03662ZM 10.1161 1.73529L 10.6835 1.17132L 10.1161 1.73529ZM 3.39889 0.548086L 3.0639 -0.178399C 2.82671 -0.0690294 2.65785 0.14924 2.61156 0.406294C 2.56526 0.663347 2.64737 0.926814 2.8315 1.11206L 3.39889 0.548086ZM 7.30214 4.475L 7.86953 5.03897C 8.17968 4.72695 8.17968 4.22305 7.86953 3.91102L 7.30214 4.475ZM 4.57894 7.2147L 4.01807 7.78516C 4.33191 8.09373 4.83606 8.09083 5.14634 7.77868L 4.57894 7.2147ZM 0.584918 3.28779L 1.14579 2.71733C 0.96303 2.53765 0.70524 2.4564 0.452476 2.49883C 0.199713 2.54126 -0.0174173 2.70223 -0.131485 2.93175L 0.584918 3.28779ZM 1.76497 10.0457L 2.33236 9.48176L 1.76497 10.0457ZM 8.02833 11.4156L 8.59572 10.8516L 8.22482 10.4785L 7.73528 10.6712L 8.02833 11.4156ZM 16.2887 19.726L 16.8561 19.1621L 16.2887 19.726ZM 17.5595 19.726L 16.9921 19.1621L 17.5595 19.726ZM 19.6473 17.6256L 19.1457 17.0024L 19.1112 17.0302L 19.0799 17.0616L 19.6473 17.6256ZM 20.3055 15.7831L 12.0451 7.47264L 10.9103 8.60059L 19.1707 16.911L 20.3055 15.7831ZM 12.2233 8.32661C 13.1542 5.93313 12.6326 3.13222 10.6835 1.17132L 9.54872 2.29927C 11.049 3.80866 11.4351 5.93922 10.7321 7.74662L 12.2233 8.32661ZM 10.6835 1.17132C 8.61742 -0.90729 5.52939 -1.31527 3.0639 -0.178399L 3.73388 1.27457C 5.62551 0.402321 7.98387 0.724933 9.54872 2.29927L 10.6835 1.17132ZM 2.8315 1.11206L 6.73475 5.03897L 7.86953 3.91102L 3.96628 -0.0158874L 2.8315 1.11206ZM 6.73475 3.91102L 4.01155 6.65073L 5.14634 7.77868L 7.86953 5.03897L 6.73475 3.91102ZM 5.13981 6.64425L 1.14579 2.71733L 0.024046 3.85825L 4.01807 7.78516L 5.13981 6.64425ZM -0.131485 2.93175C -1.37899 5.44188 -0.850387 8.54933 1.19758 10.6097L 2.33236 9.48176C 0.749398 7.8892 0.370264 5.51724 1.30132 3.64384L -0.131485 2.93175ZM 1.19758 10.6097C 3.14745 12.5714 5.93657 13.0988 8.32138 12.16L 7.73528 10.6712C 5.94451 11.3762 3.83188 10.9904 2.33236 9.48176L 1.19758 10.6097ZM 7.46093 11.9796L 15.7213 20.29L 16.8561 19.1621L 8.59572 10.8516L 7.46093 11.9796ZM 15.7213 20.29C 16.3972 20.97 17.451 20.97 18.1269 20.29L 16.9921 19.1621C 16.9724 19.1819 16.9564 19.1908 16.9468 19.1949C 16.937 19.199 16.9296 19.2 16.9241 19.2C 16.9186 19.2 16.9112 19.199 16.9014 19.1949C 16.8918 19.1908 16.8758 19.1819 16.8561 19.1621L 15.7213 20.29ZM 18.1269 20.29L 20.2147 18.1896L 19.0799 17.0616L 16.9921 19.1621L 18.1269 20.29ZM 20.1489 18.2488C 20.9216 17.6269 21.0839 16.3604 20.2199 15.7085L 19.2562 16.9857C 19.2255 16.9625 19.2101 16.9368 19.2039 16.9221C 19.1982 16.9088 19.2004 16.9057 19.1999 16.9143C 19.1992 16.93 19.1906 16.9663 19.1457 17.0024L 20.1489 18.2488Z"/>
<path id="path8_fill" fill-rule="evenodd" d="M 0 7.5L 2.5 7.5L 2.5 5L 0 5L 0 7.5ZM 0 12.5L 2.5 12.5L 2.5 10L 0 10L 0 12.5ZM 0 2.5L 2.5 2.5L 2.5 0L 0 0L 0 2.5ZM 5 7.5L 22.5 7.5L 22.5 5L 5 5L 5 7.5ZM 5 12.5L 22.5 12.5L 22.5 10L 5 10L 5 12.5ZM 5 0L 5 2.5L 22.5 2.5L 22.5 0L 5 0Z"/>
<path id="path9_stroke" d="M 0 0L 0 -0.8C -0.441828 -0.8 -0.8 -0.441828 -0.8 1.77636e-16L 0 0ZM 17.5 20.6245L 17.5 21.4245C 17.9418 21.4245 18.3 21.0663 18.3 20.6245L 17.5 20.6245ZM 0 20.6245L -0.8 20.6245C -0.8 21.0663 -0.441828 21.4245 1.77636e-16 21.4245L 0 20.6245ZM 11.25 0L 11.7497 -0.62472C 11.6079 -0.738185 11.4316 -0.8 11.25 -0.8L 11.25 0ZM 11.25 4.99948L 10.45 4.99948C 10.45 5.44131 10.8082 5.79948 11.25 5.79948L 11.25 4.99948ZM 17.5 4.99948L 18.3 4.99948C 18.3 4.75644 18.1895 4.52658 17.9997 4.37476L 17.5 4.99948ZM 17.5 19.8245L 0 19.8245L 0 21.4245L 17.5 21.4245L 17.5 19.8245ZM 0.8 20.6245L 0.8 0L -0.8 0L -0.8 20.6245L 0.8 20.6245ZM 0 0.8L 11.25 0.8L 11.25 -0.8L 0 -0.8L 0 0.8ZM 10.45 0L 10.45 4.99948L 12.05 4.99948L 12.05 0L 10.45 0ZM 16.7 4.99948L 16.7 20.6245L 18.3 20.6245L 18.3 4.99948L 16.7 4.99948ZM 11.25 5.79948L 17.5 5.79948L 17.5 4.19948L 11.25 4.19948L 11.25 5.79948ZM 10.7503 0.62472L 17.0003 5.6242L 17.9997 4.37476L 11.7497 -0.62472L 10.7503 0.62472Z"/>
<path id="path10_stroke" d="M 0 0.7L 10 0.7L 10 -0.7L 0 -0.7L 0 0.7Z"/>
<path id="path11_stroke" d="M 10.4041 0L 10.8718 -0.648987C 10.5925 -0.850346 10.2156 -0.850337 9.93624 -0.648964L 10.4041 0ZM 0 7.49982L -0.467809 6.85086C -0.749405 7.05385 -0.867959 7.41527 -0.761304 7.74562C -0.65465 8.07596 -0.347127 8.29982 5.49316e-06 8.29982L 0 7.49982ZM 20.8086 7.49937L 20.8086 8.29937C 21.1557 8.29937 21.4632 8.0755 21.5699 7.74515C 21.6765 7.4148 21.558 7.05337 21.2763 6.85039L 20.8086 7.49937ZM 3.125 7.4998L 3.925 7.4998C 3.925 7.28762 3.84071 7.08414 3.69068 6.93411C 3.54065 6.78408 3.33717 6.6998 3.12499 6.6998L 3.125 7.4998ZM 3.125 18.7498L 2.325 18.7498C 2.325 18.9619 2.40929 19.1654 2.55933 19.3154C 2.70937 19.4655 2.91286 19.5498 3.12504 19.5497L 3.125 18.7498ZM 7.57988 18.7495L 7.57992 19.5495C 8.02173 19.5495 8.37988 19.1913 8.37988 18.7495L 7.57988 18.7495ZM 7.57988 13.3854L 7.57988 12.5854C 7.36771 12.5854 7.16422 12.6697 7.01419 12.8197C 6.86416 12.9697 6.77988 13.1732 6.77988 13.3854L 7.57988 13.3854ZM 17.6836 7.49937L 17.6836 6.69937C 17.2418 6.69937 16.8836 7.05755 16.8836 7.49937L 17.6836 7.49937ZM 17.6836 18.7494L 17.6835 19.5494C 17.8957 19.5494 18.0992 19.4651 18.2493 19.3151C 18.3993 19.165 18.4836 18.9616 18.4836 18.7494L 17.6836 18.7494ZM 13.1497 18.7491L 12.3497 18.7491C 12.3497 19.1909 12.7079 19.549 13.1497 19.5491L 13.1497 18.7491ZM 13.1497 13.3854L 13.9497 13.3854C 13.9497 12.9436 13.5916 12.5854 13.1497 12.5854L 13.1497 13.3854ZM 9.93624 -0.648964L -0.467809 6.85086L 0.467809 8.14878L 10.8719 0.648964L 9.93624 -0.648964ZM 9.93628 0.648987L 20.3408 8.14836L 21.2763 6.85039L 10.8718 -0.648987L 9.93628 0.648987ZM 5.49316e-06 8.29982L 3.12501 8.2998L 3.12499 6.6998L -5.49316e-06 6.69982L 5.49316e-06 8.29982ZM 2.325 7.4998L 2.325 18.7498L 3.925 18.7498L 3.925 7.4998L 2.325 7.4998ZM 3.12504 19.5497L 7.57992 19.5495L 7.57984 17.9495L 3.12496 17.9498L 3.12504 19.5497ZM 8.37988 18.7495L 8.37988 13.3854L 6.77988 13.3854L 6.77988 18.7495L 8.37988 18.7495ZM 20.8086 6.69937L 17.6836 6.69937L 17.6836 8.29937L 20.8086 8.29937L 20.8086 6.69937ZM 16.8836 7.49937L 16.8836 18.7494L 18.4836 18.7494L 18.4836 7.49937L 16.8836 7.49937ZM 17.6836 17.9494L 13.1498 17.9491L 13.1497 19.5491L 17.6835 19.5494L 17.6836 17.9494ZM 13.9497 18.7491L 13.9497 13.3854L 12.3497 13.3854L 12.3497 18.7491L 13.9497 18.7491ZM 13.1497 12.5854L 7.57988 12.5854L 7.57988 14.1854L 13.1497 14.1854L 13.1497 12.5854Z"/>
<path id="path12_fill" fill-rule="evenodd" d="M 10 24.375C 11.375 24.375 12.5 23.25 12.5 21.875L 7.5 21.875C 7.5 23.25 8.625 24.375 10 24.375ZM 17.5 16.875L 17.5 10.625C 17.5 6.7875 15.4625 3.575 11.875 2.725L 11.875 1.875C 11.875 0.8375 11.0375 0 10 0C 8.9625 0 8.125 0.8375 8.125 1.875L 8.125 2.725C 4.55 3.575 2.5 6.775 2.5 10.625L 2.5 16.875L 0 19.375L 0 20.625L 20 20.625L 20 19.375L 17.5 16.875ZM 15 18.125L 5 18.125L 5 10.625C 5 7.525 6.8875 5 10 5C 13.1125 5 15 7.525 15 10.625L 15 18.125Z"/>
<path id="path13_fill" fill-rule="evenodd" d="M 22.5 0L 2.5 0C 1.125 0 0.0125 1.125 0.0125 2.5L 0 17.5C 0 18.875 1.125 20 2.5 20L 22.5 20C 23.875 20 25 18.875 25 17.5L 25 2.5C 25 1.125 23.875 0 22.5 0ZM 22.5 17.5L 2.5 17.5L 2.5 5L 12.5 11.25L 22.5 5L 22.5 17.5ZM 12.5 8.75L 2.5 2.5L 22.5 2.5L 12.5 8.75Z"/>
</defs>
</svg>
