<svg width="48" height="96" viewBox="0 0 48 96" version="1.1" xmlns="http://www.w3.org/2000/svg" xmlns:xlink="http://www.w3.org/1999/xlink">
<title>&#208;&#161;&#208;&#191;&#209;&#128;&#208;&#176;&#208;&#185;&#209;&#130; &#208;&#184;&#208;&#186;&#208;&#190;&#208;&#189;&#208;&#190;&#208;&#186;2</title>
<desc>Created using Figma</desc>
<g id="Canvas" transform="translate(25172 18558)">
<g id="&#208;&#161;&#208;&#191;&#209;&#128;&#208;&#176;&#208;&#185;&#209;&#130; &#208;&#184;&#208;&#186;&#208;&#190;&#208;&#189;&#208;&#190;&#208;&#186;2">
<g id="ic_shopping_cart">
<g id="Icon 24px">
<g id="Shape">
<use xlink:href="#path0_fill" transform="translate(-25171 -18484)" fill="#4F4F4F"/>
</g>
</g>
</g>
<g id="ic_shopping_cart">
<g id="Icon 24px">
<g id="Path">
<use xlink:href="#path1_fill" transform="translate(-25142.6 -18468)" fill="#C62828"/>
</g>
<g id="Path">
<use xlink:href="#path2_fill" transform="translate(-25147 -18484)" fill="#C62828"/>
</g>
<g id="Path">
<use xlink:href="#path1_fill" transform="translate(-25131.6 -18468)" fill="#C62828"/>
</g>
</g>
</g>
<g id="ic_person">
<g id="Shape">
<use xlink:href="#path3_fill" transform="translate(-25169 -18507)" fill="#4F4F4F"/>
</g>
</g>
<g id="ic_person">
<g id="Icon 24px">
<g id="Shape">
<use xlink:href="#path3_fill" transform="translate(-25145 -18507)" fill="#C62828"/>
</g>
</g>
</g>
<g id="ic_compare_arrows2">
<g id="Icon 24px">
<g id="Shape">
<use xlink:href="#path4_fill" transform="translate(-25172 -18531)" fill="#4F4F4F"/>
</g>
</g>
</g>
<g id="ic_compare_arrows2">
<g id="Icon 24px">
<g id="Path">
<use xlink:href="#path5_fill" transform="translate(-25148 -18523.3)" fill="#C62828"/>
</g>
<g id="Path">
<use xlink:href="#path6_fill" transform="translate(-25137.2 -18531)" fill="#C62828"/>
</g>
</g>
</g>
<g id="Group">
<g id="Shape">
<use xlink:href="#path7_fill" transform="translate(-25170 -18555)" fill="#4F4F4F"/>
</g>
</g>
<g id="Group 2">
<g id="Shape">
<use xlink:href="#path7_fill" transform="translate(-25146 -18555)" fill="#C62828"/>
</g>
</g>
</g>
</g>
<defs>
<path id="path0_fill" fill-rule="evenodd" d="M 6.59916 16C 5.38916 16 4.41016 16.9 4.41016 18C 4.41016 19.1 5.38916 20 6.59916 20C 7.80916 20 8.79916 19.1 8.79916 18C 8.79916 16.9 7.80916 16 6.59916 16ZM 0 0L 0 2L 2.2 2L 6.16 9.59L 4.675 12.04C 4.499 12.32 4.4 12.65 4.4 13C 4.4 14.1 5.39 15 6.6 15L 19.8 15L 19.8 13L 7.062 13C 6.908 13 6.787 12.89 6.787 12.75L 6.82 12.63L 7.81 11L 16.005 11C 16.83 11 17.556 10.59 17.93 9.97L 21.868 3.48C 21.956 3.34 22 3.17 22 3C 22 2.45 21.505 2 20.9 2L 4.631 2L 3.597 0L 0 0ZM 17.5992 16C 16.3892 16 15.4102 16.9 15.4102 18C 15.4102 19.1 16.3892 20 17.5992 20C 18.8092 20 19.7992 19.1 19.7992 18C 19.7992 16.9 18.8092 16 17.5992 16Z"/>
<path id="path1_fill" fill-rule="evenodd" d="M 2.189 0C 0.979 0 0 0.9 0 2C 0 3.1 0.979 4 2.189 4C 3.399 4 4.389 3.1 4.389 2C 4.389 0.9 3.399 0 2.189 0Z"/>
<path id="path2_fill" fill-rule="evenodd" d="M 0 0L 0 2L 2.2 2L 6.16 9.59L 4.675 12.04C 4.499 12.32 4.4 12.65 4.4 13C 4.4 14.1 5.39 15 6.6 15L 19.8 15L 19.8 13L 7.062 13C 6.908 13 6.787 12.89 6.787 12.75L 6.82 12.63L 7.81 11L 16.005 11C 16.83 11 17.556 10.59 17.93 9.97L 21.868 3.48C 21.956 3.34 22 3.17 22 3C 22 2.45 21.505 2 20.9 2L 4.631 2L 3.597 0L 0 0Z"/>
<path id="path3_fill" fill-rule="evenodd" d="M 9 9C 11.4862 9 13.5 6.98625 13.5 4.5C 13.5 2.01375 11.4862 0 9 0C 6.51375 0 4.5 2.01375 4.5 4.5C 4.5 6.98625 6.51375 9 9 9ZM 9 11.25C 5.99625 11.25 0 12.7575 0 15.75L 0 18L 18 18L 18 15.75C 18 12.7575 12.0037 11.25 9 11.25Z"/>
<path id="path4_fill" fill-rule="evenodd" d="M 8.41183 11.5721L 0 11.5721L 0 14.1435L 8.41183 14.1435L 8.41183 18.0007L 13.1997 12.8578L 8.41183 7.71484L 8.41183 11.5721ZM 15.5887 10.2859L 15.5887 6.42868L 24.0005 6.42868L 24.0005 3.85721L 15.5887 3.85721L 15.5887 0L 10.8008 5.14294L 15.5887 10.2859Z"/>
<path id="path5_fill" fill-rule="evenodd" d="M 8.41183 3.85721L 0 3.85721L 0 6.42868L 8.41183 6.42868L 8.41183 10.2859L 13.1997 5.14294L 8.41183 0L 8.41183 3.85721Z"/>
<path id="path6_fill" fill-rule="evenodd" d="M 4.7879 10.2859L 4.7879 6.42868L 13.1997 6.42868L 13.1997 3.85721L 4.7879 3.85721L 4.7879 0L 0 5.14294L 4.7879 10.2859Z"/>
<path id="path7_fill" fill-rule="evenodd" d="M 10 18L 8.55 16.7052C 3.4 12.1243 0 9.103 0 5.3951C 0 2.37384 2.42 0 5.5 0C 7.24 0 8.91 0.79455 10 2.05014C 11.09 0.79455 12.76 0 14.5 0C 17.58 0 20 2.37384 20 5.3951C 20 9.103 16.6 12.1243 11.45 16.715L 10 18Z"/>
</defs>
</svg>
