<svg width="48" height="120" viewBox="0 0 48 120" version="1.1" xmlns="http://www.w3.org/2000/svg" xmlns:xlink="http://www.w3.org/1999/xlink">
<title>Group 8</title>
<desc>Created using Figma</desc>
<g id="Canvas" transform="translate(25104 19130)">
<g id="Group 8">
<g id="Vk button">
<g id="Rectangle 2">
<use xlink:href="#path0_fill" transform="translate(-25080 -19130)" fill="#5075A2"/>
</g>
<g id="&#239;&#134;&#137;">
<use xlink:href="#path1_fill" transform="translate(-25076 -19125)" fill="#FFFFFF"/>
</g>
</g>
<g id="Facebook button">
<g id="Rectangle 2.2">
<use xlink:href="#path0_fill" transform="translate(-25080 -19106)" fill="#3F5996"/>
</g>
<g id="&#239;&#130;&#154;">
<use xlink:href="#path2_fill" transform="translate(-25072 -19101)" fill="#FFFFFF"/>
</g>
</g>
<g id="Yuotube button">
<g id="Rectangle 2.3">
<use xlink:href="#path0_fill" transform="translate(-25080 -19082)" fill="#CC1010"/>
</g>
<g id="&#239;&#133;&#170;">
<use xlink:href="#path3_fill" transform="translate(-25075 -19077)" fill="#FFFFFF"/>
</g>
</g>
<g id="Instagram button">
<g id="Rectangle 2.4">
<use xlink:href="#path0_fill" transform="translate(-25080 -19058)" fill="#F01859"/>
</g>
<g id="&#239;&#133;&#173;">
<use xlink:href="#path4_fill" transform="translate(-25074 -19053)" fill="#FFFFFF"/>
</g>
</g>
<g id="telegram button">
<g id="Rectangle 2.5">
<use xlink:href="#path0_fill" transform="translate(-25080 -19034)" fill="#6AA9DB"/>
</g>
<g id="&#239;&#135;&#153;">
<use xlink:href="#path5_fill" transform="translate(-25075 -19029)" fill="#FFFFFF"/>
</g>
</g>
<g id="Vk button">
<g id="Rectangle 2">
<use xlink:href="#path0_fill" transform="translate(-25104 -19130)" fill="#618DC2"/>
</g>
<g id="&#239;&#134;&#137;">
<use xlink:href="#path1_fill" transform="translate(-25100 -19125)" fill="#FFFFFF"/>
</g>
</g>
<g id="Facebook button">
<g id="Rectangle 2.2">
<use xlink:href="#path0_fill" transform="translate(-25104 -19106)" fill="#5572B5"/>
</g>
<g id="&#239;&#130;&#154;">
<use xlink:href="#path2_fill" transform="translate(-25096 -19101)" fill="#FFFFFF"/>
</g>
</g>
<g id="Yuotube button">
<g id="Rectangle 2.3">
<use xlink:href="#path0_fill" transform="translate(-25104 -19082)" fill="#DB2A2A"/>
</g>
<g id="&#239;&#133;&#170;">
<use xlink:href="#path3_fill" transform="translate(-25099 -19077)" fill="#FFFFFF"/>
</g>
</g>
<g id="Instagram button">
<g id="Rectangle 2.4">
<use xlink:href="#path0_fill" transform="translate(-25104 -19058)" fill="#FF306E"/>
</g>
<g id="&#239;&#133;&#173;">
<use xlink:href="#path4_fill" transform="translate(-25098 -19053)" fill="#FFFFFF"/>
</g>
</g>
<g id="telegram button">
<g id="Rectangle 2.5">
<use xlink:href="#path0_fill" transform="translate(-25104 -19034)" fill="#80BDED"/>
</g>
<g id="&#239;&#135;&#153;">
<use xlink:href="#path5_fill" transform="translate(-25099 -19029)" fill="#FFFFFF"/>
</g>
</g>
</g>
</g>
<defs>
<path id="path0_fill" d="M 0 0L 24 0L 24 24L 0 24L 0 0Z"/>
<path id="path1_fill" d="M 14.9766 4.0625C 14.9766 4.0625 14.8672 3.75 14.1875 3.83594L 11.9375 3.85156C 11.7656 3.82812 11.6406 3.89844 11.6406 3.89844C 11.6406 3.89844 11.5078 3.96875 11.4453 4.14063C 11.0781 5.08594 10.6094 5.89844 10.6094 5.89844C 9.60937 7.60156 9.20313 7.69531 9.03906 7.58594C 8.65625 7.34375 8.75781 6.60156 8.75781 6.07031C 8.75781 4.41406 9.00781 3.72656 8.26562 3.54688C 8.02344 3.49219 7.84375 3.45312 7.21094 3.44531C 6.40625 3.4375 5.72656 3.44531 5.34375 3.63281C 5.08594 3.75781 4.89063 4.03906 5.00781 4.05469C 5.15625 4.07812 5.49219 4.14844 5.67188 4.39063C 5.67188 4.39063 5.86719 4.71094 5.89844 5.41406C 5.98438 7.35938 5.58594 7.60156 5.58594 7.60156C 5.28125 7.76562 4.75 7.49219 3.96875 5.88281C 3.96875 5.88281 3.51562 5.08594 3.16406 4.21094C 3.10156 4.04687 2.97656 3.96094 2.97656 3.96094C 2.97656 3.96094 2.83594 3.85156 2.63281 3.82031L 0.492188 3.83594C 0.164062 3.83594 0.046875 3.98438 0.046875 3.98438C 0.046875 3.98438 -0.0703125 4.10937 0.0390625 4.36719C 1.71094 8.29687 3.61719 10.2656 3.61719 10.2656C 3.61719 10.2656 5.35938 12.0859 7.33594 11.9609L 8.23437 11.9609C 8.50781 11.9375 8.64844 11.7891 8.64844 11.7891C 8.64844 11.7891 8.77344 11.6484 8.76563 11.3906C 8.75 10.1875 9.3125 10.0078 9.3125 10.0078C 9.85938 9.83594 10.5625 11.1719 11.3125 11.6875C 11.3125 11.6875 11.8828 12.0781 12.3125 11.9922L 14.3125 11.9609C 15.3672 11.9531 14.8672 11.0781 14.8672 11.0781C 14.8281 11.0078 14.5781 10.4688 13.375 9.35156C 12.125 8.1875 12.2891 8.375 13.8047 6.35937C 14.7266 5.13281 15.0938 4.38281 14.9766 4.0625Z"/>
<path id="path2_fill" d="M 7.49219 0.0937504C 7.28125 0.0624996 6.55469 -1.19209e-07 5.71094 -1.19209e-07C 3.94531 -1.19209e-07 2.73438 1.07813 2.73438 3.05469L 2.73438 4.75781L 0.742187 4.75781L 0.742187 7.07031L 2.73438 7.07031L 2.73438 13L 5.125 13L 5.125 7.07031L 7.10938 7.07031L 7.41406 4.75781L 5.125 4.75781L 5.125 3.28125C 5.125 2.61719 5.30469 2.15625 6.26562 2.15625L 7.49219 2.15625L 7.49219 0.0937504Z"/>
<path id="path3_fill" d="M 5.55469 8.8125L 5.55469 4.88281L 9.33594 6.85938L 5.55469 8.8125ZM 7 2.07812C 4.05469 2.07812 2.10156 2.21875 2.10156 2.21875C 1.82812 2.25 1.22656 2.25 0.695313 2.8125C 0.695313 2.8125 0.265625 3.23437 0.140625 4.20313C -0.0078125 5.33594 0 6.46875 0 6.46875L 0 7.53125C 0 7.53125 -0.0078125 8.66406 0.140625 9.79688C 0.265625 10.7578 0.695313 11.1875 0.695313 11.1875C 1.22656 11.7422 1.92969 11.7266 2.24219 11.7812C 2.24219 11.7812 3.35937 11.8906 7 11.9219C 9.94531 11.9219 11.8984 11.7734 11.8984 11.7734C 12.1719 11.7422 12.7734 11.7422 13.3047 11.1875C 13.3047 11.1875 13.7344 10.7578 13.8594 9.79688C 14.0078 8.66406 14 7.53125 14 7.53125L 14 6.46875C 14 6.46875 14.0078 5.33594 13.8594 4.20313C 13.7344 3.23437 13.3047 2.8125 13.3047 2.8125C 12.7734 2.25 12.1719 2.25 11.8984 2.21875C 11.8984 2.21875 9.94531 2.07812 7 2.07812Z"/>
<path id="path4_fill" d="M 8 7C 8 8.10156 7.10156 9 6 9C 4.89844 9 4 8.10156 4 7C 4 5.89844 4.89844 5 6 5C 7.10156 5 8 5.89844 8 7ZM 9.07812 7C 9.07812 5.29688 7.70313 3.92188 6 3.92188C 4.29687 3.92188 2.92187 5.29688 2.92187 7C 2.92187 8.70313 4.29687 10.0781 6 10.0781C 7.70313 10.0781 9.07812 8.70313 9.07812 7ZM 9.92188 3.79688C 9.92188 3.39844 9.60156 3.07813 9.20313 3.07813C 8.80469 3.07813 8.48437 3.39844 8.48437 3.79688C 8.48437 4.19531 8.80469 4.51562 9.20313 4.51562C 9.60156 4.51562 9.92188 4.19531 9.92188 3.79688ZM 6 2.07812C 6.875 2.07812 8.75 2.00781 9.53906 2.32031C 9.8125 2.42969 10.0156 2.5625 10.2266 2.77344C 10.4375 2.98437 10.5703 3.1875 10.6797 3.46094C 10.9922 4.25 10.9219 6.125 10.9219 7C 10.9219 7.875 10.9922 9.75 10.6797 10.5391C 10.5703 10.8125 10.4375 11.0156 10.2266 11.2266C 10.0156 11.4375 9.8125 11.5703 9.53906 11.6797C 8.75 11.9922 6.875 11.9219 6 11.9219C 5.125 11.9219 3.25 11.9922 2.46094 11.6797C 2.1875 11.5703 1.98437 11.4375 1.77344 11.2266C 1.5625 11.0156 1.42969 10.8125 1.32031 10.5391C 1.00781 9.75 1.07812 7.875 1.07812 7C 1.07812 6.125 1.00781 4.25 1.32031 3.46094C 1.42969 3.1875 1.5625 2.98437 1.77344 2.77344C 1.98437 2.5625 2.1875 2.42969 2.46094 2.32031C 3.25 2.00781 5.125 2.07812 6 2.07812ZM 12 7C 12 6.17188 12.0078 5.35156 11.9609 4.52344C 11.9141 3.5625 11.6953 2.71094 10.9922 2.00781C 10.2891 1.30469 9.4375 1.08594 8.47656 1.03906C 7.64844 0.992187 6.82812 1 6 1C 5.17187 1 4.35156 0.992187 3.52344 1.03906C 2.5625 1.08594 1.71094 1.30469 1.00781 2.00781C 0.304688 2.71094 0.0859375 3.5625 0.0390625 4.52344C -0.0078125 5.35156 0 6.17188 0 7C 0 7.82813 -0.0078125 8.64844 0.0390625 9.47656C 0.0859375 10.4375 0.304688 11.2891 1.00781 11.9922C 1.71094 12.6953 2.5625 12.9141 3.52344 12.9609C 4.35156 13.0078 5.17187 13 6 13C 6.82812 13 7.64844 13.0078 8.47656 12.9609C 9.4375 12.9141 10.2891 12.6953 10.9922 11.9922C 11.6953 11.2891 11.9141 10.4375 11.9609 9.47656C 12.0078 8.64844 12 7.82813 12 7Z"/>
<path id="path5_fill" d="M 13.7812 0.0859373C 13.625 -0.0234377 13.4141 -0.03125 13.25 0.0703127L 0.25 7.57031C 0.0859375 7.66406 -0.015625 7.84375 0 8.03125C 0.015625 8.22656 0.132813 8.39062 0.3125 8.46094L 4 9.96875L 4 13.5C 4 13.7031 4.125 13.8906 4.32031 13.9688C 4.375 13.9922 4.4375 14 4.5 14C 4.64062 14 4.77344 13.9453 4.86719 13.8359L 7.19531 11.2812L 11.3125 12.9609C 11.375 12.9844 11.4375 13 11.5 13C 11.5859 13 11.6719 12.9766 11.7422 12.9375C 11.875 12.8594 11.9688 12.7344 11.9922 12.5859L 13.9922 0.585938C 14.0234 0.390625 13.9453 0.203125 13.7812 0.0859373ZM 11.1094 11.7969L 7.26563 10.2266L 11 4L 4.25781 8.99219L 1.63281 7.92188L 12.8359 1.46094L 11.1094 11.7969Z"/>
</defs>
</svg>
