<svg width="40" height="160" viewBox="0 0 40 160" version="1.1" xmlns="http://www.w3.org/2000/svg" xmlns:xlink="http://www.w3.org/1999/xlink">
<title>Group</title>
<desc>Created using Figma</desc>
<g id="Canvas" transform="translate(-239 278)">
<g id="Group">
<g id="&#239;&#132;&#133;">
<use xlink:href="#path0_fill" transform="translate(261 -137)" fill="#C62828"/>
</g>
<g id="ic_stay_current_portrait">
<g id="Icon 24px">
<g id="Shape">
<use xlink:href="#path1_fill" transform="translate(264 -157)" fill="#FFFFFF"/>
</g>
</g>
</g>
<g id="ic_stay_current_portrait">
<g id="Icon 24px">
<g id="Shape">
<use xlink:href="#path2_fill" transform="translate(266 -274)" fill="#4F4F4F"/>
</g>
</g>
</g>
<g id="Check Button Active">
<g id="ic_check_box">
<g id="Icon 24px">
<g id="Shape">
<use xlink:href="#path3_fill" transform="translate(261.5 -235.5)" fill="#7DC472"/>
</g>
</g>
</g>
</g>
<g id="email">
<g id="Group">
<g id="Group">
<g id="Vector">
<use xlink:href="#path4_fill" transform="translate(262 -252.2)" fill="#4F4F4F"/>
</g>
</g>
</g>
<g id="Group">
<g id="Group">
<g id="Vector">
<use xlink:href="#path5_fill" transform="translate(262.415 -253)" fill="#4F4F4F"/>
</g>
</g>
</g>
<g id="Group">
<g id="Group">
<g id="Vector">
<use xlink:href="#path6_fill" transform="translate(262.419 -247.364)" fill="#4F4F4F"/>
</g>
</g>
</g>
<g id="Group">
<g id="Group">
<g id="Vector">
<use xlink:href="#path7_fill" transform="translate(271.697 -252.2)" fill="#4F4F4F"/>
</g>
</g>
</g>
</g>
<g id="ic_stay_current_portrait">
<g id="ic_open_in_browser">
<g id="Icon 24px">
<g id="Shape">
<use xlink:href="#path8_fill" transform="translate(260 -217)" fill="#FFFFFF"/>
</g>
</g>
</g>
</g>
<g id="ic_person2">
<g id="Icon 24px">
<g id="Shape">
<use xlink:href="#path9_fill" transform="translate(261.5 -175.5)" fill="#FFFFFF"/>
</g>
</g>
</g>
<g id="ic_https">
<g id="Icon 24px">
<g id="Shape">
<use xlink:href="#path10_fill" transform="translate(262 -198)" fill="#FFFFFF"/>
</g>
</g>
</g>
<g id="ic_stay_current_portrait">
<g id="Icon 24px">
<g id="Shape">
<use xlink:href="#path2_fill" transform="translate(246 -274)" fill="#828282"/>
</g>
</g>
</g>
<g id="Check Button">
<g id="ic_check_box_outline_blank">
<g id="Icon 24px">
<g id="Shape">
<use xlink:href="#path11_fill" transform="translate(241.5 -235.5)" fill="#BDBDBD"/>
</g>
</g>
</g>
</g>
<g id="email">
<g id="Group">
<g id="Group">
<g id="Vector">
<use xlink:href="#path4_fill" transform="translate(242 -252.2)" fill="#828282"/>
</g>
</g>
</g>
<g id="Group">
<g id="Group">
<g id="Vector">
<use xlink:href="#path5_fill" transform="translate(242.415 -253)" fill="#828282"/>
</g>
</g>
</g>
<g id="Group">
<g id="Group">
<g id="Vector">
<use xlink:href="#path6_fill" transform="translate(242.419 -247.364)" fill="#828282"/>
</g>
</g>
</g>
<g id="Group">
<g id="Group">
<g id="Vector">
<use xlink:href="#path7_fill" transform="translate(251.697 -252.2)" fill="#828282"/>
</g>
</g>
</g>
</g>
</g>
</g>
<defs>
<path id="path0_fill" d="M 10.9248 9.17857C 10.9248 9.11161 10.8913 9.03627 10.8411 8.98605L 6.94043 5.08538C 6.89021 5.03516 6.81487 5.00167 6.74791 5.00167C 6.68094 5.00167 6.60561 5.03516 6.55539 5.08538L 6.13686 5.50391C 6.08664 5.55413 6.05315 5.62946 6.05315 5.69643C 6.05315 5.76339 6.08664 5.83873 6.13686 5.88895L 9.42648 9.17857L 6.13686 12.4682C 6.08664 12.5184 6.05315 12.5938 6.05315 12.6607C 6.05315 12.736 6.08664 12.803 6.13686 12.8532L 6.55539 13.2718C 6.60561 13.322 6.68094 13.3555 6.74791 13.3555C 6.81487 13.3555 6.89021 13.322 6.94043 13.2718L 10.8411 9.37109C 10.8913 9.32087 10.9248 9.24554 10.9248 9.17857Z"/>
<path id="path1_fill" fill-rule="evenodd" d="M 7.71337 0.00727273L 1.2802 0C 0.572552 0 0 0.654545 0 1.45455L 0 14.5455C 0 15.3455 0.572552 16 1.2802 16L 7.71337 16C 8.42102 16 9 15.3455 9 14.5455L 9 1.45455C 9 0.654545 8.42102 0.00727273 7.71337 0.00727273L 7.71337 0.00727273ZM 7.71417 13.0925L 1.28101 13.0925L 1.28101 2.91072L 7.71417 2.91072L 7.71417 13.0925L 7.71417 13.0925Z"/>
<path id="path2_fill" fill-rule="evenodd" d="M 5.49542 0.00458333L 0.912083 0C 0.407917 0 0 0.4125 0 0.916667L 0 9.16667C 0 9.67083 0.407917 10.0833 0.912083 10.0833L 5.49542 10.0833C 5.99958 10.0833 6.41208 9.67083 6.41208 9.16667L 6.41208 0.916667C 6.41208 0.4125 5.99958 0.00458333 5.49542 0.00458333L 5.49542 0.00458333ZM 5.49613 8.25202L 0.912792 8.25202L 0.912792 1.83535L 5.49613 1.83535L 5.49613 8.25202L 5.49613 8.25202Z"/>
<path id="path3_fill" fill-rule="evenodd" d="M 13.3333 0L 1.66667 0C 0.741667 0 0 0.75 0 1.66667L 0 13.3333C 0 14.25 0.741667 15 1.66667 15L 13.3333 15C 14.2583 15 15 14.25 15 13.3333L 15 1.66667C 15 0.75 14.2583 0 13.3333 0L 13.3333 0ZM 5.83329 11.6667L 1.66662 7.50005L 2.84162 6.32505L 5.83329 9.30838L 12.1583 2.98338L 13.3333 4.16672L 5.83329 11.6667L 5.83329 11.6667Z"/>
<path id="path4_fill" d="M 0 5.48706e-08L 0 8.40589L 4.30319 4.23186L 0 5.48706e-08Z"/>
<path id="path5_fill" d="M 4.17233e-10 7.86479e-08L 6.58481 6.47562L 13.1696 7.86479e-08L 4.17233e-10 7.86479e-08Z"/>
<path id="path6_fill" d="M 8.66365 5.97578e-05L 6.58145 2.04768L 4.49925 3.14592e-07L 4.38094e-09 4.3642L 13.1629 4.3642L 8.66365 5.97578e-05Z"/>
<path id="path7_fill" d="M 0 4.23186L 4.30322 8.40583L 4.30322 5.48706e-08L 0 4.23186Z"/>
<path id="path8_fill" fill-rule="evenodd" d="M 16 0L 2 0C 0.89 0 0 0.9 0 2L 0 14C 0 15.1 0.89 16 2 16L 6 16L 6 14L 2 14L 2 4L 16 4L 16 14L 12 14L 12 16L 16 16C 17.1 16 18 15.1 18 14L 18 2C 18 0.9 17.11 0 16 0L 16 0ZM 9 6L 5 10L 8 10L 8 16L 10 16L 10 10L 13 10L 9 6L 9 6Z"/>
<path id="path9_fill" fill-rule="evenodd" d="M 7.5 7.5C 9.57188 7.5 11.25 5.82188 11.25 3.75C 11.25 1.67812 9.57188 0 7.5 0C 5.42812 0 3.75 1.67812 3.75 3.75C 3.75 5.82188 5.42812 7.5 7.5 7.5L 7.5 7.5ZM 7.5 9.375C 4.99687 9.375 0 10.6312 0 13.125L 0 15L 15 15L 15 13.125C 15 10.6312 10.0031 9.375 7.5 9.375L 7.5 9.375Z"/>
<path id="path10_fill" fill-rule="evenodd" d="M 12.25 6.33333L 11.375 6.33333L 11.375 4.52381C 11.375 2.02667 9.415 0 7 0C 4.585 0 2.625 2.02667 2.625 4.52381L 2.625 6.33333L 1.75 6.33333C 0.7875 6.33333 0 7.14762 0 8.14286L 0 17.1905C 0 18.1857 0.7875 19 1.75 19L 12.25 19C 13.2125 19 14 18.1857 14 17.1905L 14 8.14286C 14 7.14762 13.2125 6.33333 12.25 6.33333L 12.25 6.33333ZM 7 14.4762C 6.0375 14.4762 5.25 13.6619 5.25 12.6667C 5.25 11.6714 6.0375 10.8571 7 10.8571C 7.9625 10.8571 8.75 11.6714 8.75 12.6667C 8.75 13.6619 7.9625 14.4762 7 14.4762L 7 14.4762ZM 9.71284 6.33368L 4.28784 6.33368L 4.28784 4.52416C 4.28784 2.97702 5.50409 1.7194 7.00034 1.7194C 8.49659 1.7194 9.71284 2.97702 9.71284 4.52416L 9.71284 6.33368L 9.71284 6.33368Z"/>
<path id="path11_fill" fill-rule="evenodd" d="M 13.3333 1.66666L 13.3333 13.3333L 1.66667 13.3333L 1.66667 1.66666L 13.3333 1.66666L 13.3333 1.66666ZM 13.3333 0L 1.66667 0C 0.75 0 0 0.75 0 1.66667L 0 13.3333C 0 14.25 0.75 15 1.66667 15L 13.3333 15C 14.25 15 15 14.25 15 13.3333L 15 1.66667C 15 0.75 14.25 0 13.3333 0L 13.3333 0Z"/>
</defs>
</svg>
