<svg width="40" height="280" viewBox="0 0 40 280" version="1.1" xmlns="http://www.w3.org/2000/svg" xmlns:xlink="http://www.w3.org/1999/xlink">
<title>Component 2</title>
<desc>Created using Figma</desc>
<g id="Canvas" transform="translate(25325 18562)">
<g id="Component 2">
<g id="Group">
<g id="ic_shopping_cart">
<g id="Icon 24px">
<g id="Shape">
<use xlink:href="#path0_fill" transform="translate(-25323.2 -18379.5)" fill="#FFFFFF"/>
</g>
</g>
</g>
<g id="&#239;&#132;&#133;">
<use xlink:href="#path1_fill" transform="translate(-25324 -18422)" fill="#C62828"/>
</g>
<g id="ic_stay_current_portrait">
<g id="Icon 24px">
<g id="Shape">
<use xlink:href="#path2_fill" transform="translate(-25320 -18441)" fill="#FFFFFF"/>
</g>
</g>
</g>
<g id="ic_stay_current_portrait">
<g id="Icon 24px">
<g id="Shape">
<use xlink:href="#path3_fill" transform="translate(-25298 -18559)" fill="#4F4F4F"/>
</g>
</g>
</g>
<g id="Check Button Active">
<g id="ic_check_box">
<g id="Icon 24px">
<g id="Shape">
<use xlink:href="#path4_fill" transform="translate(-25302.5 -18519.5)" fill="#7DC472"/>
</g>
</g>
</g>
</g>
<g id="email">
<g id="Group">
<g id="Group">
<g id="Vector">
<use xlink:href="#path5_fill" transform="translate(-25305 -18538.1)" fill="#4F4F4F"/>
</g>
</g>
</g>
<g id="Group">
<g id="Group">
<g id="Vector">
<use xlink:href="#path6_fill" transform="translate(-25304.6 -18539)" fill="#4F4F4F"/>
</g>
</g>
</g>
<g id="Group">
<g id="Group">
<g id="Vector">
<use xlink:href="#path7_fill" transform="translate(-25304.6 -18532.8)" fill="#4F4F4F"/>
</g>
</g>
</g>
<g id="Group">
<g id="Group">
<g id="Vector">
<use xlink:href="#path8_fill" transform="translate(-25294.6 -18538.1)" fill="#4F4F4F"/>
</g>
</g>
</g>
</g>
<g id="ic_stay_current_portrait">
<g id="ic_open_in_browser">
<g id="Icon 24px">
<g id="Shape">
<use xlink:href="#path9_fill" transform="translate(-25324 -18501)" fill="#FFFFFF"/>
</g>
</g>
</g>
</g>
<g id="ic_person2">
<g id="Icon 24px">
<g id="Shape">
<use xlink:href="#path10_fill" transform="translate(-25322.5 -18459.5)" fill="#FFFFFF"/>
</g>
</g>
</g>
<g id="ic_https">
<g id="Icon 24px">
<g id="Shape">
<use xlink:href="#path11_fill" transform="translate(-25322 -18482)" fill="#FFFFFF"/>
</g>
</g>
</g>
<g id="ic_stay_current_portrait">
<g id="Icon 24px">
<g id="Shape">
<use xlink:href="#path12_fill" transform="translate(-25318 -18559)" fill="#828282"/>
</g>
</g>
</g>
<g id="Check Button">
<g id="ic_check_box_outline_blank">
<g id="Icon 24px">
<g id="Shape">
<use xlink:href="#path13_fill" transform="translate(-25322.5 -18519.5)" fill="#BDBDBD"/>
</g>
</g>
</g>
</g>
<g id="email">
<g id="Group">
<g id="Group">
<g id="Vector">
<use xlink:href="#path5_fill" transform="translate(-25325 -18538.1)" fill="#828282"/>
</g>
</g>
</g>
<g id="Group">
<g id="Group">
<g id="Vector">
<use xlink:href="#path6_fill" transform="translate(-25324.6 -18539)" fill="#828282"/>
</g>
</g>
</g>
<g id="Group">
<g id="Group">
<g id="Vector">
<use xlink:href="#path7_fill" transform="translate(-25324.6 -18532.8)" fill="#828282"/>
</g>
</g>
</g>
<g id="Group">
<g id="Group">
<g id="Vector">
<use xlink:href="#path8_fill" transform="translate(-25314.6 -18538.1)" fill="#828282"/>
</g>
</g>
</g>
</g>
<g id="&#239;&#132;&#133;">
<use xlink:href="#path1_fill" transform="matrix(-1 0 0 1 -25307 -18402)" fill="#C62828"/>
</g>
</g>
<g id="Component">
<g id="Group 4">
<g id="&#208;&#163;&#208;&#180;&#208;&#176;&#208;&#187;&#208;&#184;&#209;&#130;&#209;&#140; &#209;&#130;&#208;&#190;&#208;&#178;&#208;&#176;&#209;&#128;">
<g id="Path">
<use xlink:href="#path14_fill" transform="translate(-25323.3 -18360.3)" fill="#BDBDBD"/>
</g>
<g id="Path">
<use xlink:href="#path15_fill" transform="translate(-25319.2 -18356.2)" fill="#FFFFFF"/>
</g>
</g>
<g id="&#208;&#163;&#208;&#180;&#208;&#176;&#208;&#187;&#208;&#184;&#209;&#130;&#209;&#140; &#209;&#130;&#208;&#190;&#208;&#178;&#208;&#176;&#209;&#128;">
<g id="Path">
<use xlink:href="#path16_fill" transform="matrix(0.707107 -0.707107 0.707107 0.707107 -25326.8 -18332)" fill="#BDBDBD"/>
</g>
<g id="Path">
<use xlink:href="#path15_fill" transform="matrix(0.707107 -0.707107 0.707107 0.707107 -25320.9 -18332)" fill="#FFFFFF"/>
</g>
</g>
</g>
<g id="&#208;&#163;&#208;&#180;&#208;&#176;&#208;&#187;&#208;&#184;&#209;&#130;&#209;&#140; &#209;&#130;&#208;&#190;&#208;&#178;&#208;&#176;&#209;&#128;">
<g id="Path">
<use xlink:href="#path16_fill" transform="matrix(0.707107 -0.707107 0.707107 0.707107 -25306.8 -18332)" fill="#C62828"/>
</g>
<g id="Path">
<use xlink:href="#path15_fill" transform="matrix(0.707107 -0.707107 0.707107 0.707107 -25300.9 -18332)" fill="#FFFFFF"/>
</g>
</g>
<g id="&#208;&#163;&#208;&#180;&#208;&#176;&#208;&#187;&#208;&#184;&#209;&#130;&#209;&#140; &#209;&#130;&#208;&#190;&#208;&#178;&#208;&#176;&#209;&#128;">
<g id="Path">
<use xlink:href="#path14_fill" transform="translate(-25303.3 -18360.3)" fill="#C62828"/>
</g>
<g id="Path">
<use xlink:href="#path15_fill" transform="translate(-25299.2 -18356.2)" fill="#FFFFFF"/>
</g>
</g>
</g>
<g id="ic_mode_edit">
<g id="Icon 24px">
<g id="Shape">
<use xlink:href="#path17_fill" transform="translate(-25321.8 -18318.8)" fill="#FFFFFF"/>
</g>
</g>
</g>
<g id="ic_shopping_cart">
<g id="Icon 24px">
<g id="Shape">
<use xlink:href="#path18_fill" transform="translate(-25323.2 -18299.5)" fill="#C62828"/>
</g>
</g>
</g>
</g>
</g>
<defs>
<path id="path0_fill" fill-rule="evenodd" d="M 5.07342 12.1582C 4.14323 12.1582 3.39062 12.8421 3.39062 13.6779C 3.39062 14.5137 4.14323 15.1976 5.07342 15.1976C 6.00361 15.1976 6.76467 14.5137 6.76467 13.6779C 6.76467 12.8421 6.00361 12.1582 5.07342 12.1582ZM 0 0L 0 1.51968L 1.69125 1.51968L 4.7355 7.28687L 3.59391 9.14848C 3.45861 9.36123 3.3825 9.61198 3.3825 9.87792C 3.3825 10.7137 4.14356 11.3976 5.07375 11.3976L 15.2213 11.3976L 15.2213 9.87792L 5.42891 9.87792C 5.31053 9.87792 5.21751 9.79434 5.21751 9.68796L 5.24288 9.59678L 6.00394 8.35824L 12.3038 8.35824C 12.9381 8.35824 13.4962 8.04671 13.7837 7.57561L 16.811 2.64424C 16.8787 2.53787 16.9125 2.40869 16.9125 2.27952C 16.9125 1.86161 16.532 1.51968 16.0669 1.51968L 3.56008 1.51968L 2.76519 0L 0 0ZM 13.5304 12.1582C 12.6003 12.1582 11.8477 12.8421 11.8477 13.6779C 11.8477 14.5137 12.6003 15.1976 13.5304 15.1976C 14.4606 15.1976 15.2217 14.5137 15.2217 13.6779C 15.2217 12.8421 14.4606 12.1582 13.5304 12.1582Z"/>
<path id="path1_fill" d="M 10.7965 9.5C 10.7965 9.4375 10.7652 9.36719 10.7184 9.32031L 7.07773 5.67969C 7.03086 5.63281 6.96055 5.60156 6.89805 5.60156C 6.83555 5.60156 6.76523 5.63281 6.71836 5.67969L 6.32773 6.07031C 6.28086 6.11719 6.24961 6.1875 6.24961 6.25C 6.24961 6.3125 6.28086 6.38281 6.32773 6.42969L 9.39805 9.5L 6.32773 12.5703C 6.28086 12.6172 6.24961 12.6875 6.24961 12.75C 6.24961 12.8203 6.28086 12.8828 6.32773 12.9297L 6.71836 13.3203C 6.76523 13.3672 6.83555 13.3984 6.89805 13.3984C 6.96055 13.3984 7.03086 13.3672 7.07773 13.3203L 10.7184 9.67969C 10.7652 9.63281 10.7965 9.5625 10.7965 9.5Z"/>
<path id="path2_fill" fill-rule="evenodd" d="M 7.71337 0.00727273L 1.2802 0C 0.572552 0 0 0.654545 0 1.45455L 0 14.5455C 0 15.3455 0.572552 16 1.2802 16L 7.71337 16C 8.42101 16 9 15.3455 9 14.5455L 9 1.45455C 9 0.654545 8.42101 0.00727273 7.71337 0.00727273ZM 7.71442 13.092L 1.28125 13.092L 1.28125 2.91016L 7.71442 2.91016L 7.71442 13.092Z"/>
<path id="path3_fill" fill-rule="evenodd" d="M 5.99929 0.005L 0.995711 0C 0.445318 0 0 0.45 0 1L 0 10C 0 10.55 0.445318 11 0.995711 11L 5.99929 11C 6.54968 11 7 10.55 7 10L 7 1C 7 0.45 6.54968 0.005 5.99929 0.005ZM 5.99967 9.00195L 0.996094 9.00195L 0.996094 2.00195L 5.99967 2.00195L 5.99967 9.00195Z"/>
<path id="path4_fill" fill-rule="evenodd" d="M 13.3333 0L 1.66667 0C 0.741667 0 0 0.75 0 1.66667L 0 13.3333C 0 14.25 0.741667 15 1.66667 15L 13.3333 15C 14.2583 15 15 14.25 15 13.3333L 15 1.66667C 15 0.75 14.2583 0 13.3333 0ZM 5.83268 11.6658L 1.66602 7.49909L 2.84102 6.32409L 5.83268 9.30742L 12.1577 2.98242L 13.3327 4.16576L 5.83268 11.6658Z"/>
<path id="path5_fill" d="M 0 6.0359e-08L 0 9.24669L 4.61057 4.65516L 0 6.0359e-08Z"/>
<path id="path6_fill" d="M 4.47035e-10 8.65146e-08L 7.05516 7.12334L 14.1103 8.65146e-08L 4.47035e-10 8.65146e-08Z"/>
<path id="path7_fill" d="M 9.28248 6.5735e-05L 7.05155 2.2525L 4.82062 3.46058e-07L 4.69387e-09 4.80072L 14.1031 4.80072L 9.28248 6.5735e-05Z"/>
<path id="path8_fill" d="M 0 4.65515L 4.6106 9.24662L 4.6106 6.0359e-08L 0 4.65515Z"/>
<path id="path9_fill" fill-rule="evenodd" d="M 16 0L 2 0C 0.89 0 0 0.9 0 2L 0 14C 0 15.1 0.89 16 2 16L 6 16L 6 14L 2 14L 2 4L 16 4L 16 14L 12 14L 12 16L 16 16C 17.1 16 18 15.1 18 14L 18 2C 18 0.9 17.11 0 16 0ZM 9 6L 5 10L 8 10L 8 16L 10 16L 10 10L 13 10L 9 6Z"/>
<path id="path10_fill" fill-rule="evenodd" d="M 7.5 7.5C 9.57187 7.5 11.25 5.82188 11.25 3.75C 11.25 1.67812 9.57187 0 7.5 0C 5.42812 0 3.75 1.67812 3.75 3.75C 3.75 5.82188 5.42812 7.5 7.5 7.5ZM 7.5 9.375C 4.99687 9.375 0 10.6313 0 13.125L 0 15L 15 15L 15 13.125C 15 10.6313 10.0031 9.375 7.5 9.375Z"/>
<path id="path11_fill" fill-rule="evenodd" d="M 12.25 6.33333L 11.375 6.33333L 11.375 4.52381C 11.375 2.02667 9.415 0 7 0C 4.585 0 2.625 2.02667 2.625 4.52381L 2.625 6.33333L 1.75 6.33333C 0.7875 6.33333 0 7.14762 0 8.14286L 0 17.1905C 0 18.1857 0.7875 19 1.75 19L 12.25 19C 13.2125 19 14 18.1857 14 17.1905L 14 8.14286C 14 7.14762 13.2125 6.33333 12.25 6.33333ZM 7 14.4765C 6.0375 14.4765 5.25 13.6622 5.25 12.6669C 5.25 11.6717 6.0375 10.8574 7 10.8574C 7.9625 10.8574 8.75 11.6717 8.75 12.6669C 8.75 13.6622 7.9625 14.4765 7 14.4765ZM 9.71211 6.33304L 4.28711 6.33304L 4.28711 4.52351C 4.28711 2.97637 5.50336 1.71875 6.99961 1.71875C 8.49586 1.71875 9.71211 2.97637 9.71211 4.52351L 9.71211 6.33304Z"/>
<path id="path12_fill" fill-rule="evenodd" d="M 5.99929 0.005L 0.995711 0C 0.445318 0 0 0.45 0 1L 0 10C 0 10.55 0.445318 11 0.995711 11L 5.99929 11C 6.54968 11 7 10.55 7 10L 7 1C 7 0.45 6.54968 0.005 5.99929 0.005ZM 5.99967 9.00391L 0.996094 9.00391L 0.996094 2.00391L 5.99967 2.00391L 5.99967 9.00391Z"/>
<path id="path13_fill" fill-rule="evenodd" d="M 13.3327 1.66602L 13.3327 13.3327L 1.66602 13.3327L 1.66602 1.66602L 13.3327 1.66602ZM 13.3333 0L 1.66667 0C 0.75 0 0 0.75 0 1.66667L 0 13.3333C 0 14.25 0.75 15 1.66667 15L 13.3333 15C 14.25 15 15 14.25 15 13.3333L 15 1.66667C 15 0.75 14.25 0 13.3333 0Z"/>
<path id="path14_fill" fill-rule="evenodd" d="M 8.33333 0C 3.725 0 0 3.725 0 8.33333C 0 12.9417 3.725 16.6667 8.33333 16.6667C 12.9417 16.6667 16.6667 12.9417 16.6667 8.33333C 16.6667 3.725 12.9417 0 8.33333 0Z"/>
<path id="path15_fill" fill-rule="evenodd" d="M 8.33333 7.15833L 7.15833 8.33333L 4.16667 5.34167L 1.175 8.33333L 0 7.15833L 2.99167 4.16667L 0 1.175L 1.175 0L 4.16667 2.99167L 7.15833 0L 8.33333 1.175L 5.34167 4.16667L 8.33333 7.15833Z"/>
<path id="path16_fill" fill-rule="evenodd" d="M 8.33333 0C 3.725 0 0 3.725 0 8.33333C 0 12.9417 3.725 16.6667 8.33333 16.6667C 12.9417 16.6667 16.6667 12.9417 16.6667 8.33333C 16.6667 3.725 12.9417 0 8.33333 0Z"/>
<path id="path17_fill" fill-rule="evenodd" d="M 0 10.6895L 0 13.502L 2.8125 13.502L 11.1075 5.20703L 8.295 2.39453L 0 10.6895ZM 13.2827 3.03188C 13.5752 2.73938 13.5752 2.26688 13.2827 1.97438L 11.5277 0.219375C 11.2352 -0.073125 10.7627 -0.073125 10.4702 0.219375L 9.09766 1.59187L 11.9102 4.40438L 13.2827 3.03188Z"/>
<path id="path18_fill" fill-rule="evenodd" d="M 5.07342 12.1582C 4.14323 12.1582 3.39062 12.8421 3.39062 13.6779C 3.39062 14.5137 4.14323 15.1976 5.07342 15.1976C 6.00361 15.1976 6.76467 14.5137 6.76467 13.6779C 6.76467 12.8421 6.00361 12.1582 5.07342 12.1582L 5.07342 12.1582ZM 0 0L 0 1.51968L 1.69125 1.51968L 4.7355 7.28687L 3.59391 9.14848C 3.45861 9.36123 3.3825 9.61198 3.3825 9.87792C 3.3825 10.7137 4.14356 11.3976 5.07375 11.3976L 15.2213 11.3976L 15.2213 9.87792L 5.42891 9.87792C 5.31053 9.87792 5.21751 9.79434 5.21751 9.68796L 5.24287 9.59678L 6.00394 8.35824L 12.3038 8.35824C 12.9381 8.35824 13.4962 8.04671 13.7837 7.57561L 16.811 2.64424C 16.8787 2.53787 16.9125 2.40869 16.9125 2.27952C 16.9125 1.86161 16.532 1.51968 16.0669 1.51968L 3.56008 1.51968L 2.76519 0L 0 0L 0 0ZM 13.5305 12.1582C 12.6003 12.1582 11.8477 12.8421 11.8477 13.6779C 11.8477 14.5137 12.6003 15.1976 13.5305 15.1976C 14.4606 15.1976 15.2217 14.5137 15.2217 13.6779C 15.2217 12.8421 14.4606 12.1582 13.5305 12.1582L 13.5305 12.1582Z"/>
</defs>
</svg>
