<svg width="73" height="96" viewBox="0 0 73 96" version="1.1" xmlns="http://www.w3.org/2000/svg" xmlns:xlink="http://www.w3.org/1999/xlink">
<title>Group 2</title>
<desc>Created using Figma</desc>
<g id="Canvas" transform="translate(25024 18144)">
<g id="Group 2">
<g id="ic_shopping_cart">
<g id="Icon 24px">
<g id="Shape">
<use xlink:href="#path0_fill" transform="translate(-25023 -18094)" fill="#BDBDBD"/>
</g>
</g>
</g>
<g id="Group 23">
<g id="Polygon">
<use xlink:href="#path1_stroke" transform="matrix(-1 1.24409e-16 -1.20551e-16 -1 -25005 -18059.5)" fill="#BDBDBD"/>
</g>
<g id="Rectangle">
<use xlink:href="#path2_stroke" transform="matrix(-1 0 0 1 -25010.5 -18059.5)" fill="#BDBDBD"/>
</g>
</g>
<g id="Group 23.1">
<g id="Polygon">
<use xlink:href="#path1_stroke" transform="matrix(-1 1.24409e-16 -1.20551e-16 -1 -24981 -18059.5)" fill="#4F4F4F"/>
</g>
<g id="Rectangle">
<use xlink:href="#path2_stroke" transform="matrix(-1 0 0 1 -24986.5 -18059.5)" fill="#4F4F4F"/>
</g>
</g>
<g id="ic_compare_arrows2">
<g id="Icon 24px">
<g id="Shape">
<use xlink:href="#path3_fill" transform="translate(-25024 -18117)" fill="#BDBDBD"/>
</g>
</g>
</g>
<g id="Group">
<g id="Shape">
<use xlink:href="#path4_fill" transform="translate(-25022 -18141)" fill="#BDBDBD"/>
</g>
</g>
<g id="ic_shopping_cart">
<g id="Icon 24px">
<g id="Shape">
<use xlink:href="#path0_fill" transform="translate(-24999 -18094)" fill="#4F4F4F"/>
</g>
</g>
</g>
<g id="ic_compare_arrows2">
<g id="Icon 24px">
<g id="Shape">
<use xlink:href="#path3_fill" transform="translate(-25000 -18117)" fill="#4F4F4F"/>
</g>
</g>
</g>
<g id="Group">
<g id="Shape">
<use xlink:href="#path4_fill" transform="translate(-24998 -18141)" fill="#4F4F4F"/>
</g>
</g>
<g id="Group 23.2">
<g id="Polygon">
<use xlink:href="#path1_stroke" transform="matrix(-1 1.24409e-16 -1.20551e-16 -1 -24957 -18059.5)" fill="#C62828"/>
</g>
<g id="Rectangle">
<use xlink:href="#path2_stroke" transform="matrix(-1 0 0 1 -24962.5 -18059.5)" fill="#C62828"/>
</g>
</g>
<g id="ic_shopping_cart">
<g id="Icon 24px">
<g id="Shape">
<use xlink:href="#path0_fill" transform="translate(-24975 -18094)" fill="#C62828"/>
</g>
</g>
</g>
<g id="ic_compare_arrows2">
<g id="Icon 24px">
<g id="Shape">
<use xlink:href="#path3_fill" transform="translate(-24976 -18117)" fill="#C62828"/>
</g>
</g>
</g>
<g id="Group">
<g id="Shape">
<use xlink:href="#path4_fill" transform="translate(-24974 -18141)" fill="#C62828"/>
</g>
</g>
</g>
</g>
<defs>
<path id="path0_fill" fill-rule="evenodd" d="M 6.59916 16C 5.38916 16 4.41016 16.9 4.41016 18C 4.41016 19.1 5.38916 20 6.59916 20C 7.80916 20 8.79916 19.1 8.79916 18C 8.79916 16.9 7.80916 16 6.59916 16ZM 0 0L 0 2L 2.2 2L 6.16 9.59L 4.675 12.04C 4.499 12.32 4.4 12.65 4.4 13C 4.4 14.1 5.39 15 6.6 15L 19.8 15L 19.8 13L 7.062 13C 6.908 13 6.787 12.89 6.787 12.75L 6.82 12.63L 7.81 11L 16.005 11C 16.83 11 17.556 10.59 17.93 9.97L 21.868 3.48C 21.956 3.34 22 3.17 22 3C 22 2.45 21.505 2 20.9 2L 4.631 2L 3.597 0L 0 0ZM 17.5992 16C 16.3892 16 15.4102 16.9 15.4102 18C 15.4102 19.1 16.3892 20 17.5992 20C 18.8092 20 19.7992 19.1 19.7992 18C 19.7992 16.9 18.8092 16 17.5992 16Z"/>
<path id="path1_stroke" d="M 14 8.49962L 14 9.19962C 14.2564 9.19962 14.4924 9.0594 14.6149 8.83414C 14.7374 8.60887 14.727 8.33463 14.5877 8.11933L 14 8.49962ZM 0 8.49962L -0.587691 8.11933C -0.727007 8.33463 -0.737445 8.60887 -0.614899 8.83414C -0.492352 9.0594 -0.25644 9.19962 0 9.19962L 0 8.49962ZM 6.08769 0.380288C 6.29772 0.0557148 6.20486 -0.377664 5.88029 -0.587691C 5.55571 -0.797719 5.12234 -0.704861 4.91231 -0.380288L 6.08769 0.380288ZM 9.08769 -0.380288C 8.87766 -0.704861 8.44429 -0.797719 8.11971 -0.587691C 7.79514 -0.377664 7.70228 0.0557148 7.91231 0.380288L 9.08769 -0.380288ZM 14 7.79962L 0 7.79962L 0 9.19962L 14 9.19962L 14 7.79962ZM 0.587691 8.87991L 6.08769 0.380288L 4.91231 -0.380288L -0.587691 8.11933L 0.587691 8.87991ZM 7.91231 0.380288L 13.4123 8.87991L 14.5877 8.11933L 9.08769 -0.380288L 7.91231 0.380288Z"/>
<path id="path2_stroke" d="M 3.7 0C 3.7 -0.386599 3.3866 -0.7 3 -0.7C 2.6134 -0.7 2.3 -0.386599 2.3 0L 3.7 0ZM 3 5L 3.44813 5.53776C 3.60772 5.40476 3.7 5.20775 3.7 5L 3 5ZM 0 7.5L -0.7 7.5C -0.7 7.77161 -0.542878 8.01871 -0.296909 8.13391C -0.0509395 8.24912 0.239471 8.21164 0.448129 8.03776L 0 7.5ZM 0.7 0C 0.7 -0.386599 0.386599 -0.7 0 -0.7C -0.386599 -0.7 -0.7 -0.386599 -0.7 0L 0.7 0ZM 2.3 0L 2.3 5L 3.7 5L 3.7 0L 2.3 0ZM 2.55187 4.46224L -0.448129 6.96224L 0.448129 8.03776L 3.44813 5.53776L 2.55187 4.46224ZM 0.7 7.5L 0.7 0L -0.7 0L -0.7 7.5L 0.7 7.5Z"/>
<path id="path3_fill" fill-rule="evenodd" d="M 8.41183 11.5721L 0 11.5721L 0 14.1435L 8.41183 14.1435L 8.41183 18.0007L 13.1997 12.8578L 8.41183 7.71484L 8.41183 11.5721ZM 15.5887 10.2859L 15.5887 6.42868L 24.0005 6.42868L 24.0005 3.85721L 15.5887 3.85721L 15.5887 0L 10.8008 5.14294L 15.5887 10.2859Z"/>
<path id="path4_fill" fill-rule="evenodd" d="M 10 18L 8.55 16.7052C 3.4 12.1243 0 9.103 0 5.3951C 0 2.37384 2.42 0 5.5 0C 7.24 0 8.91 0.79455 10 2.05014C 11.09 0.79455 12.76 0 14.5 0C 17.58 0 20 2.37384 20 5.3951C 20 9.103 16.6 12.1243 11.45 16.715L 10 18Z"/>
</defs>
</svg>
