<svg width="66" height="132" viewBox="0 0 66 132" version="1.1" xmlns="http://www.w3.org/2000/svg" xmlns:xlink="http://www.w3.org/1999/xlink">
<title>&#208;&#161;&#208;&#191;&#209;&#128;&#208;&#176;&#208;&#185;&#209;&#130; &#208;&#184;&#208;&#186;&#208;&#190;&#208;&#189;&#208;&#190;&#208;&#186;3</title>
<desc>Created using Figma</desc>
<g id="Canvas" transform="translate(25072 18558)">
<g id="&#208;&#161;&#208;&#191;&#209;&#128;&#208;&#176;&#208;&#185;&#209;&#130; &#208;&#184;&#208;&#186;&#208;&#190;&#208;&#189;&#208;&#190;&#208;&#186;3">
<g id="ic_shopping_cart">
<g id="Icon 24px">
<g id="Shape">
<use xlink:href="#path0_fill" transform="translate(-25064.1 -18454.4)" fill="#BDBDBD"/>
</g>
</g>
</g>
<g id="ic_shopping_cart">
<g id="Shape">
<use xlink:href="#path0_fill" transform="translate(-25030.8 -18454.4)" fill="#C62828"/>
</g>
</g>
<g id="ic_person">
<g id="Shape">
<use xlink:href="#path1_fill" transform="translate(-25065.1 -18485.1)" fill="#BDBDBD"/>
</g>
<g id="Shape">
<use xlink:href="#path2_fill" transform="translate(-25060.8 -18480.8)" fill="#BDBDBD"/>
</g>
</g>
<g id="ic_person">
<g id="Shape">
<use xlink:href="#path1_fill" transform="translate(-25032.1 -18485.1)" fill="#C62828"/>
</g>
<g id="Shape">
<use xlink:href="#path2_fill" transform="translate(-25027.8 -18480.8)" fill="#C62828"/>
</g>
</g>
<g id="ic_compare_arrows2">
<g id="Icon 24px">
<g id="Shape">
<use xlink:href="#path3_fill" transform="translate(-25067.9 -18517.6)" fill="#BDBDBD"/>
</g>
</g>
</g>
<g id="ic_compare_arrows2">
<g id="Shape">
<use xlink:href="#path4_fill" transform="translate(-25036.2 -18517.6)" fill="#C62828"/>
</g>
</g>
<g id="Shape">
<use xlink:href="#path5_fill" transform="translate(-25066.5 -18551.1)" fill="#BDBDBD"/>
</g>
<g id="Shape">
<use xlink:href="#path6_fill" transform="translate(-25033.5 -18551.1)" fill="#C62828"/>
</g>
</g>
</g>
<defs>
<path id="path0_fill" fill-rule="evenodd" d="M 4.6263 8.96958L 4.6263 4.89844C 4.6263 3.39625 5.84547 2.17708 7.34766 2.17708C 8.84984 2.17708 10.069 3.39625 10.069 4.89844L 10.069 8.96958C 11.3861 8.08786 12.2461 6.59656 12.2461 4.89844C 12.2461 2.18797 10.0581 0 7.34766 0C 4.63719 0 2.44922 2.18797 2.44922 4.89844C 2.44922 6.59656 3.30917 8.08786 4.6263 8.96958L 4.6263 8.96958ZM 15.3376 14.0095L 10.3956 11.5494C 10.2105 11.4732 10.0146 11.4297 9.80776 11.4297L 8.98047 11.4297L 8.98047 4.89844C 8.98047 3.99495 8.25115 3.26562 7.34766 3.26562C 6.44417 3.26562 5.71484 3.99495 5.71484 4.89844L 5.71484 16.5894L 1.98115 15.8056C 1.89406 15.7947 1.81786 15.773 1.7199 15.773C 1.38245 15.773 1.07766 15.9145 0.859948 16.1322L 0 17.003L 5.3774 22.3804C 5.6713 22.6743 6.08495 22.8594 6.53125 22.8594L 13.9224 22.8594C 14.7389 22.8594 15.3702 22.2607 15.4899 21.466L 16.3064 15.7294C 16.3172 15.6532 16.3281 15.577 16.3281 15.5117C 16.3281 14.8368 15.9145 14.249 15.3376 14.0095L 15.3376 14.0095Z"/>
<path id="path1_fill" fill-rule="evenodd" d="M 13.6068 11.974L 12.7468 11.974L 12.442 11.6801C 13.5088 10.4391 14.151 8.82807 14.151 7.07552C 14.151 3.16766 10.9834 0 7.07552 0C 3.16766 0 0 3.16766 0 7.07552C 0 10.9834 3.16766 14.151 7.07552 14.151C 8.82807 14.151 10.4391 13.5088 11.6801 12.442L 11.974 12.7468L 11.974 13.6068L 17.4167 19.0386L 19.0386 17.4167L 13.6068 11.974L 13.6068 11.974ZM 7.07617 11.9746C 4.3657 11.9746 2.17773 9.78664 2.17773 7.07617C 2.17773 4.3657 4.3657 2.17773 7.07617 2.17773C 9.78664 2.17773 11.9746 4.3657 11.9746 7.07617C 11.9746 9.78664 9.78664 11.9746 7.07617 11.9746L 7.07617 11.9746Z"/>
<path id="path2_fill" fill-rule="evenodd" d="M 5.44271 3.26563L 3.26562 3.26563L 3.26562 5.44271L 2.17708 5.44271L 2.17708 3.26563L 0 3.26563L 0 2.17708L 2.17708 2.17708L 2.17708 0L 3.26562 0L 3.26562 2.17708L 5.44271 2.17708L 5.44271 3.26563L 5.44271 3.26563Z"/>
<path id="path3_fill" fill-rule="evenodd" d="M 9.15662 12.5952L 0 12.5952L 0 15.3944L 9.15662 15.3944L 9.15662 19.5931L 14.3685 13.9948L 9.15662 8.39648L 9.15662 12.5952L 9.15662 12.5952ZM 16.9677 11.1966L 16.9677 6.99788L 26.1243 6.99788L 26.1243 4.19873L 16.9677 4.19873L 16.9677 0L 11.7559 5.59831L 16.9677 11.1966L 16.9677 11.1966Z"/>
<path id="path4_fill" fill-rule="evenodd" d="M 9.15662 12.5952L 0 12.5952L 0 15.3944L 9.15662 15.3944L 9.15662 19.5931L 14.3685 13.9948L 9.15662 8.39648L 9.15662 12.5952L 9.15662 12.5952ZM 16.9677 11.1966L 16.9677 6.99788L 26.1243 6.99788L 26.1243 4.19873L 16.9677 4.19873L 16.9677 0L 11.7559 5.59831L 16.9677 11.1966L 16.9677 11.1966Z"/>
<path id="path5_fill" fill-rule="evenodd" d="M 10.8854 19.9747L 9.30703 18.5379C 3.70104 13.4544 0 10.1017 0 5.98698C 0 2.63427 2.63427 0 5.98698 0C 7.88104 0 9.69891 0.881719 10.8854 2.27505C 12.0719 0.881719 13.8898 0 15.7839 0C 19.1366 0 21.7708 2.63427 21.7708 5.98698C 21.7708 10.1017 18.0698 13.4544 12.4638 18.5488L 10.8854 19.9747L 10.8854 19.9747Z"/>
<path id="path6_fill" fill-rule="evenodd" d="M 10.8854 19.9747L 9.30703 18.5379C 3.70104 13.4544 0 10.1017 0 5.98698C 0 2.63427 2.63427 0 5.98698 0C 7.88104 0 9.69891 0.881719 10.8854 2.27505C 12.0719 0.881719 13.8898 0 15.7839 0C 19.1366 0 21.7708 2.63427 21.7708 5.98698C 21.7708 10.1017 18.0698 13.4544 12.4638 18.5488L 10.8854 19.9747L 10.8854 19.9747Z"/>
</defs>
</svg>
