<svg width="107" height="19" viewBox="0 0 107 19" version="1.1" xmlns="http://www.w3.org/2000/svg" xmlns:xlink="http://www.w3.org/1999/xlink">
<title>&#208;&#160;&#208;&#181;&#208;&#185;&#209;&#130;&#208;&#184;&#208;&#189;&#208;&#179;</title>
<desc>Created using Figma</desc>
<g id="Canvas" transform="translate(24981 18460)">
<g id="&#208;&#160;&#208;&#181;&#208;&#185;&#209;&#130;&#208;&#184;&#208;&#189;&#208;&#179;">
<g id="Star">
<use xlink:href="#path0_fill" transform="translate(-24981 -18460)" fill="#F2D363"/>
<mask id="mask0_outline_ins">
<use xlink:href="#path0_fill" fill="white" transform="translate(-24981 -18460)"/>
</mask>
<g mask="url(#mask0_outline_ins)">
<use xlink:href="#path1_stroke_2x" transform="translate(-24981 -18460)" fill="#F2D363"/>
</g>
</g>
<g id="Star">
<use xlink:href="#path0_fill" transform="translate(-24958.7 -18460)" fill="#F2D363"/>
<mask id="mask1_outline_ins">
<use xlink:href="#path0_fill" fill="white" transform="translate(-24958.7 -18460)"/>
</mask>
<g mask="url(#mask1_outline_ins)">
<use xlink:href="#path1_stroke_2x" transform="translate(-24958.7 -18460)" fill="#F2D363"/>
</g>
</g>
<g id="Star">
<mask id="mask2_outline_ins">
<use xlink:href="#path2_fill" fill="white" transform="translate(-24936.3 -18460)"/>
</mask>
<g mask="url(#mask2_outline_ins)">
<use xlink:href="#path3_stroke_2x" transform="translate(-24936.3 -18460)" fill="#F2D363"/>
</g>
</g>
<g id="Group">
<mask id="mask3_alpha" mask-type="alpha">
<g id="Rectangle">
<use xlink:href="#path4_fill" transform="matrix(-1 6.92367e-17 -6.47457e-17 -1 -24927.5 -18443)" fill="#C4C4C4"/>
</g>
</mask>
<g id="Star" mask="url(#mask3_alpha)">
<use xlink:href="#path2_fill" transform="translate(-24936.3 -18460)" fill="#F2D363"/>
<mask id="mask4_outline_ins">
<use xlink:href="#path2_fill" fill="white" transform="translate(-24936.3 -18460)"/>
</mask>
<g mask="url(#mask4_outline_ins)">
<use xlink:href="#path3_stroke_2x" transform="translate(-24936.3 -18460)" fill="#F2D363"/>
</g>
</g>
</g>
<g id="Star">
<mask id="mask5_outline_ins">
<use xlink:href="#path5_fill" fill="white" transform="translate(-24914 -18460)"/>
</mask>
<g mask="url(#mask5_outline_ins)">
<use xlink:href="#path6_stroke_2x" transform="translate(-24914 -18460)" fill="#BDBDBD"/>
</g>
</g>
<g id="Star">
<mask id="mask6_outline_ins">
<use xlink:href="#path7_fill" fill="white" transform="translate(-24891.6 -18460)"/>
</mask>
<g mask="url(#mask6_outline_ins)">
<use xlink:href="#path8_stroke_2x" transform="translate(-24891.6 -18460)" fill="#BDBDBD"/>
</g>
</g>
</g>
</g>
<defs>
<path id="path0_fill" d="M 8.81868 0L 11.4104 5.42973L 17.2057 6.30043L 13.0122 10.5269L 14.0022 16.4947L 8.81868 13.6771L 3.63519 16.4947L 4.62515 10.5269L 0.431617 6.30043L 6.22694 5.42973L 8.81868 0Z"/>
<path id="path1_stroke_2x" d="M 8.81868 0L 9.72114 -0.430768L 8.81868 -2.32143L 7.91622 -0.430768L 8.81868 0ZM 11.4104 5.42973L 10.508 5.8605L 10.7367 6.33973L 11.2619 6.41863L 11.4104 5.42973ZM 17.2057 6.30043L 17.9156 7.00476L 19.3049 5.60458L 17.3543 5.31153L 17.2057 6.30043ZM 13.0122 10.5269L 12.3023 9.82255L 11.942 10.1858L 12.0257 10.6905L 13.0122 10.5269ZM 14.0022 16.4947L 13.5246 17.3733L 15.3238 18.3513L 14.9887 16.3311L 14.0022 16.4947ZM 8.81868 13.6771L 9.29626 12.7985L 8.81868 12.5389L 8.3411 12.7985L 8.81868 13.6771ZM 3.63519 16.4947L 2.64867 16.3311L 2.31355 18.3513L 4.11277 17.3733L 3.63519 16.4947ZM 4.62515 10.5269L 5.61167 10.6905L 5.6954 10.1858L 5.33502 9.82255L 4.62515 10.5269ZM 0.431617 6.30043L 0.283043 5.31153L -1.66752 5.60458L -0.278249 7.00476L 0.431617 6.30043ZM 6.22694 5.42973L 6.37551 6.41863L 6.90065 6.33973L 7.1294 5.8605L 6.22694 5.42973ZM 7.91622 0.430768L 10.508 5.8605L 12.3129 4.99896L 9.72114 -0.430768L 7.91622 0.430768ZM 11.2619 6.41863L 17.0572 7.28933L 17.3543 5.31153L 11.559 4.44083L 11.2619 6.41863ZM 16.4959 5.59609L 12.3023 9.82255L 13.7221 11.2312L 17.9156 7.00476L 16.4959 5.59609ZM 12.0257 10.6905L 13.0157 16.6584L 14.9887 16.3311L 13.9987 10.3632L 12.0257 10.6905ZM 14.4798 15.6161L 9.29626 12.7985L 8.3411 14.5557L 13.5246 17.3733L 14.4798 15.6161ZM 8.3411 12.7985L 3.15761 15.6161L 4.11277 17.3733L 9.29626 14.5557L 8.3411 12.7985ZM 4.62171 16.6584L 5.61167 10.6905L 3.63863 10.3632L 2.64867 16.3311L 4.62171 16.6584ZM 5.33502 9.82255L 1.14148 5.59609L -0.278249 7.00476L 3.91528 11.2312L 5.33502 9.82255ZM 0.580191 7.28933L 6.37551 6.41863L 6.07836 4.44083L 0.283043 5.31153L 0.580191 7.28933ZM 7.1294 5.8605L 9.72114 0.430768L 7.91622 -0.430768L 5.32447 4.99896L 7.1294 5.8605Z"/>
<path id="path2_fill" d="M 8.81868 0L 11.4104 5.42974L 17.2057 6.30044L 13.0122 10.5269L 14.0022 16.4948L 8.81868 13.6771L 3.63519 16.4948L 4.62515 10.5269L 0.431617 6.30044L 6.22693 5.42974L 8.81868 0Z"/>
<path id="path3_stroke_2x" d="M 8.81868 0L 9.72114 -0.430767L 8.81868 -2.32144L 7.91622 -0.430767L 8.81868 0ZM 11.4104 5.42974L 10.508 5.86051L 10.7367 6.33974L 11.2619 6.41864L 11.4104 5.42974ZM 17.2057 6.30044L 17.9156 7.00478L 19.3049 5.60459L 17.3543 5.31154L 17.2057 6.30044ZM 13.0122 10.5269L 12.3023 9.82257L 11.942 10.1858L 12.0257 10.6905L 13.0122 10.5269ZM 14.0022 16.4948L 13.5246 17.3734L 15.3238 18.3514L 14.9887 16.3311L 14.0022 16.4948ZM 8.81868 13.6771L 9.29626 12.7985L 8.81868 12.5389L 8.3411 12.7985L 8.81868 13.6771ZM 3.63519 16.4948L 2.64867 16.3311L 2.31355 18.3514L 4.11277 17.3734L 3.63519 16.4948ZM 4.62515 10.5269L 5.61167 10.6905L 5.6954 10.1858L 5.33502 9.82257L 4.62515 10.5269ZM 0.431617 6.30044L 0.283043 5.31154L -1.66752 5.60459L -0.27825 7.00478L 0.431617 6.30044ZM 6.22693 5.42974L 6.37551 6.41864L 6.90065 6.33974L 7.1294 5.86051L 6.22693 5.42974ZM 7.91622 0.430767L 10.508 5.86051L 12.3129 4.99897L 9.72114 -0.430767L 7.91622 0.430767ZM 11.2619 6.41864L 17.0572 7.28934L 17.3543 5.31154L 11.559 4.44084L 11.2619 6.41864ZM 16.4959 5.5961L 12.3023 9.82257L 13.7221 11.2312L 17.9156 7.00478L 16.4959 5.5961ZM 12.0257 10.6905L 13.0157 16.6584L 14.9887 16.3311L 13.9987 10.3633L 12.0257 10.6905ZM 14.4798 15.6162L 9.29626 12.7985L 8.3411 14.5557L 13.5246 17.3734L 14.4798 15.6162ZM 8.3411 12.7985L 3.15761 15.6162L 4.11277 17.3734L 9.29626 14.5557L 8.3411 12.7985ZM 4.62171 16.6584L 5.61167 10.6905L 3.63863 10.3633L 2.64867 16.3311L 4.62171 16.6584ZM 5.33502 9.82257L 1.14148 5.5961L -0.27825 7.00478L 3.91528 11.2312L 5.33502 9.82257ZM 0.580191 7.28934L 6.37551 6.41864L 6.07836 4.44084L 0.283043 5.31154L 0.580191 7.28934ZM 7.1294 5.86051L 9.72114 0.430767L 7.91622 -0.430767L 5.32447 4.99897L 7.1294 5.86051Z"/>
<path id="path4_fill" d="M 0 0L 11.1703 0L 11.1703 17.0229L 0 17.0229L 0 0Z"/>
<path id="path5_fill" d="M 8.81868 0L 11.4104 5.42973L 17.2057 6.30043L 13.0122 10.5269L 14.0022 16.4947L 8.81868 13.6771L 3.63519 16.4947L 4.62515 10.5269L 0.431617 6.30043L 6.22694 5.42973L 8.81868 0Z"/>
<path id="path6_stroke_2x" d="M 8.81868 0L 9.72115 -0.430768L 8.81868 -2.32143L 7.91622 -0.430768L 8.81868 0ZM 11.4104 5.42973L 10.508 5.8605L 10.7367 6.33973L 11.2619 6.41863L 11.4104 5.42973ZM 17.2057 6.30043L 17.9156 7.00476L 19.3049 5.60458L 17.3543 5.31153L 17.2057 6.30043ZM 13.0122 10.5269L 12.3024 9.82254L 11.942 10.1858L 12.0257 10.6905L 13.0122 10.5269ZM 14.0022 16.4947L 13.5246 17.3733L 15.3238 18.3513L 14.9887 16.3311L 14.0022 16.4947ZM 8.81868 13.6771L 9.29627 12.7985L 8.81868 12.5389L 8.3411 12.7985L 8.81868 13.6771ZM 3.63519 16.4947L 2.64867 16.3311L 2.31355 18.3513L 4.11277 17.3733L 3.63519 16.4947ZM 4.62515 10.5269L 5.61167 10.6905L 5.6954 10.1858L 5.33502 9.82254L 4.62515 10.5269ZM 0.431617 6.30043L 0.283043 5.31153L -1.66752 5.60458L -0.278249 7.00476L 0.431617 6.30043ZM 6.22694 5.42973L 6.37551 6.41863L 6.90065 6.33973L 7.1294 5.8605L 6.22694 5.42973ZM 7.91622 0.430768L 10.508 5.8605L 12.3129 4.99896L 9.72115 -0.430768L 7.91622 0.430768ZM 11.2619 6.41863L 17.0572 7.28933L 17.3543 5.31153L 11.559 4.44083L 11.2619 6.41863ZM 16.4959 5.59609L 12.3024 9.82254L 13.7221 11.2312L 17.9156 7.00476L 16.4959 5.59609ZM 12.0257 10.6905L 13.0157 16.6584L 14.9887 16.3311L 13.9987 10.3632L 12.0257 10.6905ZM 14.4798 15.6161L 9.29627 12.7985L 8.3411 14.5557L 13.5246 17.3733L 14.4798 15.6161ZM 8.3411 12.7985L 3.15761 15.6161L 4.11277 17.3733L 9.29627 14.5557L 8.3411 12.7985ZM 4.62171 16.6584L 5.61167 10.6905L 3.63863 10.3632L 2.64867 16.3311L 4.62171 16.6584ZM 5.33502 9.82254L 1.14148 5.59609L -0.278249 7.00476L 3.91528 11.2312L 5.33502 9.82254ZM 0.580191 7.28933L 6.37551 6.41863L 6.07836 4.44083L 0.283043 5.31153L 0.580191 7.28933ZM 7.1294 5.8605L 9.72115 0.430768L 7.91622 -0.430768L 5.32447 4.99896L 7.1294 5.8605Z"/>
<path id="path7_fill" d="M 8.81868 0L 11.4104 5.42973L 17.2057 6.30043L 13.0122 10.5269L 14.0022 16.4947L 8.81868 13.6771L 3.63519 16.4947L 4.62515 10.5269L 0.431617 6.30043L 6.22693 5.42973L 8.81868 0Z"/>
<path id="path8_stroke_2x" d="M 8.81868 0L 9.72114 -0.430768L 8.81868 -2.32144L 7.91622 -0.430768L 8.81868 0ZM 11.4104 5.42973L 10.508 5.8605L 10.7367 6.33974L 11.2619 6.41864L 11.4104 5.42973ZM 17.2057 6.30043L 17.9156 7.00477L 19.3049 5.60459L 17.3543 5.31153L 17.2057 6.30043ZM 13.0122 10.5269L 12.3023 9.82256L 11.942 10.1858L 12.0257 10.6905L 13.0122 10.5269ZM 14.0022 16.4947L 13.5246 17.3733L 15.3238 18.3514L 14.9887 16.3311L 14.0022 16.4947ZM 8.81868 13.6771L 9.29626 12.7985L 8.81868 12.5389L 8.3411 12.7985L 8.81868 13.6771ZM 3.63519 16.4947L 2.64867 16.3311L 2.31355 18.3514L 4.11277 17.3733L 3.63519 16.4947ZM 4.62515 10.5269L 5.61167 10.6905L 5.6954 10.1858L 5.33501 9.82256L 4.62515 10.5269ZM 0.431617 6.30043L 0.283043 5.31153L -1.66752 5.60459L -0.27825 7.00477L 0.431617 6.30043ZM 6.22693 5.42973L 6.37551 6.41864L 6.90065 6.33974L 7.1294 5.8605L 6.22693 5.42973ZM 7.91622 0.430768L 10.508 5.8605L 12.3129 4.99897L 9.72114 -0.430768L 7.91622 0.430768ZM 11.2619 6.41864L 17.0572 7.28933L 17.3543 5.31153L 11.559 4.44083L 11.2619 6.41864ZM 16.4959 5.5961L 12.3023 9.82256L 13.7221 11.2312L 17.9156 7.00477L 16.4959 5.5961ZM 12.0257 10.6905L 13.0157 16.6584L 14.9887 16.3311L 13.9987 10.3632L 12.0257 10.6905ZM 14.4798 15.6162L 9.29626 12.7985L 8.3411 14.5557L 13.5246 17.3733L 14.4798 15.6162ZM 8.3411 12.7985L 3.15761 15.6162L 4.11277 17.3733L 9.29626 14.5557L 8.3411 12.7985ZM 4.62171 16.6584L 5.61167 10.6905L 3.63863 10.3632L 2.64867 16.3311L 4.62171 16.6584ZM 5.33501 9.82256L 1.14148 5.5961L -0.27825 7.00477L 3.91528 11.2312L 5.33501 9.82256ZM 0.580191 7.28933L 6.37551 6.41864L 6.07836 4.44083L 0.283043 5.31153L 0.580191 7.28933ZM 7.1294 5.8605L 9.72114 0.430768L 7.91622 -0.430768L 5.32447 4.99897L 7.1294 5.8605Z"/>
</defs>
</svg>
