<svg width="80" height="45" viewBox="0 0 80 45" version="1.1" xmlns="http://www.w3.org/2000/svg" xmlns:xlink="http://www.w3.org/1999/xlink">
<title>Component 4</title>
<desc>Created using Figma</desc>
<g id="Canvas" transform="translate(24931 18650)">
<g id="Component 4">
<g id="Group">
<g id="Rectangle 10">
<use xlink:href="#path0_fill" transform="matrix(7.24613e-17 -1 1 6.04033e-17 -24931 -18635)" fill="#7DC472"/>
</g>
<g id="&#208;&#157;&#208;&#158;&#208;&#146;&#208;&#152;&#208;&#157;&#208;&#154;&#208;&#144;">
<use xlink:href="#path1_fill" transform="matrix(1 4.28851e-17 -7.18545e-17 1 -24931 -18650)" fill="#FFFFFF"/>
</g>
</g>
<g id="Group">
<g id="Rectangle 10">
<use xlink:href="#path2_fill" transform="matrix(9.304e-17 -1 1 4.70432e-17 -24931 -18620)" fill="#F2D363"/>
</g>
<g id="&#208;&#165;&#208;&#152;&#208;&#162; &#208;&#159;&#208;&#160;&#208;&#158;&#208;&#148;&#208;&#144;&#208;&#150;">
<use xlink:href="#path3_fill" transform="matrix(1 4.28851e-17 -7.18545e-17 1 -24931 -18635)" fill="#FFFFFF"/>
</g>
</g>
<g id="Group">
<g id="Rectangle 10">
<use xlink:href="#path4_fill" transform="matrix(7.13624e-17 -1 1 6.13334e-17 -24931 -18605)" fill="#C62828"/>
</g>
<g id="+ &#208;&#159;&#208;&#158;&#208;&#148;&#208;&#144;&#208;&#160;&#208;&#158;&#208;&#154;">
<use xlink:href="#path5_fill" transform="matrix(1 4.28851e-17 -7.18545e-17 1 -24931 -18620)" fill="#FFFFFF"/>
</g>
</g>
</g>
</g>
<defs>
<path id="path0_fill" d="M 0 0L 15 0L 15 59L 0 59L 0 0Z"/>
<path id="path1_fill" d="M 7.04984 10C 6.99118 10 6.94318 9.98133 6.90584 9.944C 6.86851 9.90667 6.84984 9.85867 6.84984 9.8L 6.84984 4.6C 6.84984 4.54133 6.86851 4.49333 6.90584 4.456C 6.94851 4.41867 6.99651 4.4 7.04984 4.4L 8.08184 4.4C 8.14051 4.4 8.18851 4.41867 8.22584 4.456C 8.26851 4.49333 8.28984 4.54133 8.28984 4.6L 8.28984 6.528L 10.2578 6.528L 10.2578 4.6C 10.2578 4.54133 10.2765 4.49333 10.3138 4.456C 10.3512 4.41867 10.3992 4.4 10.4578 4.4L 11.4898 4.4C 11.5485 4.4 11.5965 4.41867 11.6338 4.456C 11.6712 4.49333 11.6898 4.54133 11.6898 4.6L 11.6898 9.8C 11.6898 9.85867 11.6712 9.90667 11.6338 9.944C 11.5965 9.98133 11.5485 10 11.4898 10L 10.4578 10C 10.3992 10 10.3512 9.98133 10.3138 9.944C 10.2765 9.90667 10.2578 9.85867 10.2578 9.8L 10.2578 7.808L 8.28984 7.808L 8.28984 9.8C 8.28984 9.85867 8.26851 9.90667 8.22584 9.944C 8.18851 9.98133 8.14051 10 8.08184 10L 7.04984 10ZM 15.8988 10.08C 15.1468 10.08 14.5548 9.896 14.1228 9.528C 13.6908 9.16 13.4614 8.61867 13.4348 7.904C 13.4294 7.74933 13.4268 7.52 13.4268 7.216C 13.4268 6.90667 13.4294 6.67467 13.4348 6.52C 13.4614 5.816 13.6934 5.27467 14.1308 4.896C 14.5734 4.512 15.1628 4.32 15.8988 4.32C 16.6348 4.32 17.2241 4.512 17.6668 4.896C 18.1094 5.27467 18.3414 5.816 18.3628 6.52C 18.3734 6.82933 18.3788 7.06133 18.3788 7.216C 18.3788 7.36533 18.3734 7.59467 18.3628 7.904C 18.3361 8.61867 18.1068 9.16 17.6748 9.528C 17.2428 9.896 16.6508 10.08 15.8988 10.08ZM 15.8988 8.928C 16.1921 8.928 16.4241 8.84 16.5948 8.664C 16.7708 8.488 16.8641 8.21867 16.8748 7.856C 16.8854 7.54667 16.8908 7.328 16.8908 7.2C 16.8908 7.06133 16.8854 6.84267 16.8748 6.544C 16.8641 6.18133 16.7708 5.912 16.5948 5.736C 16.4188 5.56 16.1868 5.472 15.8988 5.472C 15.6108 5.472 15.3788 5.56 15.2028 5.736C 15.0321 5.912 14.9388 6.18133 14.9228 6.544C 14.9174 6.69333 14.9148 6.912 14.9148 7.2C 14.9148 7.48267 14.9174 7.70133 14.9228 7.856C 14.9388 8.21867 15.0321 8.488 15.2028 8.664C 15.3734 8.84 15.6054 8.928 15.8988 8.928ZM 20.3061 10C 20.2528 10 20.2048 9.98133 20.1621 9.944C 20.1248 9.90133 20.1061 9.85333 20.1061 9.8L 20.1061 4.6C 20.1061 4.54133 20.1248 4.49333 20.1621 4.456C 20.2048 4.41867 20.2528 4.4 20.3061 4.4L 22.7461 4.4C 23.4181 4.4 23.9168 4.53867 24.2421 4.816C 24.5728 5.088 24.7381 5.47733 24.7381 5.984C 24.7381 6.25067 24.6688 6.47733 24.5301 6.664C 24.3968 6.84533 24.2448 6.97867 24.0741 7.064C 24.2928 7.16533 24.4768 7.328 24.6261 7.552C 24.7754 7.776 24.8501 8.02667 24.8501 8.304C 24.8501 8.83733 24.6741 9.25333 24.3221 9.552C 23.9701 9.85067 23.4688 10 22.8181 10L 20.3061 10ZM 22.5861 6.624C 22.7994 6.624 22.9621 6.57067 23.0741 6.464C 23.1861 6.352 23.2421 6.20533 23.2421 6.024C 23.2421 5.848 23.1861 5.70667 23.0741 5.6C 22.9621 5.49333 22.7994 5.44 22.5861 5.44L 21.5461 5.44L 21.5461 6.624L 22.5861 6.624ZM 22.6581 8.96C 22.8768 8.96 23.0474 8.896 23.1701 8.768C 23.2928 8.64 23.3541 8.48533 23.3541 8.304C 23.3541 8.112 23.2928 7.95467 23.1701 7.832C 23.0474 7.704 22.8768 7.64 22.6581 7.64L 21.5461 7.64L 21.5461 8.96L 22.6581 8.96ZM 26.7389 10C 26.6802 10 26.6322 9.98133 26.5949 9.944C 26.5576 9.90133 26.5389 9.85067 26.5389 9.792L 26.5389 4.6C 26.5389 4.54133 26.5576 4.49333 26.5949 4.456C 26.6376 4.41867 26.6856 4.4 26.7389 4.4L 27.7709 4.4C 27.8296 4.4 27.8776 4.41867 27.9149 4.456C 27.9576 4.49333 27.9789 4.54133 27.9789 4.6L 27.9789 7.816L 30.2509 4.552C 30.3149 4.45067 30.4056 4.4 30.5229 4.4L 31.4509 4.4C 31.5096 4.4 31.5576 4.41867 31.5949 4.456C 31.6322 4.49333 31.6509 4.54133 31.6509 4.6L 31.6509 9.8C 31.6509 9.85333 31.6322 9.90133 31.5949 9.944C 31.5576 9.98133 31.5096 10 31.4509 10L 30.4189 10C 30.3602 10 30.3096 9.98133 30.2669 9.944C 30.2296 9.90667 30.2109 9.85867 30.2109 9.8L 30.2109 6.696L 27.9389 9.848C 27.8696 9.94933 27.7789 10 27.6669 10L 26.7389 10ZM 33.7733 10C 33.7146 10 33.6666 9.98133 33.6293 9.944C 33.5919 9.90667 33.5733 9.85867 33.5733 9.8L 33.5733 4.6C 33.5733 4.54133 33.5919 4.49333 33.6293 4.456C 33.6719 4.41867 33.7199 4.4 33.7733 4.4L 34.8053 4.4C 34.8639 4.4 34.9119 4.41867 34.9493 4.456C 34.9919 4.49333 35.0133 4.54133 35.0133 4.6L 35.0133 6.528L 36.9813 6.528L 36.9813 4.6C 36.9813 4.54133 36.9999 4.49333 37.0373 4.456C 37.0746 4.41867 37.1226 4.4 37.1813 4.4L 38.2133 4.4C 38.2719 4.4 38.3199 4.41867 38.3573 4.456C 38.3946 4.49333 38.4133 4.54133 38.4133 4.6L 38.4133 9.8C 38.4133 9.85867 38.3946 9.90667 38.3573 9.944C 38.3199 9.98133 38.2719 10 38.2133 10L 37.1813 10C 37.1226 10 37.0746 9.98133 37.0373 9.944C 36.9999 9.90667 36.9813 9.85867 36.9813 9.8L 36.9813 7.808L 35.0133 7.808L 35.0133 9.8C 35.0133 9.85867 34.9919 9.90667 34.9493 9.944C 34.9119 9.98133 34.8639 10 34.8053 10L 33.7733 10ZM 45.1742 9.728C 45.1902 9.74933 45.1982 9.77867 45.1982 9.816C 45.1982 9.86933 45.1795 9.91467 45.1422 9.952C 45.1102 9.984 45.0675 10 45.0142 10L 43.8302 10C 43.7555 10 43.6995 9.98667 43.6622 9.96C 43.6302 9.93333 43.5929 9.896 43.5502 9.848L 42.3262 7.808L 41.7742 7.808L 41.7742 9.8C 41.7742 9.85867 41.7529 9.90667 41.7102 9.944C 41.6729 9.98133 41.6249 10 41.5662 10L 40.5342 10C 40.4755 10 40.4275 9.98133 40.3902 9.944C 40.3529 9.90667 40.3342 9.85867 40.3342 9.8L 40.3342 4.6C 40.3342 4.54133 40.3529 4.49333 40.3902 4.456C 40.4329 4.41867 40.4809 4.4 40.5342 4.4L 41.5662 4.4C 41.6249 4.4 41.6729 4.41867 41.7102 4.456C 41.7529 4.49333 41.7742 4.54133 41.7742 4.6L 41.7742 6.528L 42.2622 6.536L 43.4382 4.552C 43.4969 4.45067 43.5955 4.4 43.7342 4.4L 44.8942 4.4C 44.9422 4.4 44.9822 4.416 45.0142 4.448C 45.0462 4.48 45.0622 4.52 45.0622 4.568C 45.0622 4.58933 45.0515 4.62133 45.0302 4.664L 43.5422 7.096L 45.1742 9.728ZM 46.4236 10C 46.3809 10 46.3409 9.984 46.3036 9.952C 46.2716 9.91467 46.2556 9.87467 46.2556 9.832C 46.2556 9.8 46.2583 9.776 46.2636 9.76L 48.1436 4.624C 48.1596 4.56 48.1943 4.50667 48.2476 4.464C 48.3009 4.42133 48.3703 4.4 48.4556 4.4L 49.6396 4.4C 49.7249 4.4 49.7943 4.42133 49.8476 4.464C 49.9009 4.50667 49.9356 4.56 49.9516 4.624L 51.8236 9.76L 51.8396 9.832C 51.8396 9.87467 51.8209 9.91467 51.7836 9.952C 51.7516 9.984 51.7116 10 51.6636 10L 50.6796 10C 50.5516 10 50.4663 9.944 50.4236 9.832L 50.1116 9.016L 47.9756 9.016L 47.6716 9.832C 47.6289 9.944 47.5409 10 47.4076 10L 46.4236 10ZM 49.7916 7.864L 49.0476 5.752L 48.3036 7.864L 49.7916 7.864Z"/>
<path id="path2_fill" d="M 0 0L 15 0L 15 79.9889L 0 79.9889L 0 0Z"/>
<path id="path3_fill" d="M 8.21271 10C 8.16471 10 8.12204 9.984 8.08471 9.952C 8.05271 9.91467 8.03671 9.87467 8.03671 9.832C 8.03671 9.79467 8.04738 9.76267 8.06871 9.736L 9.81271 7.144L 8.19671 4.664C 8.18071 4.632 8.17271 4.6 8.17271 4.568C 8.17271 4.52533 8.18871 4.488 8.22071 4.456C 8.25271 4.41867 8.29271 4.4 8.34071 4.4L 9.50071 4.4C 9.56471 4.4 9.61804 4.416 9.66071 4.448C 9.70338 4.48 9.74338 4.52 9.78071 4.568L 10.7327 6.016L 11.7007 4.568C 11.77 4.456 11.8634 4.4 11.9807 4.4L 13.0847 4.4C 13.1274 4.4 13.1647 4.41867 13.1967 4.456C 13.234 4.488 13.2527 4.52533 13.2527 4.568C 13.2527 4.60533 13.242 4.63733 13.2207 4.664L 11.5967 7.136L 13.3567 9.736C 13.3727 9.75733 13.3807 9.78933 13.3807 9.832C 13.3807 9.87467 13.3647 9.91467 13.3327 9.952C 13.3007 9.984 13.2607 10 13.2127 10L 12.0207 10C 11.9087 10 11.8154 9.94667 11.7407 9.84L 10.6847 8.304L 9.63671 9.84C 9.57804 9.94667 9.48738 10 9.36471 10L 8.21271 10ZM 15.0321 10C 14.9735 10 14.9255 9.98133 14.8881 9.944C 14.8508 9.90133 14.8321 9.85067 14.8321 9.792L 14.8321 4.6C 14.8321 4.54133 14.8508 4.49333 14.8881 4.456C 14.9308 4.41867 14.9788 4.4 15.0321 4.4L 16.0641 4.4C 16.1228 4.4 16.1708 4.41867 16.2081 4.456C 16.2508 4.49333 16.2721 4.54133 16.2721 4.6L 16.2721 7.816L 18.5441 4.552C 18.6081 4.45067 18.6988 4.4 18.8161 4.4L 19.7441 4.4C 19.8028 4.4 19.8508 4.41867 19.8881 4.456C 19.9255 4.49333 19.9441 4.54133 19.9441 4.6L 19.9441 9.8C 19.9441 9.85333 19.9255 9.90133 19.8881 9.944C 19.8508 9.98133 19.8028 10 19.7441 10L 18.7121 10C 18.6535 10 18.6028 9.98133 18.5601 9.944C 18.5228 9.90667 18.5041 9.85867 18.5041 9.8L 18.5041 6.696L 16.2321 9.848C 16.1628 9.94933 16.0721 10 15.9601 10L 15.0321 10ZM 23.2985 10C 23.2452 10 23.1972 9.98133 23.1545 9.944C 23.1172 9.90133 23.0985 9.85333 23.0985 9.8L 23.0985 5.656L 21.6745 5.656C 21.6212 5.656 21.5732 5.63733 21.5305 5.6C 21.4932 5.55733 21.4745 5.50933 21.4745 5.456L 21.4745 4.6C 21.4745 4.54133 21.4932 4.49333 21.5305 4.456C 21.5732 4.41867 21.6212 4.4 21.6745 4.4L 25.9785 4.4C 26.0372 4.4 26.0852 4.41867 26.1225 4.456C 26.1599 4.49333 26.1785 4.54133 26.1785 4.6L 26.1785 5.456C 26.1785 5.51467 26.1599 5.56267 26.1225 5.6C 26.0852 5.63733 26.0372 5.656 25.9785 5.656L 24.5545 5.656L 24.5545 9.8C 24.5545 9.85333 24.5359 9.90133 24.4985 9.944C 24.4612 9.98133 24.4132 10 24.3545 10L 23.2985 10ZM 30.4087 10C 30.35 10 30.302 9.98133 30.2647 9.944C 30.2274 9.90667 30.2087 9.85867 30.2087 9.8L 30.2087 4.6C 30.2087 4.54133 30.2274 4.49333 30.2647 4.456C 30.3074 4.41867 30.3554 4.4 30.4087 4.4L 34.8487 4.4C 34.9074 4.4 34.9554 4.41867 34.9927 4.456C 35.03 4.49333 35.0487 4.54133 35.0487 4.6L 35.0487 9.8C 35.0487 9.85867 35.03 9.90667 34.9927 9.944C 34.9554 9.98133 34.9074 10 34.8487 10L 33.8167 10C 33.758 10 33.71 9.98133 33.6727 9.944C 33.6354 9.90667 33.6167 9.85867 33.6167 9.8L 33.6167 5.68L 31.6487 5.68L 31.6487 9.8C 31.6487 9.85867 31.6274 9.90667 31.5847 9.944C 31.5474 9.98133 31.4994 10 31.4407 10L 30.4087 10ZM 37.1696 10C 37.1163 10 37.0683 9.98133 37.0256 9.944C 36.9883 9.90133 36.9696 9.85333 36.9696 9.8L 36.9696 4.6C 36.9696 4.54133 36.9883 4.49333 37.0256 4.456C 37.0683 4.41867 37.1163 4.4 37.1696 4.4L 39.4096 4.4C 40.0923 4.4 40.6283 4.55733 41.0176 4.872C 41.4123 5.18667 41.6096 5.64533 41.6096 6.248C 41.6096 6.84533 41.415 7.296 41.0256 7.6C 40.6363 7.89867 40.0976 8.048 39.4096 8.048L 38.4576 8.048L 38.4576 9.8C 38.4576 9.85867 38.4363 9.90667 38.3936 9.944C 38.3563 9.98133 38.3083 10 38.2496 10L 37.1696 10ZM 39.3696 6.944C 39.6043 6.944 39.7883 6.88533 39.9216 6.768C 40.055 6.64533 40.1216 6.46667 40.1216 6.232C 40.1216 6.01333 40.0576 5.84 39.9296 5.712C 39.807 5.57867 39.6203 5.512 39.3696 5.512L 38.4336 5.512L 38.4336 6.944L 39.3696 6.944ZM 45.4639 10.08C 44.7119 10.08 44.1199 9.896 43.6879 9.528C 43.2559 9.16 43.0266 8.61867 42.9999 7.904C 42.9946 7.74933 42.9919 7.52 42.9919 7.216C 42.9919 6.90667 42.9946 6.67467 42.9999 6.52C 43.0266 5.816 43.2586 5.27467 43.6959 4.896C 44.1386 4.512 44.7279 4.32 45.4639 4.32C 46.1999 4.32 46.7892 4.512 47.2319 4.896C 47.6746 5.27467 47.9066 5.816 47.9279 6.52C 47.9386 6.82933 47.9439 7.06133 47.9439 7.216C 47.9439 7.36533 47.9386 7.59467 47.9279 7.904C 47.9012 8.61867 47.6719 9.16 47.2399 9.528C 46.8079 9.896 46.2159 10.08 45.4639 10.08ZM 45.4639 8.928C 45.7572 8.928 45.9892 8.84 46.1599 8.664C 46.3359 8.488 46.4292 8.21867 46.4399 7.856C 46.4506 7.54667 46.4559 7.328 46.4559 7.2C 46.4559 7.06133 46.4506 6.84267 46.4399 6.544C 46.4292 6.18133 46.3359 5.912 46.1599 5.736C 45.9839 5.56 45.7519 5.472 45.4639 5.472C 45.1759 5.472 44.9439 5.56 44.7679 5.736C 44.5972 5.912 44.5039 6.18133 44.4879 6.544C 44.4826 6.69333 44.4799 6.912 44.4799 7.2C 44.4799 7.48267 44.4826 7.70133 44.4879 7.856C 44.5039 8.21867 44.5972 8.488 44.7679 8.664C 44.9386 8.84 45.1706 8.928 45.4639 8.928ZM 49.5512 11.12C 49.4925 11.12 49.4419 11.1013 49.3992 11.064C 49.3619 11.0267 49.3432 10.9787 49.3432 10.92L 49.3432 8.92C 49.3432 8.86133 49.3619 8.81333 49.3992 8.776C 49.4419 8.73867 49.4925 8.72 49.5512 8.72L 49.6952 8.72C 49.9352 8.72 50.1059 8.50133 50.2072 8.064C 50.3139 7.62667 50.3672 7.01333 50.3672 6.224L 50.3672 4.6C 50.3672 4.54133 50.3859 4.49333 50.4232 4.456C 50.4659 4.41867 50.5139 4.4 50.5672 4.4L 54.3272 4.4C 54.3859 4.4 54.4339 4.41867 54.4712 4.456C 54.5085 4.49333 54.5272 4.54133 54.5272 4.6L 54.5272 8.72L 54.9032 8.72C 54.9619 8.72 55.0099 8.73867 55.0472 8.776C 55.0899 8.81333 55.1112 8.86133 55.1112 8.92L 55.1112 10.92C 55.1112 10.9787 55.0899 11.0267 55.0472 11.064C 55.0099 11.1013 54.9619 11.12 54.9032 11.12L 53.8712 11.12C 53.8179 11.12 53.7699 11.1013 53.7272 11.064C 53.6899 11.0267 53.6712 10.9787 53.6712 10.92L 53.6712 10L 50.7832 10L 50.7832 10.92C 50.7832 10.9787 50.7645 11.0267 50.7272 11.064C 50.6899 11.1013 50.6419 11.12 50.5832 11.12L 49.5512 11.12ZM 53.0952 8.72L 53.0952 5.68L 51.7592 5.68L 51.7592 6.408C 51.7592 7.49067 51.6365 8.26133 51.3912 8.72L 53.0952 8.72ZM 56.409 10C 56.3664 10 56.3264 9.984 56.289 9.952C 56.257 9.91467 56.241 9.87467 56.241 9.832C 56.241 9.8 56.2437 9.776 56.249 9.76L 58.129 4.624C 58.145 4.56 58.1797 4.50667 58.233 4.464C 58.2864 4.42133 58.3557 4.4 58.441 4.4L 59.625 4.4C 59.7104 4.4 59.7797 4.42133 59.833 4.464C 59.8864 4.50667 59.921 4.56 59.937 4.624L 61.809 9.76L 61.825 9.832C 61.825 9.87467 61.8064 9.91467 61.769 9.952C 61.737 9.984 61.697 10 61.649 10L 60.665 10C 60.537 10 60.4517 9.944 60.409 9.832L 60.097 9.016L 57.961 9.016L 57.657 9.832C 57.6144 9.944 57.5264 10 57.393 10L 56.409 10ZM 59.777 7.864L 59.033 5.752L 58.289 7.864L 59.777 7.864ZM 71.0396 9.728C 71.0556 9.74933 71.0636 9.77867 71.0636 9.816C 71.0636 9.86933 71.0449 9.91467 71.0076 9.952C 70.9756 9.984 70.9329 10 70.8796 10L 69.6956 10C 69.6209 10 69.5649 9.98667 69.5276 9.96C 69.4956 9.93333 69.4583 9.896 69.4156 9.848L 68.1916 7.808L 67.6636 7.808L 67.6636 9.8C 67.6636 9.85867 67.6449 9.90667 67.6076 9.944C 67.5703 9.98133 67.5223 10 67.4636 10L 66.4796 10C 66.4209 10 66.3729 9.98133 66.3356 9.944C 66.2983 9.90667 66.2796 9.85867 66.2796 9.8L 66.2796 7.808L 65.7516 7.808L 64.5276 9.848C 64.4849 9.896 64.4449 9.93333 64.4076 9.96C 64.3756 9.98667 64.3223 10 64.2476 10L 63.0636 10C 63.0103 10 62.9649 9.984 62.9276 9.952C 62.8956 9.91467 62.8796 9.86933 62.8796 9.816C 62.8796 9.77867 62.8876 9.74933 62.9036 9.728L 64.5356 7.096L 63.0476 4.664C 63.0263 4.62133 63.0156 4.58933 63.0156 4.568C 63.0156 4.52 63.0316 4.48 63.0636 4.448C 63.0956 4.416 63.1356 4.4 63.1836 4.4L 64.3356 4.4C 64.4743 4.4 64.5729 4.45067 64.6316 4.552L 65.8076 6.536L 66.2796 6.528L 66.2796 4.6C 66.2796 4.54133 66.2983 4.49333 66.3356 4.456C 66.3783 4.41867 66.4263 4.4 66.4796 4.4L 67.4636 4.4C 67.5223 4.4 67.5703 4.41867 67.6076 4.456C 67.6449 4.49333 67.6636 4.54133 67.6636 4.6L 67.6636 6.528L 68.1276 6.536L 69.3036 4.552C 69.3623 4.45067 69.4609 4.4 69.5996 4.4L 70.7596 4.4C 70.8076 4.4 70.8476 4.416 70.8796 4.448C 70.9116 4.48 70.9276 4.52 70.9276 4.568C 70.9276 4.58933 70.9169 4.62133 70.8956 4.664L 69.4076 7.096L 71.0396 9.728Z"/>
<path id="path4_fill" d="M 0 0L 15 0L 15 72L 0 72L 0 0Z"/>
<path id="path5_fill" d="M 11.047 9.736C 10.9936 9.736 10.9456 9.71733 10.903 9.68C 10.8656 9.63733 10.847 9.58933 10.847 9.536L 10.847 8.072L 9.42297 8.072C 9.3643 8.072 9.31364 8.05333 9.27097 8.016C 9.23364 7.97867 9.21497 7.93067 9.21497 7.872L 9.21497 7.288C 9.21497 7.22933 9.23364 7.18133 9.27097 7.144C 9.31364 7.10133 9.3643 7.08 9.42297 7.08L 10.847 7.08L 10.847 5.664C 10.847 5.60533 10.8656 5.55733 10.903 5.52C 10.9456 5.48267 10.9936 5.464 11.047 5.464L 11.703 5.464C 11.7616 5.464 11.8096 5.48267 11.847 5.52C 11.8843 5.55733 11.903 5.60533 11.903 5.664L 11.903 7.08L 13.319 7.08C 13.3776 7.08 13.4256 7.10133 13.463 7.144C 13.5003 7.18133 13.519 7.22933 13.519 7.288L 13.519 7.872C 13.519 7.93067 13.5003 7.97867 13.463 8.016C 13.4256 8.05333 13.3776 8.072 13.319 8.072L 11.903 8.072L 11.903 9.536C 11.903 9.58933 11.8843 9.63733 11.847 9.68C 11.8096 9.71733 11.7616 9.736 11.703 9.736L 11.047 9.736ZM 17.8655 10C 17.8068 10 17.7588 9.98133 17.7215 9.944C 17.6841 9.90667 17.6655 9.85867 17.6655 9.8L 17.6655 4.6C 17.6655 4.54133 17.6841 4.49333 17.7215 4.456C 17.7641 4.41867 17.8121 4.4 17.8655 4.4L 22.3055 4.4C 22.3641 4.4 22.4121 4.41867 22.4495 4.456C 22.4868 4.49333 22.5055 4.54133 22.5055 4.6L 22.5055 9.8C 22.5055 9.85867 22.4868 9.90667 22.4495 9.944C 22.4121 9.98133 22.3641 10 22.3055 10L 21.2735 10C 21.2148 10 21.1668 9.98133 21.1295 9.944C 21.0921 9.90667 21.0735 9.85867 21.0735 9.8L 21.0735 5.68L 19.1055 5.68L 19.1055 9.8C 19.1055 9.85867 19.0841 9.90667 19.0415 9.944C 19.0041 9.98133 18.9561 10 18.8975 10L 17.8655 10ZM 26.7144 10.08C 25.9624 10.08 25.3704 9.896 24.9384 9.528C 24.5064 9.16 24.2771 8.61867 24.2504 7.904C 24.2451 7.74933 24.2424 7.52 24.2424 7.216C 24.2424 6.90667 24.2451 6.67467 24.2504 6.52C 24.2771 5.816 24.5091 5.27467 24.9464 4.896C 25.3891 4.512 25.9784 4.32 26.7144 4.32C 27.4504 4.32 28.0397 4.512 28.4824 4.896C 28.9251 5.27467 29.1571 5.816 29.1784 6.52C 29.1891 6.82933 29.1944 7.06133 29.1944 7.216C 29.1944 7.36533 29.1891 7.59467 29.1784 7.904C 29.1517 8.61867 28.9224 9.16 28.4904 9.528C 28.0584 9.896 27.4664 10.08 26.7144 10.08ZM 26.7144 8.928C 27.0077 8.928 27.2397 8.84 27.4104 8.664C 27.5864 8.488 27.6797 8.21867 27.6904 7.856C 27.7011 7.54667 27.7064 7.328 27.7064 7.2C 27.7064 7.06133 27.7011 6.84267 27.6904 6.544C 27.6797 6.18133 27.5864 5.912 27.4104 5.736C 27.2344 5.56 27.0024 5.472 26.7144 5.472C 26.4264 5.472 26.1944 5.56 26.0184 5.736C 25.8477 5.912 25.7544 6.18133 25.7384 6.544C 25.7331 6.69333 25.7304 6.912 25.7304 7.2C 25.7304 7.48267 25.7331 7.70133 25.7384 7.856C 25.7544 8.21867 25.8477 8.488 26.0184 8.664C 26.1891 8.84 26.4211 8.928 26.7144 8.928ZM 30.8017 11.12C 30.7431 11.12 30.6924 11.1013 30.6497 11.064C 30.6124 11.0267 30.5937 10.9787 30.5937 10.92L 30.5937 8.92C 30.5937 8.86133 30.6124 8.81333 30.6497 8.776C 30.6924 8.73867 30.7431 8.72 30.8017 8.72L 30.9457 8.72C 31.1857 8.72 31.3564 8.50133 31.4577 8.064C 31.5644 7.62667 31.6177 7.01333 31.6177 6.224L 31.6177 4.6C 31.6177 4.54133 31.6364 4.49333 31.6737 4.456C 31.7164 4.41867 31.7644 4.4 31.8177 4.4L 35.5777 4.4C 35.6364 4.4 35.6844 4.41867 35.7217 4.456C 35.7591 4.49333 35.7777 4.54133 35.7777 4.6L 35.7777 8.72L 36.1537 8.72C 36.2124 8.72 36.2604 8.73867 36.2977 8.776C 36.3404 8.81333 36.3617 8.86133 36.3617 8.92L 36.3617 10.92C 36.3617 10.9787 36.3404 11.0267 36.2977 11.064C 36.2604 11.1013 36.2124 11.12 36.1537 11.12L 35.1217 11.12C 35.0684 11.12 35.0204 11.1013 34.9777 11.064C 34.9404 11.0267 34.9217 10.9787 34.9217 10.92L 34.9217 10L 32.0337 10L 32.0337 10.92C 32.0337 10.9787 32.0151 11.0267 31.9777 11.064C 31.9404 11.1013 31.8924 11.12 31.8337 11.12L 30.8017 11.12ZM 34.3457 8.72L 34.3457 5.68L 33.0097 5.68L 33.0097 6.408C 33.0097 7.49067 32.8871 8.26133 32.6417 8.72L 34.3457 8.72ZM 37.6595 10C 37.6169 10 37.5769 9.984 37.5395 9.952C 37.5075 9.91467 37.4915 9.87467 37.4915 9.832C 37.4915 9.8 37.4942 9.776 37.4995 9.76L 39.3795 4.624C 39.3955 4.56 39.4302 4.50667 39.4835 4.464C 39.5369 4.42133 39.6062 4.4 39.6915 4.4L 40.8755 4.4C 40.9609 4.4 41.0302 4.42133 41.0835 4.464C 41.1369 4.50667 41.1715 4.56 41.1875 4.624L 43.0595 9.76L 43.0755 9.832C 43.0755 9.87467 43.0569 9.91467 43.0195 9.952C 42.9875 9.984 42.9475 10 42.8995 10L 41.9155 10C 41.7875 10 41.7022 9.944 41.6595 9.832L 41.3475 9.016L 39.2115 9.016L 38.9075 9.832C 38.8649 9.944 38.7769 10 38.6435 10L 37.6595 10ZM 41.0275 7.864L 40.2835 5.752L 39.5395 7.864L 41.0275 7.864ZM 44.7061 10C 44.6528 10 44.6048 9.98133 44.5621 9.944C 44.5248 9.90133 44.5061 9.85333 44.5061 9.8L 44.5061 4.6C 44.5061 4.54133 44.5248 4.49333 44.5621 4.456C 44.6048 4.41867 44.6528 4.4 44.7061 4.4L 46.9461 4.4C 47.6288 4.4 48.1648 4.55733 48.5541 4.872C 48.9488 5.18667 49.1461 5.64533 49.1461 6.248C 49.1461 6.84533 48.9514 7.296 48.5621 7.6C 48.1728 7.89867 47.6341 8.048 46.9461 8.048L 45.9941 8.048L 45.9941 9.8C 45.9941 9.85867 45.9728 9.90667 45.9301 9.944C 45.8928 9.98133 45.8448 10 45.7861 10L 44.7061 10ZM 46.9061 6.944C 47.1408 6.944 47.3248 6.88533 47.4581 6.768C 47.5914 6.64533 47.6581 6.46667 47.6581 6.232C 47.6581 6.01333 47.5941 5.84 47.4661 5.712C 47.3434 5.57867 47.1568 5.512 46.9061 5.512L 45.9701 5.512L 45.9701 6.944L 46.9061 6.944ZM 53.0003 10.08C 52.2483 10.08 51.6563 9.896 51.2243 9.528C 50.7923 9.16 50.563 8.61867 50.5363 7.904C 50.531 7.74933 50.5283 7.52 50.5283 7.216C 50.5283 6.90667 50.531 6.67467 50.5363 6.52C 50.563 5.816 50.795 5.27467 51.2323 4.896C 51.675 4.512 52.2643 4.32 53.0003 4.32C 53.7363 4.32 54.3257 4.512 54.7683 4.896C 55.211 5.27467 55.443 5.816 55.4643 6.52C 55.475 6.82933 55.4803 7.06133 55.4803 7.216C 55.4803 7.36533 55.475 7.59467 55.4643 7.904C 55.4377 8.61867 55.2083 9.16 54.7763 9.528C 54.3443 9.896 53.7523 10.08 53.0003 10.08ZM 53.0003 8.928C 53.2937 8.928 53.5257 8.84 53.6963 8.664C 53.8723 8.488 53.9657 8.21867 53.9763 7.856C 53.987 7.54667 53.9923 7.328 53.9923 7.2C 53.9923 7.06133 53.987 6.84267 53.9763 6.544C 53.9657 6.18133 53.8723 5.912 53.6963 5.736C 53.5203 5.56 53.2883 5.472 53.0003 5.472C 52.7123 5.472 52.4803 5.56 52.3043 5.736C 52.1337 5.912 52.0403 6.18133 52.0243 6.544C 52.019 6.69333 52.0163 6.912 52.0163 7.2C 52.0163 7.48267 52.019 7.70133 52.0243 7.856C 52.0403 8.21867 52.1337 8.488 52.3043 8.664C 52.475 8.84 52.707 8.928 53.0003 8.928ZM 62.0477 9.728C 62.0637 9.74933 62.0717 9.77867 62.0717 9.816C 62.0717 9.86933 62.053 9.91467 62.0157 9.952C 61.9837 9.984 61.941 10 61.8877 10L 60.7037 10C 60.629 10 60.573 9.98667 60.5357 9.96C 60.5037 9.93333 60.4663 9.896 60.4237 9.848L 59.1997 7.808L 58.6477 7.808L 58.6477 9.8C 58.6477 9.85867 58.6263 9.90667 58.5837 9.944C 58.5463 9.98133 58.4983 10 58.4397 10L 57.4077 10C 57.349 10 57.301 9.98133 57.2637 9.944C 57.2263 9.90667 57.2077 9.85867 57.2077 9.8L 57.2077 4.6C 57.2077 4.54133 57.2263 4.49333 57.2637 4.456C 57.3063 4.41867 57.3543 4.4 57.4077 4.4L 58.4397 4.4C 58.4983 4.4 58.5463 4.41867 58.5837 4.456C 58.6263 4.49333 58.6477 4.54133 58.6477 4.6L 58.6477 6.528L 59.1357 6.536L 60.3117 4.552C 60.3703 4.45067 60.469 4.4 60.6077 4.4L 61.7677 4.4C 61.8157 4.4 61.8557 4.416 61.8877 4.448C 61.9197 4.48 61.9357 4.52 61.9357 4.568C 61.9357 4.58933 61.925 4.62133 61.9037 4.664L 60.4157 7.096L 62.0477 9.728Z"/>
</defs>
</svg>
