<svg width="89" height="60" viewBox="0 0 89 60" version="1.1" xmlns="http://www.w3.org/2000/svg" xmlns:xlink="http://www.w3.org/1999/xlink">
<title>Group 2</title>
<desc>Created using Figma</desc>
<g id="Canvas" transform="translate(25048 18650)">
<g id="Group 2">
<g id="Group">
<g id="Rectangle 10.1">
<use xlink:href="#path0_fill" transform="matrix(7.06191e-17 -1 1 6.1979e-17 -25048 -18630)" fill="#65B858"/>
</g>
<g id="Rectangle 10">
<use xlink:href="#path1_fill" transform="matrix(7.06191e-17 -1 1 6.1979e-17 -25048 -18632)" fill="#7DC472"/>
</g>
<g id="&#208;&#157;&#208;&#158;&#208;&#146;&#208;&#152;&#208;&#157;&#208;&#154;&#208;&#144;">
<use xlink:href="#path2_fill" transform="matrix(1 4.28851e-17 -7.18545e-17 1 -25048 -18650)" fill="#FFFFFF"/>
</g>
</g>
<g id="Group">
<g id="Rectangle 10.1">
<use xlink:href="#path0_fill" transform="matrix(7.06191e-17 -1 1 6.1979e-17 -25048 -18610)" fill="#E3C24D"/>
</g>
<g id="Rectangle 10">
<use xlink:href="#path3_fill" transform="matrix(9.07961e-17 -1 1 4.82058e-17 -25048 -18612)" fill="#F2D363"/>
</g>
<g id="&#208;&#165;&#208;&#152;&#208;&#162; &#208;&#159;&#208;&#160;&#208;&#158;&#208;&#148;&#208;&#144;&#208;&#150;">
<use xlink:href="#path4_fill" transform="matrix(1 4.28851e-17 -7.18545e-17 1 -25048 -18630)" fill="#FFFFFF"/>
</g>
</g>
<g id="Group">
<g id="Rectangle 10.1">
<use xlink:href="#path0_fill" transform="matrix(7.06191e-17 -1 1 6.1979e-17 -25048 -18590)" fill="#AD1F1F"/>
</g>
<g id="Rectangle 10">
<use xlink:href="#path5_fill" transform="matrix(7.06191e-17 -1 1 6.1979e-17 -25048 -18592)" fill="#C62828"/>
</g>
<g id="+ &#208;&#159;&#208;&#158;&#208;&#148;&#208;&#144;&#208;&#160;&#208;&#158;&#208;&#154;">
<use xlink:href="#path6_fill" transform="matrix(1 4.28851e-17 -7.18545e-17 1 -25046 -18610)" fill="#FFFFFF"/>
</g>
</g>
</g>
</g>
<defs>
<path id="path0_fill" d="M 2 0L 8 0L 8 3L 0 3L 2 0Z"/>
<path id="path1_fill" d="M 0 0L 18 0L 18 69L 0 69L 0 0Z"/>
<path id="path2_fill" d="M 9.24357 12C 9.17757 12 9.12357 11.979 9.08157 11.937C 9.03957 11.895 9.01857 11.841 9.01857 11.775L 9.01857 5.925C 9.01857 5.859 9.03957 5.805 9.08157 5.763C 9.12957 5.721 9.18357 5.7 9.24357 5.7L 10.4046 5.7C 10.4706 5.7 10.5246 5.721 10.5666 5.763C 10.6146 5.805 10.6386 5.859 10.6386 5.925L 10.6386 8.094L 12.8526 8.094L 12.8526 5.925C 12.8526 5.859 12.8736 5.805 12.9156 5.763C 12.9576 5.721 13.0116 5.7 13.0776 5.7L 14.2386 5.7C 14.3046 5.7 14.3586 5.721 14.4006 5.763C 14.4426 5.805 14.4636 5.859 14.4636 5.925L 14.4636 11.775C 14.4636 11.841 14.4426 11.895 14.4006 11.937C 14.3586 11.979 14.3046 12 14.2386 12L 13.0776 12C 13.0116 12 12.9576 11.979 12.9156 11.937C 12.8736 11.895 12.8526 11.841 12.8526 11.775L 12.8526 9.534L 10.6386 9.534L 10.6386 11.775C 10.6386 11.841 10.6146 11.895 10.5666 11.937C 10.5246 11.979 10.4706 12 10.4046 12L 9.24357 12ZM 19.1986 12.09C 18.3526 12.09 17.6866 11.883 17.2006 11.469C 16.7146 11.055 16.4566 10.446 16.4266 9.642C 16.4206 9.468 16.4176 9.21 16.4176 8.868C 16.4176 8.52 16.4206 8.259 16.4266 8.085C 16.4566 7.293 16.7176 6.684 17.2096 6.258C 17.7076 5.826 18.3706 5.61 19.1986 5.61C 20.0266 5.61 20.6896 5.826 21.1876 6.258C 21.6856 6.684 21.9466 7.293 21.9706 8.085C 21.9826 8.433 21.9886 8.694 21.9886 8.868C 21.9886 9.036 21.9826 9.294 21.9706 9.642C 21.9406 10.446 21.6826 11.055 21.1966 11.469C 20.7106 11.883 20.0446 12.09 19.1986 12.09ZM 19.1986 10.794C 19.5286 10.794 19.7896 10.695 19.9816 10.497C 20.1796 10.299 20.2846 9.996 20.2966 9.588C 20.3086 9.24 20.3146 8.994 20.3146 8.85C 20.3146 8.694 20.3086 8.448 20.2966 8.112C 20.2846 7.704 20.1796 7.401 19.9816 7.203C 19.7836 7.005 19.5226 6.906 19.1986 6.906C 18.8746 6.906 18.6136 7.005 18.4156 7.203C 18.2236 7.401 18.1186 7.704 18.1006 8.112C 18.0946 8.28 18.0916 8.526 18.0916 8.85C 18.0916 9.168 18.0946 9.414 18.1006 9.588C 18.1186 9.996 18.2236 10.299 18.4156 10.497C 18.6076 10.695 18.8686 10.794 19.1986 10.794ZM 24.1569 12C 24.0969 12 24.0429 11.979 23.9949 11.937C 23.9529 11.889 23.9319 11.835 23.9319 11.775L 23.9319 5.925C 23.9319 5.859 23.9529 5.805 23.9949 5.763C 24.0429 5.721 24.0969 5.7 24.1569 5.7L 26.9019 5.7C 27.6579 5.7 28.2189 5.856 28.5849 6.168C 28.9569 6.474 29.1429 6.912 29.1429 7.482C 29.1429 7.782 29.0649 8.037 28.9089 8.247C 28.7589 8.451 28.5879 8.601 28.3959 8.697C 28.6419 8.811 28.8489 8.994 29.0169 9.246C 29.1849 9.498 29.2689 9.78 29.2689 10.092C 29.2689 10.692 29.0709 11.16 28.6749 11.496C 28.2789 11.832 27.7149 12 26.9829 12L 24.1569 12ZM 26.7219 8.202C 26.9619 8.202 27.1449 8.142 27.2709 8.022C 27.3969 7.896 27.4599 7.731 27.4599 7.527C 27.4599 7.329 27.3969 7.17 27.2709 7.05C 27.1449 6.93 26.9619 6.87 26.7219 6.87L 25.5519 6.87L 25.5519 8.202L 26.7219 8.202ZM 26.8029 10.83C 27.0489 10.83 27.2409 10.758 27.3789 10.614C 27.5169 10.47 27.5859 10.296 27.5859 10.092C 27.5859 9.876 27.5169 9.699 27.3789 9.561C 27.2409 9.417 27.0489 9.345 26.8029 9.345L 25.5519 9.345L 25.5519 10.83L 26.8029 10.83ZM 31.3938 12C 31.3278 12 31.2738 11.979 31.2318 11.937C 31.1898 11.889 31.1688 11.832 31.1688 11.766L 31.1688 5.925C 31.1688 5.859 31.1898 5.805 31.2318 5.763C 31.2798 5.721 31.3338 5.7 31.3938 5.7L 32.5548 5.7C 32.6208 5.7 32.6748 5.721 32.7168 5.763C 32.7648 5.805 32.7888 5.859 32.7888 5.925L 32.7888 9.543L 35.3448 5.871C 35.4168 5.757 35.5188 5.7 35.6508 5.7L 36.6948 5.7C 36.7608 5.7 36.8148 5.721 36.8568 5.763C 36.8988 5.805 36.9198 5.859 36.9198 5.925L 36.9198 11.775C 36.9198 11.835 36.8988 11.889 36.8568 11.937C 36.8148 11.979 36.7608 12 36.6948 12L 35.5338 12C 35.4678 12 35.4108 11.979 35.3628 11.937C 35.3208 11.895 35.2998 11.841 35.2998 11.775L 35.2998 8.283L 32.7438 11.829C 32.6658 11.943 32.5638 12 32.4378 12L 31.3938 12ZM 39.3074 12C 39.2414 12 39.1874 11.979 39.1454 11.937C 39.1034 11.895 39.0824 11.841 39.0824 11.775L 39.0824 5.925C 39.0824 5.859 39.1034 5.805 39.1454 5.763C 39.1934 5.721 39.2474 5.7 39.3074 5.7L 40.4684 5.7C 40.5344 5.7 40.5884 5.721 40.6304 5.763C 40.6784 5.805 40.7024 5.859 40.7024 5.925L 40.7024 8.094L 42.9164 8.094L 42.9164 5.925C 42.9164 5.859 42.9374 5.805 42.9794 5.763C 43.0214 5.721 43.0754 5.7 43.1414 5.7L 44.3024 5.7C 44.3684 5.7 44.4224 5.721 44.4644 5.763C 44.5064 5.805 44.5274 5.859 44.5274 5.925L 44.5274 11.775C 44.5274 11.841 44.5064 11.895 44.4644 11.937C 44.4224 11.979 44.3684 12 44.3024 12L 43.1414 12C 43.0754 12 43.0214 11.979 42.9794 11.937C 42.9374 11.895 42.9164 11.841 42.9164 11.775L 42.9164 9.534L 40.7024 9.534L 40.7024 11.775C 40.7024 11.841 40.6784 11.895 40.6304 11.937C 40.5884 11.979 40.5344 12 40.4684 12L 39.3074 12ZM 52.1335 11.694C 52.1515 11.718 52.1605 11.751 52.1605 11.793C 52.1605 11.853 52.1395 11.904 52.0975 11.946C 52.0615 11.982 52.0135 12 51.9535 12L 50.6215 12C 50.5375 12 50.4745 11.985 50.4325 11.955C 50.3965 11.925 50.3545 11.883 50.3065 11.829L 48.9295 9.534L 48.3085 9.534L 48.3085 11.775C 48.3085 11.841 48.2845 11.895 48.2365 11.937C 48.1945 11.979 48.1405 12 48.0745 12L 46.9135 12C 46.8475 12 46.7935 11.979 46.7515 11.937C 46.7095 11.895 46.6885 11.841 46.6885 11.775L 46.6885 5.925C 46.6885 5.859 46.7095 5.805 46.7515 5.763C 46.7995 5.721 46.8535 5.7 46.9135 5.7L 48.0745 5.7C 48.1405 5.7 48.1945 5.721 48.2365 5.763C 48.2845 5.805 48.3085 5.859 48.3085 5.925L 48.3085 8.094L 48.8575 8.103L 50.1805 5.871C 50.2465 5.757 50.3575 5.7 50.5135 5.7L 51.8185 5.7C 51.8725 5.7 51.9175 5.718 51.9535 5.754C 51.9895 5.79 52.0075 5.835 52.0075 5.889C 52.0075 5.913 51.9955 5.949 51.9715 5.997L 50.2975 8.733L 52.1335 11.694ZM 53.539 12C 53.491 12 53.446 11.982 53.404 11.946C 53.368 11.904 53.35 11.859 53.35 11.811C 53.35 11.775 53.353 11.748 53.359 11.73L 55.474 5.952C 55.492 5.88 55.531 5.82 55.591 5.772C 55.651 5.724 55.729 5.7 55.825 5.7L 57.157 5.7C 57.253 5.7 57.331 5.724 57.391 5.772C 57.451 5.82 57.49 5.88 57.508 5.952L 59.614 11.73L 59.632 11.811C 59.632 11.859 59.611 11.904 59.569 11.946C 59.533 11.982 59.488 12 59.434 12L 58.327 12C 58.183 12 58.087 11.937 58.039 11.811L 57.688 10.893L 55.285 10.893L 54.943 11.811C 54.895 11.937 54.796 12 54.646 12L 53.539 12ZM 57.328 9.597L 56.491 7.221L 55.654 9.597L 57.328 9.597Z"/>
<path id="path3_fill" d="M 0 0L 18 0L 18 88.9888L 0 88.9888L 0 0Z"/>
<path id="path4_fill" d="M 8.73987 12C 8.68587 12 8.63787 11.982 8.59587 11.946C 8.55987 11.904 8.54187 11.859 8.54187 11.811C 8.54187 11.769 8.55387 11.733 8.57787 11.703L 10.5399 8.787L 8.72187 5.997C 8.70387 5.961 8.69487 5.925 8.69487 5.889C 8.69487 5.841 8.71287 5.799 8.74887 5.763C 8.78487 5.721 8.82987 5.7 8.88387 5.7L 10.1889 5.7C 10.2609 5.7 10.3209 5.718 10.3689 5.754C 10.4169 5.79 10.4619 5.835 10.5039 5.889L 11.5749 7.518L 12.6639 5.889C 12.7419 5.763 12.8469 5.7 12.9789 5.7L 14.2209 5.7C 14.2689 5.7 14.3109 5.721 14.3469 5.763C 14.3889 5.799 14.4099 5.841 14.4099 5.889C 14.4099 5.931 14.3979 5.967 14.3739 5.997L 12.5469 8.778L 14.5269 11.703C 14.5449 11.727 14.5539 11.763 14.5539 11.811C 14.5539 11.859 14.5359 11.904 14.4999 11.946C 14.4639 11.982 14.4189 12 14.3649 12L 13.0239 12C 12.8979 12 12.7929 11.94 12.7089 11.82L 11.5209 10.092L 10.3419 11.82C 10.2759 11.94 10.1739 12 10.0359 12L 8.73987 12ZM 16.4117 12C 16.3457 12 16.2917 11.979 16.2497 11.937C 16.2077 11.889 16.1867 11.832 16.1867 11.766L 16.1867 5.925C 16.1867 5.859 16.2077 5.805 16.2497 5.763C 16.2977 5.721 16.3517 5.7 16.4117 5.7L 17.5727 5.7C 17.6387 5.7 17.6927 5.721 17.7347 5.763C 17.7827 5.805 17.8067 5.859 17.8067 5.925L 17.8067 9.543L 20.3627 5.871C 20.4347 5.757 20.5367 5.7 20.6687 5.7L 21.7127 5.7C 21.7787 5.7 21.8327 5.721 21.8747 5.763C 21.9167 5.805 21.9377 5.859 21.9377 5.925L 21.9377 11.775C 21.9377 11.835 21.9167 11.889 21.8747 11.937C 21.8327 11.979 21.7787 12 21.7127 12L 20.5517 12C 20.4857 12 20.4287 11.979 20.3807 11.937C 20.3387 11.895 20.3177 11.841 20.3177 11.775L 20.3177 8.283L 17.7617 11.829C 17.6837 11.943 17.5817 12 17.4557 12L 16.4117 12ZM 25.7114 12C 25.6514 12 25.5974 11.979 25.5494 11.937C 25.5074 11.889 25.4864 11.835 25.4864 11.775L 25.4864 7.113L 23.8844 7.113C 23.8244 7.113 23.7704 7.092 23.7224 7.05C 23.6804 7.002 23.6594 6.948 23.6594 6.888L 23.6594 5.925C 23.6594 5.859 23.6804 5.805 23.7224 5.763C 23.7704 5.721 23.8244 5.7 23.8844 5.7L 28.7264 5.7C 28.7924 5.7 28.8464 5.721 28.8884 5.763C 28.9304 5.805 28.9514 5.859 28.9514 5.925L 28.9514 6.888C 28.9514 6.954 28.9304 7.008 28.8884 7.05C 28.8464 7.092 28.7924 7.113 28.7264 7.113L 27.1244 7.113L 27.1244 11.775C 27.1244 11.835 27.1034 11.889 27.0614 11.937C 27.0194 11.979 26.9654 12 26.8994 12L 25.7114 12ZM 33.7104 12C 33.6444 12 33.5904 11.979 33.5484 11.937C 33.5064 11.895 33.4854 11.841 33.4854 11.775L 33.4854 5.925C 33.4854 5.859 33.5064 5.805 33.5484 5.763C 33.5964 5.721 33.6504 5.7 33.7104 5.7L 38.7054 5.7C 38.7714 5.7 38.8254 5.721 38.8674 5.763C 38.9094 5.805 38.9304 5.859 38.9304 5.925L 38.9304 11.775C 38.9304 11.841 38.9094 11.895 38.8674 11.937C 38.8254 11.979 38.7714 12 38.7054 12L 37.5444 12C 37.4784 12 37.4244 11.979 37.3824 11.937C 37.3404 11.895 37.3194 11.841 37.3194 11.775L 37.3194 7.14L 35.1054 7.14L 35.1054 11.775C 35.1054 11.841 35.0814 11.895 35.0334 11.937C 34.9914 11.979 34.9374 12 34.8714 12L 33.7104 12ZM 41.3164 12C 41.2564 12 41.2024 11.979 41.1544 11.937C 41.1124 11.889 41.0914 11.835 41.0914 11.775L 41.0914 5.925C 41.0914 5.859 41.1124 5.805 41.1544 5.763C 41.2024 5.721 41.2564 5.7 41.3164 5.7L 43.8364 5.7C 44.6044 5.7 45.2074 5.877 45.6454 6.231C 46.0894 6.585 46.3114 7.101 46.3114 7.779C 46.3114 8.451 46.0924 8.958 45.6544 9.3C 45.2164 9.636 44.6104 9.804 43.8364 9.804L 42.7654 9.804L 42.7654 11.775C 42.7654 11.841 42.7414 11.895 42.6934 11.937C 42.6514 11.979 42.5974 12 42.5314 12L 41.3164 12ZM 43.7914 8.562C 44.0554 8.562 44.2624 8.496 44.4124 8.364C 44.5624 8.226 44.6374 8.025 44.6374 7.761C 44.6374 7.515 44.5654 7.32 44.4214 7.176C 44.2834 7.026 44.0734 6.951 43.7914 6.951L 42.7384 6.951L 42.7384 8.562L 43.7914 8.562ZM 50.6475 12.09C 49.8015 12.09 49.1355 11.883 48.6495 11.469C 48.1635 11.055 47.9055 10.446 47.8755 9.642C 47.8695 9.468 47.8665 9.21 47.8665 8.868C 47.8665 8.52 47.8695 8.259 47.8755 8.085C 47.9055 7.293 48.1665 6.684 48.6585 6.258C 49.1565 5.826 49.8195 5.61 50.6475 5.61C 51.4755 5.61 52.1385 5.826 52.6365 6.258C 53.1345 6.684 53.3955 7.293 53.4195 8.085C 53.4315 8.433 53.4375 8.694 53.4375 8.868C 53.4375 9.036 53.4315 9.294 53.4195 9.642C 53.3895 10.446 53.1315 11.055 52.6455 11.469C 52.1595 11.883 51.4935 12.09 50.6475 12.09ZM 50.6475 10.794C 50.9775 10.794 51.2385 10.695 51.4305 10.497C 51.6285 10.299 51.7335 9.996 51.7455 9.588C 51.7575 9.24 51.7635 8.994 51.7635 8.85C 51.7635 8.694 51.7575 8.448 51.7455 8.112C 51.7335 7.704 51.6285 7.401 51.4305 7.203C 51.2325 7.005 50.9715 6.906 50.6475 6.906C 50.3235 6.906 50.0625 7.005 49.8645 7.203C 49.6725 7.401 49.5675 7.704 49.5495 8.112C 49.5435 8.28 49.5405 8.526 49.5405 8.85C 49.5405 9.168 49.5435 9.414 49.5495 9.588C 49.5675 9.996 49.6725 10.299 49.8645 10.497C 50.0565 10.695 50.3175 10.794 50.6475 10.794ZM 55.2457 13.26C 55.1797 13.26 55.1227 13.239 55.0747 13.197C 55.0327 13.155 55.0117 13.101 55.0117 13.035L 55.0117 10.785C 55.0117 10.719 55.0327 10.665 55.0747 10.623C 55.1227 10.581 55.1797 10.56 55.2457 10.56L 55.4077 10.56C 55.6777 10.56 55.8697 10.314 55.9837 9.822C 56.1037 9.33 56.1637 8.64 56.1637 7.752L 56.1637 5.925C 56.1637 5.859 56.1847 5.805 56.2267 5.763C 56.2747 5.721 56.3287 5.7 56.3887 5.7L 60.6187 5.7C 60.6847 5.7 60.7387 5.721 60.7807 5.763C 60.8227 5.805 60.8437 5.859 60.8437 5.925L 60.8437 10.56L 61.2667 10.56C 61.3327 10.56 61.3867 10.581 61.4287 10.623C 61.4767 10.665 61.5007 10.719 61.5007 10.785L 61.5007 13.035C 61.5007 13.101 61.4767 13.155 61.4287 13.197C 61.3867 13.239 61.3327 13.26 61.2667 13.26L 60.1057 13.26C 60.0457 13.26 59.9917 13.239 59.9437 13.197C 59.9017 13.155 59.8807 13.101 59.8807 13.035L 59.8807 12L 56.6317 12L 56.6317 13.035C 56.6317 13.101 56.6107 13.155 56.5687 13.197C 56.5267 13.239 56.4727 13.26 56.4067 13.26L 55.2457 13.26ZM 59.2327 10.56L 59.2327 7.14L 57.7297 7.14L 57.7297 7.959C 57.7297 9.177 57.5917 10.044 57.3157 10.56L 59.2327 10.56ZM 62.9607 12C 62.9127 12 62.8677 11.982 62.8257 11.946C 62.7897 11.904 62.7717 11.859 62.7717 11.811C 62.7717 11.775 62.7747 11.748 62.7807 11.73L 64.8957 5.952C 64.9137 5.88 64.9527 5.82 65.0127 5.772C 65.0727 5.724 65.1507 5.7 65.2467 5.7L 66.5787 5.7C 66.6747 5.7 66.7527 5.724 66.8127 5.772C 66.8727 5.82 66.9117 5.88 66.9297 5.952L 69.0357 11.73L 69.0537 11.811C 69.0537 11.859 69.0327 11.904 68.9907 11.946C 68.9547 11.982 68.9097 12 68.8557 12L 67.7487 12C 67.6047 12 67.5087 11.937 67.4607 11.811L 67.1097 10.893L 64.7067 10.893L 64.3647 11.811C 64.3167 11.937 64.2177 12 64.0677 12L 62.9607 12ZM 66.7497 9.597L 65.9127 7.221L 65.0757 9.597L 66.7497 9.597ZM 79.4201 11.694C 79.4381 11.718 79.4471 11.751 79.4471 11.793C 79.4471 11.853 79.4261 11.904 79.3841 11.946C 79.3481 11.982 79.3001 12 79.2401 12L 77.9081 12C 77.8241 12 77.7611 11.985 77.7191 11.955C 77.6831 11.925 77.6411 11.883 77.5931 11.829L 76.2161 9.534L 75.6221 9.534L 75.6221 11.775C 75.6221 11.841 75.6011 11.895 75.5591 11.937C 75.5171 11.979 75.4631 12 75.3971 12L 74.2901 12C 74.2241 12 74.1701 11.979 74.1281 11.937C 74.0861 11.895 74.0651 11.841 74.0651 11.775L 74.0651 9.534L 73.4711 9.534L 72.0941 11.829C 72.0461 11.883 72.0011 11.925 71.9591 11.955C 71.9231 11.985 71.8631 12 71.7791 12L 70.4471 12C 70.3871 12 70.3361 11.982 70.2941 11.946C 70.2581 11.904 70.2401 11.853 70.2401 11.793C 70.2401 11.751 70.2491 11.718 70.2671 11.694L 72.1031 8.733L 70.4291 5.997C 70.4051 5.949 70.3931 5.913 70.3931 5.889C 70.3931 5.835 70.4111 5.79 70.4471 5.754C 70.4831 5.718 70.5281 5.7 70.5821 5.7L 71.8781 5.7C 72.0341 5.7 72.1451 5.757 72.2111 5.871L 73.5341 8.103L 74.0651 8.094L 74.0651 5.925C 74.0651 5.859 74.0861 5.805 74.1281 5.763C 74.1761 5.721 74.2301 5.7 74.2901 5.7L 75.3971 5.7C 75.4631 5.7 75.5171 5.721 75.5591 5.763C 75.6011 5.805 75.6221 5.859 75.6221 5.925L 75.6221 8.094L 76.1441 8.103L 77.4671 5.871C 77.5331 5.757 77.6441 5.7 77.8001 5.7L 79.1051 5.7C 79.1591 5.7 79.2041 5.718 79.2401 5.754C 79.2761 5.79 79.2941 5.835 79.2941 5.889C 79.2941 5.913 79.2821 5.949 79.2581 5.997L 77.5841 8.733L 79.4201 11.694Z"/>
<path id="path5_fill" d="M 0 0L 18 0L 18 78L 0 78L 0 0Z"/>
<path id="path6_fill" d="M 8.92784 11.703C 8.86784 11.703 8.81384 11.682 8.76584 11.64C 8.72384 11.592 8.70284 11.538 8.70284 11.478L 8.70284 9.831L 7.10084 9.831C 7.03484 9.831 6.97784 9.81 6.92984 9.768C 6.88784 9.726 6.86684 9.672 6.86684 9.606L 6.86684 8.949C 6.86684 8.883 6.88784 8.829 6.92984 8.787C 6.97784 8.739 7.03484 8.715 7.10084 8.715L 8.70284 8.715L 8.70284 7.122C 8.70284 7.056 8.72384 7.002 8.76584 6.96C 8.81384 6.918 8.86784 6.897 8.92784 6.897L 9.66584 6.897C 9.73184 6.897 9.78584 6.918 9.82784 6.96C 9.86984 7.002 9.89084 7.056 9.89084 7.122L 9.89084 8.715L 11.4838 8.715C 11.5498 8.715 11.6038 8.739 11.6458 8.787C 11.6878 8.829 11.7088 8.883 11.7088 8.949L 11.7088 9.606C 11.7088 9.672 11.6878 9.726 11.6458 9.768C 11.6038 9.81 11.5498 9.831 11.4838 9.831L 9.89084 9.831L 9.89084 11.478C 9.89084 11.538 9.86984 11.592 9.82784 11.64C 9.78584 11.682 9.73184 11.703 9.66584 11.703L 8.92784 11.703ZM 16.5987 12C 16.5327 12 16.4787 11.979 16.4367 11.937C 16.3947 11.895 16.3737 11.841 16.3737 11.775L 16.3737 5.925C 16.3737 5.859 16.3947 5.805 16.4367 5.763C 16.4847 5.721 16.5387 5.7 16.5987 5.7L 21.5937 5.7C 21.6597 5.7 21.7137 5.721 21.7557 5.763C 21.7977 5.805 21.8187 5.859 21.8187 5.925L 21.8187 11.775C 21.8187 11.841 21.7977 11.895 21.7557 11.937C 21.7137 11.979 21.6597 12 21.5937 12L 20.4327 12C 20.3667 12 20.3127 11.979 20.2707 11.937C 20.2287 11.895 20.2077 11.841 20.2077 11.775L 20.2077 7.14L 17.9937 7.14L 17.9937 11.775C 17.9937 11.841 17.9697 11.895 17.9217 11.937C 17.8797 11.979 17.8257 12 17.7597 12L 16.5987 12ZM 26.5537 12.09C 25.7077 12.09 25.0417 11.883 24.5557 11.469C 24.0697 11.055 23.8117 10.446 23.7817 9.642C 23.7757 9.468 23.7727 9.21 23.7727 8.868C 23.7727 8.52 23.7757 8.259 23.7817 8.085C 23.8117 7.293 24.0727 6.684 24.5647 6.258C 25.0627 5.826 25.7257 5.61 26.5537 5.61C 27.3817 5.61 28.0447 5.826 28.5427 6.258C 29.0407 6.684 29.3017 7.293 29.3257 8.085C 29.3377 8.433 29.3437 8.694 29.3437 8.868C 29.3437 9.036 29.3377 9.294 29.3257 9.642C 29.2957 10.446 29.0377 11.055 28.5517 11.469C 28.0657 11.883 27.3997 12.09 26.5537 12.09ZM 26.5537 10.794C 26.8837 10.794 27.1447 10.695 27.3367 10.497C 27.5347 10.299 27.6397 9.996 27.6517 9.588C 27.6637 9.24 27.6697 8.994 27.6697 8.85C 27.6697 8.694 27.6637 8.448 27.6517 8.112C 27.6397 7.704 27.5347 7.401 27.3367 7.203C 27.1387 7.005 26.8777 6.906 26.5537 6.906C 26.2297 6.906 25.9687 7.005 25.7707 7.203C 25.5787 7.401 25.4737 7.704 25.4557 8.112C 25.4497 8.28 25.4467 8.526 25.4467 8.85C 25.4467 9.168 25.4497 9.414 25.4557 9.588C 25.4737 9.996 25.5787 10.299 25.7707 10.497C 25.9627 10.695 26.2237 10.794 26.5537 10.794ZM 31.1519 13.26C 31.0859 13.26 31.0289 13.239 30.9809 13.197C 30.9389 13.155 30.9179 13.101 30.9179 13.035L 30.9179 10.785C 30.9179 10.719 30.9389 10.665 30.9809 10.623C 31.0289 10.581 31.0859 10.56 31.1519 10.56L 31.3139 10.56C 31.5839 10.56 31.7759 10.314 31.8899 9.822C 32.0099 9.33 32.0699 8.64 32.0699 7.752L 32.0699 5.925C 32.0699 5.859 32.0909 5.805 32.1329 5.763C 32.1809 5.721 32.2349 5.7 32.2949 5.7L 36.5249 5.7C 36.5909 5.7 36.6449 5.721 36.6869 5.763C 36.7289 5.805 36.7499 5.859 36.7499 5.925L 36.7499 10.56L 37.1729 10.56C 37.2389 10.56 37.2929 10.581 37.3349 10.623C 37.3829 10.665 37.4069 10.719 37.4069 10.785L 37.4069 13.035C 37.4069 13.101 37.3829 13.155 37.3349 13.197C 37.2929 13.239 37.2389 13.26 37.1729 13.26L 36.0119 13.26C 35.9519 13.26 35.8979 13.239 35.8499 13.197C 35.8079 13.155 35.7869 13.101 35.7869 13.035L 35.7869 12L 32.5379 12L 32.5379 13.035C 32.5379 13.101 32.5169 13.155 32.4749 13.197C 32.4329 13.239 32.3789 13.26 32.3129 13.26L 31.1519 13.26ZM 35.1389 10.56L 35.1389 7.14L 33.6359 7.14L 33.6359 7.959C 33.6359 9.177 33.4979 10.044 33.2219 10.56L 35.1389 10.56ZM 38.867 12C 38.819 12 38.774 11.982 38.732 11.946C 38.696 11.904 38.678 11.859 38.678 11.811C 38.678 11.775 38.681 11.748 38.687 11.73L 40.802 5.952C 40.82 5.88 40.859 5.82 40.919 5.772C 40.979 5.724 41.057 5.7 41.153 5.7L 42.485 5.7C 42.581 5.7 42.659 5.724 42.719 5.772C 42.779 5.82 42.818 5.88 42.836 5.952L 44.942 11.73L 44.96 11.811C 44.96 11.859 44.939 11.904 44.897 11.946C 44.861 11.982 44.816 12 44.762 12L 43.655 12C 43.511 12 43.415 11.937 43.367 11.811L 43.016 10.893L 40.613 10.893L 40.271 11.811C 40.223 11.937 40.124 12 39.974 12L 38.867 12ZM 42.656 9.597L 41.819 7.221L 40.982 9.597L 42.656 9.597ZM 46.7944 12C 46.7344 12 46.6804 11.979 46.6324 11.937C 46.5904 11.889 46.5694 11.835 46.5694 11.775L 46.5694 5.925C 46.5694 5.859 46.5904 5.805 46.6324 5.763C 46.6804 5.721 46.7344 5.7 46.7944 5.7L 49.3144 5.7C 50.0824 5.7 50.6854 5.877 51.1234 6.231C 51.5674 6.585 51.7894 7.101 51.7894 7.779C 51.7894 8.451 51.5704 8.958 51.1324 9.3C 50.6944 9.636 50.0884 9.804 49.3144 9.804L 48.2434 9.804L 48.2434 11.775C 48.2434 11.841 48.2194 11.895 48.1714 11.937C 48.1294 11.979 48.0754 12 48.0094 12L 46.7944 12ZM 49.2694 8.562C 49.5334 8.562 49.7404 8.496 49.8904 8.364C 50.0404 8.226 50.1154 8.025 50.1154 7.761C 50.1154 7.515 50.0434 7.32 49.8994 7.176C 49.7614 7.026 49.5514 6.951 49.2694 6.951L 48.2164 6.951L 48.2164 8.562L 49.2694 8.562ZM 56.1254 12.09C 55.2794 12.09 54.6134 11.883 54.1274 11.469C 53.6414 11.055 53.3834 10.446 53.3534 9.642C 53.3474 9.468 53.3444 9.21 53.3444 8.868C 53.3444 8.52 53.3474 8.259 53.3534 8.085C 53.3834 7.293 53.6444 6.684 54.1364 6.258C 54.6344 5.826 55.2974 5.61 56.1254 5.61C 56.9534 5.61 57.6164 5.826 58.1144 6.258C 58.6124 6.684 58.8734 7.293 58.8974 8.085C 58.9094 8.433 58.9154 8.694 58.9154 8.868C 58.9154 9.036 58.9094 9.294 58.8974 9.642C 58.8674 10.446 58.6094 11.055 58.1234 11.469C 57.6374 11.883 56.9714 12.09 56.1254 12.09ZM 56.1254 10.794C 56.4554 10.794 56.7164 10.695 56.9084 10.497C 57.1064 10.299 57.2114 9.996 57.2234 9.588C 57.2354 9.24 57.2414 8.994 57.2414 8.85C 57.2414 8.694 57.2354 8.448 57.2234 8.112C 57.2114 7.704 57.1064 7.401 56.9084 7.203C 56.7104 7.005 56.4494 6.906 56.1254 6.906C 55.8014 6.906 55.5404 7.005 55.3424 7.203C 55.1504 7.401 55.0454 7.704 55.0274 8.112C 55.0214 8.28 55.0184 8.526 55.0184 8.85C 55.0184 9.168 55.0214 9.414 55.0274 9.588C 55.0454 9.996 55.1504 10.299 55.3424 10.497C 55.5344 10.695 55.7954 10.794 56.1254 10.794ZM 66.3036 11.694C 66.3216 11.718 66.3306 11.751 66.3306 11.793C 66.3306 11.853 66.3096 11.904 66.2676 11.946C 66.2316 11.982 66.1836 12 66.1236 12L 64.7916 12C 64.7076 12 64.6446 11.985 64.6026 11.955C 64.5666 11.925 64.5246 11.883 64.4766 11.829L 63.0996 9.534L 62.4786 9.534L 62.4786 11.775C 62.4786 11.841 62.4546 11.895 62.4066 11.937C 62.3646 11.979 62.3106 12 62.2446 12L 61.0836 12C 61.0176 12 60.9636 11.979 60.9216 11.937C 60.8796 11.895 60.8586 11.841 60.8586 11.775L 60.8586 5.925C 60.8586 5.859 60.8796 5.805 60.9216 5.763C 60.9696 5.721 61.0236 5.7 61.0836 5.7L 62.2446 5.7C 62.3106 5.7 62.3646 5.721 62.4066 5.763C 62.4546 5.805 62.4786 5.859 62.4786 5.925L 62.4786 8.094L 63.0276 8.103L 64.3506 5.871C 64.4166 5.757 64.5276 5.7 64.6836 5.7L 65.9886 5.7C 66.0426 5.7 66.0876 5.718 66.1236 5.754C 66.1596 5.79 66.1776 5.835 66.1776 5.889C 66.1776 5.913 66.1656 5.949 66.1416 5.997L 64.4676 8.733L 66.3036 11.694Z"/>
</defs>
</svg>
